<mxfile host="app.diagrams.net" modified="2020-05-07T13:36:01.979Z" agent="5.0 (Windows NT 10.0; Win64; x64) AppleWebKit/537.36 (KHTML, like Gecko) Chrome/81.0.4044.129 Safari/537.36" etag="-NoA60jxGnVcWmbJZfxw" version="12.9.4" type="github">
  <diagram id="YOMXvweBmTveTd4qZyjk" name="Page-1">
    <mxGraphModel dx="1337" dy="608" grid="0" gridSize="10" guides="1" tooltips="1" connect="1" arrows="1" fold="1" page="0" pageScale="1" pageWidth="850" pageHeight="1100" math="0" shadow="0">
      <root>
        <mxCell id="0" />
        <mxCell id="1" parent="0" />
        <mxCell id="WfICn3c8xEElV-hs6Pjb-29" value="&lt;b&gt;Interactive Notebooks&lt;/b&gt;" style="text;html=1;align=center;verticalAlign=middle;resizable=0;points=[];autosize=1;" parent="1" vertex="1">
          <mxGeometry x="126" y="444" width="135" height="18" as="geometry" />
        </mxCell>
        <mxCell id="WfICn3c8xEElV-hs6Pjb-45" style="edgeStyle=orthogonalEdgeStyle;rounded=0;orthogonalLoop=1;jettySize=auto;html=1;exitX=1;exitY=0.5;exitDx=0;exitDy=0;entryX=0;entryY=0.5;entryDx=0;entryDy=0;fontColor=#6600CC;" parent="1" source="WfICn3c8xEElV-hs6Pjb-31" target="WfICn3c8xEElV-hs6Pjb-33" edge="1">
          <mxGeometry relative="1" as="geometry" />
        </mxCell>
        <mxCell id="WfICn3c8xEElV-hs6Pjb-106" style="edgeStyle=orthogonalEdgeStyle;rounded=0;orthogonalLoop=1;jettySize=auto;html=1;exitX=0.5;exitY=1;exitDx=0;exitDy=0;entryX=0.5;entryY=0;entryDx=0;entryDy=0;fontColor=#6600CC;" parent="1" source="WfICn3c8xEElV-hs6Pjb-31" target="WfICn3c8xEElV-hs6Pjb-105" edge="1">
          <mxGeometry relative="1" as="geometry" />
        </mxCell>
        <mxCell id="WfICn3c8xEElV-hs6Pjb-31" value="" style="shape=image;verticalLabelPosition=bottom;labelBackgroundColor=#ffffff;verticalAlign=top;aspect=fixed;imageAspect=0;image=data:image/png,iVBORw0KGgoAAAANSUhEUgAAAgAAAAIACAQAAABecRxxAAAABGdBTUEAALGPC/xhBQAAACBjSFJNAAB6JgAAgIQAAPoAAACA6AAAdTAAAOpgAAA6mAAAF3CculE8AAAAAmJLR0QAAKqNIzIAAAAJcEhZcwAADsQAAA7EAZUrDhsAAAAHdElNRQfkBQcMFxebfLzIAAAtgElEQVR42u2deXxX1bX2nyQkgIBMIoKoDAoIynXAoU7YXlutigYQuVrrq9XX23pLVURpa2vtcKsBeuvUWmtvW20vfmylhrZOtc5UbQWckXnQyDwVEoaE5Pf+kTeXKSR7WOesvc95vvtPTlhrT89vn33W3qsIWaADzsAJGITB6IGu6IAybYdIotSiBhuxBvMxH7MxE1u1HYqXIm0HPOmJyzEap6BU2xGiRi3+jul4FGu0HYmRmAXgLEzE59FG2w0SBHV4GlMwU9uN2IhVAM7G93CmthMkOF7G7XhF24mYiFEADsFkXBGl5yQNfo/xWK3tRCzEN40uwUPoou0ECZqNuAZPaDsRByXaDljRFvdiCtppu0ECpz0uRTe8gHptR8InphVAR0zH57SdINHwAkZhs7YToROPAPTA0zhR2wkSFW/ifKzTdiJsYhGATniR059YMwufwRZtJ0KmWNsBI9qiktOfODAcjzMutCXi2AS8F5dqu0AiZQA64VltJ8IlhleAS/B7bRdIxBQwhh8F90f4AtALc/ndn3ixEYN5UqB5wt8DmMrpTzzpisnaLoRK6CuAs/GitgskAxQwAq9qOxEioW8CPoIjtF0gGaAIffGwthMhEvYK4Cy8rO0CyQxn8rDwvoS9BzBR2wGSITiamiHkFcDBqOJNP0SMnejDY8IxcRMKVmUHHsNlGIQOxhZM/2cSFh0wCJfhMeywHCHjtR0nNrxq1bnT0d/aAgUgbgbgD1ZjhF+UIqKDhb7X4xYnGxSA+LkV9cb9uB3ttd0lppxroexu058CkA1utRgp52g7S0z5psXi3xUKQDZ4wrgnv67tamiE+xlwkOFztbhV21WizM2oNXxyoLaroRGuAJh2VSUWa7tKlFmCPxo+afqzkhvCFYBehs/xoCcBKg2fO0Tb0dAIVwA6GT43W9tREgCzDJ87UNvR0AhXADoaPrdS21ESAJ8YPmf6s5Ibwg0FNt1796lBGjZIOrAvnQh3BUAISRwKACE5hgJASI6hABCSYygAhOQYCgAhOYYCQEiOoQAQkmMoAITkGE0BKMM4TMM8VPMMPiF5YwwWW93nlsRlHbwQJDuwLyOiBFNFJj8FgDTBvowIuelPASCNsC+jYYzg9KcAkEbYl06kfziyDHMxIJAa8AhpdmBfOpH+V4BRotOfEOJB+gJQrl1lQkgT6QvAidpVJoQ0kb4AmN72SwhJHIYCE5Jj0heAFdpVJoQ0kb4A8B5/QoIhfQGo1K4yIaSJ9MMiSjEXRwZSAwaPZAf2pRPprwDqMEm70oQQTabwLAARhn0ZEcWYTAEgorAvI6McCykARAz2pROaWyKlKMfFOBF9jDMBS9eAG0fZgX3pRLjNwezAxAb2pRMMBSYkx1AACMkxFABCcgwFgJAcQwEgJMdQAAjJMRQAQnIMBYCQHEMBICTHtNF2IKOUYRQuxgnogw7aruxGDaowB5WoRK22K4S0TMyHgaQyHydVFmG0dveKw8NAGSNWAZDMfJxkmZKx1z8KQMaIVQDimP4FFFCh3cWiUAAyRpwCIJv5OOlSrt3JglAAnAj3cGSMx4GlMx8nzVIMzsx2II8DO5Gt90BtYst83A8Xa7tAdKEASFKu7YA1FICcQwGQJL7Mx8O1HSC6UAAkiS/z8aHaDhBdNAWgDOMwDfNQzd1aNRq0HSC66IUCj8Fk9NeuvjArMFDbBWuPSa7RWQGUYCoez9z0jzHz8SxtB4guOgJQgZu1K54IldoOWDND2wGSP2Sj5XyQtlEqlO0orbIYZdqDQQxGAkZCGRZlVgCA0eqT2qZkKQqAAhAJ44QHsQ9J2JDMfJxsuUt7KIhCAYiERzMuAJKZj5MsFRmLAaEARMKCjAsAIJf5OKmyMFOL/2T7MuOkfzZqi1cuYNkaJHeCTCbzsTTVqMJsVGIG6rRdEYenAZ2gACRtg6QD+9KJ9N8DGXtGSDCkLwDxRcsRklnSF4BK7SoTQppI/42oFHNxZCA14HtjdmBfOpH+CqAOk7QrTQjRRDJazgd+O84O7MuIkIyW84GDJjuwLyNDKlrOBw6a7MC+dEJzS0QmWo6bgARgXzoSbnPEmBiE6MG+dCJbJ8IIIVZQAAjJMRQAQnIMBYCQHEMBICTHUAAIyTEUAEJyDAWAkBxDASAkx1AAkqHlzMcupRrzMA2XZiiXDyEtEPNhoDFYLDbx9y6LMFq7a4KEh4EyRqwCUIKpiU3+pjKFK7d9oABkjFgFIPnpX0ABFdrdExwUgIwRpwDIZj5uqZRrd1BgUACcCPdwZIzHgcswFwOSa5I9WIrBqE3JVgzwOLATfJeUZFRq0x/ol8H8fiR1KACSlKdqjQJAvKEASHJiqtaGa1eXxA8FQJJeqVo7VLu6JH40BaDlaDnSGg3aDpD4aaNmeQwmo7929YVZgYGpWiPEE50VQAmm4vHMTf+0Mx/P0q4uiR8dAajAzdoVT4TKVK3N0K4uIS7IRsv5IG2jVCjbkUlZzHOBe8BIwEgow6LMCgAwOjUBYBTAnlAAImGc8ETwIQkbkpmP91/u0u7G4KAARMKjGRcAyczH+ysVjN/YBwpAJCzIuAAAcpmPmysLufhvFgqAE+mfjdrilQtYtgbJnSCTyXy8O9WowmxUYgbqhP7HbMHTgE5QAJK2QdKBfelE+u+SjF8jJBjSF4B0o+UIIS2QvgBUaleZENJE+m9EpZiLIwOpAd8bswP70on0VwB1mKRdaUKIJpLRcj7w23F2YF9GhGS0nA8cNNmBfRkZUtFyPnDQZAf2pROaWyIy0XLcBCQA+9KRcJsjxsQgRA/2pRM8VUZIjqEAEJJjKACE5BgKACE5hgJASI6hABCSYygAhOQYCgAhOYYCQEiOoQAQkmMoAITkGAoAITmGAkBIjqEAEJJjKACE5BgKACE5hgJASI6hABCSYygAhOQYTQEowzhMwzxU8/ZWQvLGGCzmteBEDPZlRJRgKhODEFHYlxEhN/0pAKQR9mU0jBGc/hQA0gj70on00ySUYS4GBFIDJpPIDuxLJ9L/CjBKdPoTQjxIXwDKtatMCGkifQE4UbvKhJAm0heAXtpVJoQ00UbbgYxShlG4GCegDzpouxIoNajCHFSiErXarpA0mS/6ETDMz4BSUY55KIswWmRc8TOgE+m/AszWrnLClGAqHkd/bTeiYQCmYwoPpWmRfsNXalc5YSpws7YL0TERd2q7kFfSD4soxVwcGUgN5INHxuBxwbrliVGePw0MBHJCozlGY3ogNZAeNNJRjnliKQZ7bQdSAJzQePf6A6ZqVzshGOXoTj9crO1CHtHZfJmEKdoVT4RybQeihgKggI4ANOBWjMIi7cqLwyhHH4ZrO5BHNN+ISlGOi3Ei+qCjUg2k3xu3eNUk71Sjk8dfcw/AiXCbI40OpQCExGZ09vhrCoATDMCQZIW2A1HD1lOAAiBJ1qMck2WWtgN5hAIgSaW2A1EzQ9uBPBLuG1GMewDSUY55YgmOZiBQ+nAFIEkdJmm7EC0TeCxYAwqALNmNckyWCr4AkD2J9T6AYkxWP2MfW6kQ+CHifQAZI1YBAIByLFSfVLGUhUIhwBQAJ8LdEolxE3AXMlGOWaYaVZiNSsxAncj/x01AJ8JtjrgFgKQN+9IJbgISkmMoAITkGAoAITmGAkBIjqEAEJJjKACE5BgKACE5hgJASI6hABCSYzQFoAzjMA3zUM2YbULyhlQGXR94gCQ7sC8jogRTxU6T+cBBkx3YlxEhN/0pAKQR9mU0jBGc/hQA0gj70on0D0dKZ9DlcWACsC8dSf8rADPoEhIM6QtAuXaVCSFNpC8AzKBLSDCkLwC9tKtMCGmijbYDGaUMo3AxTkAfdNB2JVBqUIU5qEQlE4Lki/miHwHD/AwoFeWYh7IIo0XGFT8DOpH+K0DWM+iWYCoeR39tN6JhAKZjCg+laZF+w1dqVzlhKnCztgvRMRF3aruQV9IPi5DOoBtWINAYPC5YtzwxyvOngYFATmg0x2hMD6QG0oNGOsoxTyzFYKYHTx+Nd6/sZtBllKM7/YRyBBIrdDZfJmGKdsUToVzbgaihACigIwANuBWjsEi78uIwytGH4doO5BHNNyKZDLoh7QFsYS5gD6rRyeOvuQfgRLjNEWN2YAqAD5vR2eOvKQBOMABDkhXaDkQNW08BCoAkWY9yTJZZ2g7kEQqAJJXaDkTNDG0H8ki4b0Qx7gFIRznmiSU4moFA6cMVgCR1mKTtQrRM4LFgDSgAsmQ3yjFZKvgCQPYk1vsAijFZ/Yx9bKVC4IeI9wFkjFgFAADKsVB9UsVSFgqFAFMAnAh3SyTGTcBdyEQ5ZplqVGE2KjEDdSL/HzcBnQi3OeIWAJI27EsnuAlISI6hABCSYygAhOQYCgAhOYYCQEiOoQAQkmMoAITkGAoAITmGAkBIjtEUgDKMwzTMQzVjtgnJG1IZdH3gAZLswL6MiBJMFTtN5gMHTXZgX0aE3PSnAJBG2JfRMEZw+lMASCPsSyfSPxwpnUGXx4EJwL50JP2vAMygS0gwpC8A5dpVJoQ0kb4AMIMuIcGQvgD00q4yIaSJNtoOZJQyjMLFOAF90EHbFQdqUIU5qEQlk3UQaeaLfgQM8zOgVJSjdlmE0drDRb0viTDTMi4AklGOIZQpkRwYowBEwqUZF4BsTf8CCqjQHjJqfUkSoFQ4a44P8jZkoxxDKeXag0alL3OBRlzUaEwPpAbS0WPSUY6hsBSDg98OZCSgExrvd9nNoJvVKMd+Qvn7SHDobPBMwhTtiidCubYDiUEByCg6AtCAWzEKi7QrL052oxyHaztAkkHzjUgmg25IewBbMpsLuBqdtF1oBe4BOBFuc8SYHTi7ArAZnbVdaAUKgBNxBHnEwgptB1gzYgcFQJLZ2g4kxixtB0gyUAAkqdR2IDFmaDtAkiHcN6IY9wBKMRdHJtckaizB0QwEyiZcAUhSh0naLiTChOCnP3GEAiBLFqMcK/gCQNInzsNAQDEmqx/ekSwVkfxI8DBQxohVAACgXPjEo1ZZGFEIMAXAiXC3RGLcBNyFTJSjFtWowmxUYgbqtF0xhpuAToTbHHELAEkb9qUTcbzfEUISgbcCE11K0QuHoTd6ow+6oQu6ogs6ozOKAXRAGYAd2AqgHpuxCZuwEZuwDitQhZX4GKuwU7sCcUMBIOnTGcfhaByFwRiIvq2OwbZoCwA4qJl/q8MSzMcCLNSuUqyE+0bEPYCs0QmfwnAcj+PRX7FF2Zd7wBUASZqDcDbOwBk4DiXarpC9oQCQpCjBcTgH5+BsjrJwYdcQedrhXIzBSHTRdoS0BgWASFKGC3ApLgj4ArEyHmyKg5hDgfPJUNyFNerhy62VjXgQZ2g3FQGAMozDNMxDtVeH+kABkKErJuBD9altU97B14K/5TDjSGXQ9YEC4M9xeAg16hPapWzBAzhGu/nyiWQGXR8oAD4U4UK8oj6NfcsL+DxjA9JGMoOuDxQAV4oxErPUJ69UeRdXcjs8PWQz6PpAAXChDa7FMvVJK12W4GqKQBqUYREFIFqKMRbz1SdrUmUprmO0YtKME+40HygAdozE++qTNOnyHs7TbuZs8ygFIEoG40n1yZlWeQ7DtJs7u0gvIH2gAJjRAz/DTvVpmWapw0/RTbvZs8kWCkBUFOFKrFWfkBplPW7gjVnybM6FAMhEOTZXqjEP03ApylLprSEZ+NLvU17GkFTaOUfk4RVAKsqxpbIIoxPuqVJ8FzvUp6B22YHb+HlQkmkZFwDJKMfWypQEl6jHYk5q9ViPOXgCdxs/fzf+gNkpvpjMYsiwHJdmXADSm/4FFFCRSB+VYBK2J+z5ajyH/8K1OBkHOvfHgTgF12Aqnk1cDLbj69wPkCHbgUCyUY4mpVy8h/rg1cS8rcM/cC8uR3/x/hiAy/BjvJng14rn0Vu8rXPJ6MwKgLS4mZQlwtuBF2BdIn4uxE8xqpUjuBL90RWjcB8WJFKHNbhQtK1zy5SMCoB0lKNZGSvWL6WYigZh7xrwOm7Bkan3x2DcipmoF6/NFG4J+iOZQdcHaRvSUY5m5bdCvXKI+NL/dXwVhyr2B9ALN+IfwrV6EQcLtXiukcqg64O0jWQWnq2VeSL9cTKqBH2qwp0YrN4fTQzE9/GJYO0+xqkibZ5zSjEWv8WHnrGBPkjbkI5yNCtbBPriamwT8qYBz2Kk45m6JPu8DUbjWbFXgu24QqDVSQtQAEzLPz1bukjshWwz7nf43U+zz4/CA9gqJHTf501CSRKjAOiclP/Qqw3a4TERLzbgDu/jM2n0OdADdwjFDTyG9p6+kP0SowBIRzmald94tEB3zBTwYA2+sVs4Tzj9sX864TasF6j5K0x+khQxCoB0lKNZucS5/ocJXOa9BXeIpQFJTwAAoDO+g3961/8d9BLyh+xBjAJQKvRlw6Ysdg4E6ucdtlSLB3FIZH2+J91xD+o8W2EpBgp6RP4/MQqAdJSjSbnYse7HYIWn5WfEB376AgAAQ/G0Z0uswNHCPpFIBUA2yrH1cpdjzU/wDPhdnshhZB0BAIDRnlEQqzA0Aa9yTawCIBnl2FqpcDyhNsxr+u/EZBwQbZ/vj0642+sg0RreIyhLrAIAyEU5tlQWOi/+h3ql8PwAp0Td5y1xMuZ6tMxa3h4kScwCIBXl2FzZgg/xW1yCUsc6D8JKZ9s7cSfaRd7nLdMeP/KIFqxCvwR9yxlxC0Co9MFy5+H9Ec5M2Lsw+uMsfOTcRot5Z4AUFAB5unok9ngihWuyQ+mP7vijczu9j66J+5cLKADStHeO+tuB8anEvYfTH0W4yflC1JfQNgUPMw8FQJZiVDoO6JU4PSUfw+qP0513S6bxmJA/FABZ7nIczK9bXenhR2j90QdvOrbanan5mFkoAJJc6TiQH051ORtef7TD/zi23BdT9DKTUADkOM3xku97Ul7KhtgfRbjDqe224eRU/cwcFAApejm9y9bh2tQ9DbU/vuwUI/ix6EGp3EEBkKGNU3a/rbhAwddw++MipyvTXuUNwu5QAGRwyVRUjXNUfA25P0Y4RXW6HtbKBTIZdH0IecDJMMrhnv9NqX3225uw++NMh+tDGnC+krfBI5VB14ewB5w/h2GDw/QfruZv6P1xioMErEUfNX+DRTKDrg+hDzg/ivGCdWtW4zQlb0sxzNjLYc5HoXw5EzXWbfoi04rujWQGXR+yLQC3WLflttTf/TvgdPwHHsIsyw+VOzAHv8KNGJHo6cTmOMdhO3BCyj4GjmwGXR+yLADHWX/7r8NFKfo3CDfhLwJJyGvwDCbg2BQ9v8j6o+A23he0izKhd38KQEuU4i3rlvy/qXhWjHNwv/AYKKCAFXgQZ6QUuPRla+/mqL20BId0Bl0fsisAt1m343+m4NXh+A6WiU/93csSfC+VO3p/aO3ZbSl4FQXSyTN8yKoAHG29tP5twr+dZbhUMDNfa2UmRie88VZkfUZgGy8Pb0Q6fZYP2RSAYrxm2YavOecWMKEtrve4Y8e1LMC/J5q4q731ScGXeEgYADZTABLmOssWXJngNVbtMB4fpz75m8pqfBMdEqtbH+szFtck5ktEUACSpZtl4stanJGQJ6UYj0/UJn9T+QRXJ/Y6cLrlrUFreF0YXwGS5n7L9vtqQn6chffUJ39TeTux+IabLD25J6lujwduAibJcZbfqP+QiBcH42GHMwjJlhmJvOgUWV4fWseIAOkMuj5kTwCet2q7jxK46bcY1zucQEijbEjklp7ulhuczyU/CMKmzDsnLQVgf5xn1XI7cZa4Bz3xrPpEb6nMSCCZ9wjLz5vnpjEUQkY2g64P2RKAYrxt1XLyoT/neGQdSqusd06ptn9+bOXBHB4Oksyg60O2BMDu4s8PhY/RtMEdqQX6+JUG3IUS0bq3tUy4clmawyJEJDPo+pAlASjFEotW24lTRa33dE46olOeFt79ONVq83URTwbIZdD1IUsCcLVVq/1I1PagBA73JF0WC6fzvtfK+lUpjoxgkcmg60N2BKAECyzabBkOELR9GtapT2eXskl0E/RAq6Cn+cIvIRmEAmDDF6yG/mhBy+XYqj6VXct20ZYYa2U79/sArUEBMKcIH1gMvWcFLV8fycbf/kqdaGyAzSfQ98I4GhSEE81iOu18apCGjTQ4H08aP1uLYZgvZPcaPCTaNusxH/OwAAuwEjWowUbUAOiAruiADuiFgRiEwRiI7oI2CxiPnwj9X8fiLYul/fl4WrAemYMrAHP+avHL82Mxq2Oc8uU0V1bhd7gO/Ywt98JYPIjlQtYb8CWxNnnQwq7kSiyDUABMOdYi7n4zeghZvQi1ApNvHm7DIGcfjsa3RA6X1WGkUKv0tDjt2sBzAS1BATDlvy2G+neEbH7W+zrP9bgfp4j4cip+gvWe3mwV+yJgk0r050I2MwkFwIyuFtdUr0YnEZtDPW91qMINoh8igQNwI6q8fNokFBfQ2eIoVA06i7ZCpqAAmDHeYpBPFLHY1SrmYO+yFDckdJd/Ga708myZ0ObityxsfiWRlsgEFAAzzA8ArRf5/S/Gk85TbDMmJJwvtxS3eASWPSlyTKeTRWDUW4m2RtRQAEw4yWJ4y7z/21+I3VT+hMNTaZPeeMTZx++KePBdC4t6mRgDx/S2NZ9ftfgF4AGLX1+J4y9jHG/6+QifS7VdznO8irRe5HvAwRbRkT9NtV0iwnQZ5XPbeuwCUGqx2JS4ja6X4277n0RDd8w4CE85+boOPQWs/8zY3lqeDGyepYYNeLmHjdgF4ALjGjR4fG3fxQyHCVWLiUqRlEWYhDoHjyXuSRxksVK6QKV1gud1w+Z7zMNG7ALwG+MaSESdXeEwmdaopRtv5AzLS9L9f1SaeM7Y2m9VWyhYfm3YfDswwNlG3ALQ3uJrvH/eX5fl/9IA0mENdggZXodDvO2a58DeIhwTkRG+YdyA7ku2uAVglLH/HwmcPq+0nkbvJZhxyIY+lhd2FVDAdG+rpViRojxnkM9ZdNetjjbiFgDzEGD/6z8/bz2FXg8oC043vGHt/6e9rf6nsa1faDdQiBxgkXap3lECYhaAYosbeH03AEvwrvWvfzjTHwC6Wa8CZnsHBQ02trWK9wQ3xytWHfYEjrS2ELMAnGzs/RvetuzuGyxgKQ7Vbp596GO9F/B/vG3ONrb1Ke3mCZEbLDusFr/HFzAYHY0txCwA3zP2/npPS+0tg2rWBLD11xyDLb8IfOy9OXezsa3vazdOiBwscuI876XeOxeO+XZsAQXUKn/4a4kzLeMCvuFpr7fxhWmvaTdNmLgEnrDsWf7m2QedsNHKnsyJw6T4ulVdVnmfWzSNZqnTOhgc9ubDXdoOZIAnPP/+S+hi8fRTwhkHpKnAnyye7ul9ZegMw+faYIRSiwTOS+q/oLEX+63R3Sm2St/ykULMvy09rC4Omef5EznE2JLEWY0MclZweebjKvM823+klbV0T/y5cr5VnXxTiZoK6CztZgkV97PdLAXc79n6NvcN/057qBjzB4taveJp6yeGdmoZENw8PS3uWGPZu5R7tf0xVvcNh/ftf38cjmrjejV4nDUBbM4ESCYqMybsTUAAWI0rEeaX+PCpx0tef/8li4O8d+AT7eoa8xF+YPxsEa7wsvUSGgyfDPfzqTr3qP+Sxln8YgCLLGLnFid81580ZVhmXLeFnvcZzDG0438AyYHwVwAAcAue03YhSl73+utTLO7wq8BO7cpaUYvJxs8e6RmoO9PwuX/RaIg4BKAWo7lL6sDfvf56rPGTn+Bh7apa80usNH7W7yXAtBf6CWVtyCgH4R/qS+rYinm2vX2xeQG4QXtwODHBuH4fe9k5ytgOjwS1SEer9Mssq71a+1RjO+si/YDVweL70hAPO0XGV7d+Of1GiOMVoJFqjMQ94BcBU/ySTpxn/ORj2KpdVSdqLO6T9AlxKmCO4ZMSF7daEpMAALW4EaOxUduNSPjA669PN37yEe2KOmPu+We97Lxv+Jxf2LYTcQkAAFTiSPyc6wADTIddc7TBqYZPLsQ/tCvqzOuYb/jkCLT1sDPX8Dm/kCMn4hMAYAP+HSM8Q1zygM8K4Djja1UejlqMpxk+1wEneVgx7Yn+Ape3WhKjAADAq/g0zsAM1Gk7EiwFfOjx1+YvAI9rV9QLc++P97BiugJom344dawCAAB/QzkOxdfwEnZouxIg67DF469NBeAT40V0mHxoHA1wnIeVf2KD4ZN90m6AuAI492Ut7sN9aI/TMRwDMRg90QUdUabtVgAs9/rrEw2fe1G7mp4U8KJhHqDjvOwsN0zN6nt9G8k8Nxl+U/ZZmpca3513tXZzeHOtYU13eP2sPGFoZXza1Y/5FSCfmCb59ole62u8MnxBuTX8ed7wuTIM9rCyzPC51FcAsb8C5I+DDJ+r8rBh+j16veeLRggsxUbDJCbvpOCNf05CS7gCiA1TAVjrYcNUAOLeAGxigbYDu9ElbYMUgNgwvXbTdN+5OUwDUnxvHAyDkGqR+uXgFIDYMN0D8AmYNj1FGNJvpzshrWMoAKQVTCP01nvYMH3NCGnquBNSLSgApBVMY9I3e9gwzezrd+A4FEKqhXleSyEoALFh+jW61sOG6WuGT6xhOIRUi9K0DVIAYsN0BeAjAO0Nnwtp6rgTUi0oAKQV0lgBmNoIaeq4E1ItUg9ipwDERkgCUK3cFjKEJABcAZAAqNd2gKQFBSA2TH/ZfX5LTO/4S33POhFCuow79YPtFIDYMBUAn7dJUwEIaeq4E1ItKACkFUJaAYQ0ddwJqRY+OzdOUABiw/Q3op2HjRrD50KaOu6EVAuuAEgrmP5G+ASVmgpA6odXEyGkWnAFQFrB9NObaThvc6wyfG6gclvIEFItUv+wSgGIDdNDPj4CsMzwOYVMNgngc9OPNOvSNkgBiA0KgDQhrQB8bnFwggIQG6a/ET5vtqYXfYX02+lOSDLmc4+TExSA2DBdAfjcML/U8Llu6KvbGAL0N14rDUORc7nb0AZXAKQV0hEA03Rfn1FuDX9Ma7DdK9NSX8PnuAdAWsF0h95HALZgoeGT+RGA97DTw0pfw+dSv5yEAhAbywyfO8LLypuGz31asykEKDKuwdtedvoaPrcs7QagAMSG6fv5IV5XTJum/O4d+UbgEOPN0rc8rHQx7gvT3hWDAhAbq7HN8Emf3W3TFQBwiWpr+DLW+Mk5HlaGGD5XgzVpNwAFIDYKxh/pjvaw8rZx4vUvKreHD0X4guGT2/Cuh52hhs8tS78JKADxsczwOR8B2Gb8EjAQp+o2hwefMs6B9LLxuqs5jjF8bln6TUABiA/Te+yP97LypPGT8a4BzD1/ysuOqQCYfnshucY0ofU6FHlYGWZopYD1OEC7SZzogA3GdTRdKTRHEdYaWvmSdpOQGDjZeNj29bKz1NjOjdpN4sRE4/r55Q4aaGxnuHaTkBjogHrDAeW3Q/9T44FbZZytIBzaYYVx/e72svRFQys7NVZS3AOIjxosMXzydC87M4yfPBRX6TWHI9eiVwIt0RyfMnxukfFVbCTnTDf8TfH5dg2UoMr4N3JJ+jfae1GG5cZ1W+y1lwLMMbTze42G4AogRkzDdIZ5RQPW42HjZ/tFtg8wEYcbP/tLmB6Nao5uGGb45GzVFiERcZbxr9eFXnb6o8HYUo3n6YM0ORzVxvXaicO8bI01tnSGdrOQWGiPHYaD6h5PSy8ZD1+lJawTMyxq9WdPWz83tLPd6x5nkjP+bjisFnnaucJiqhRwnnazGHGhVZ1GeVpbYmjnNe1mITHxY+MB7Hdar9Ris6yAj3GQdsO0ysH4xKJGvpubg4wtTdZpDm4CxsnfjJ+8wMtOHaZYPN0Hj3jumCdNMX6D3hbP32l8KKp5zNcP5j1KCLpip+EvyyueltpjldWSeZJ207TIbVZ1We6VYREA/mFoqc7rFmeSQ/5mOLTqcainpVutJk1dwLvZI1BnVZeveNo7wvgryqvaTUNi43bjYXyTp6VOWGc1bdYGekvQEKy3qsfH3gHONxnbuk27cUhsmB8JesPb1vVWE6eA5V5XkibDYfjIshb/4W1zlrGtE7Sbh8RGsfEh0wYc5WmrBO9aTp730U27gfagGz6wrME7aONp81hjWysD3zolQfKI8QC709vWpy2nTwFvBCQB3fCGpfcNOM3b6lRja7/SbiASIyMtfmH8j+o8bi0BH3gG0UrRG+9Y+/6Qt9U2WGls7XztJiIx0habjIfYRd7WjsBm62m0PIDtwCHW7/4FrBMIaBptbG2D98dGklMeNh5kfnfaNXKN9UQqYC3OVG2hEZY7/43lGgHLLxpb+2/VFiIRYx7V3uB1R3ATpvcQ7F7qcIdSvGkRbkCtg8dPCWzJDbU4R/lZldYhGaDM4lrLBwTs9cQahwlVwNPokXrbHIxnnXytEjnPYHoGsIA13l8bSI75ifFAqxHZlR/jNKkKqEp5o+tCqyM/u8pOjBCw3gM1xhbvT7VdSMYwv7y7gNu9rZVY7DrsW/7keUuxKYdafCDdu3xHxIMfWlj0y95Acs9s46G2Hgd6WSrxmFiNpRqTEt7xLsM3LX599y4vokTAhy4WX2dM8y8Rsh9swnS/4WHH79d/V1mOG9A+kZYow5VY5OHZIhws4se3LWxel0hLkBzRxeIXby06Olrx//XfvazABHQQbYUOuNki8Ka5shoDRDw50OLo1BZ0Em0Fkkt+YTHM3fYBZKd/Y9mABwTCbYEinIYHLL6GNF9qcLJQb/zAwuovxMYAyTE235y3oKf1/5/E9G8qC3C7cfLsfTkG38FCAS92YqRQX/S2WI81GCcNJaRFnrYY7D+x/L+TnP5NZSX+B9egn7FP/XEtpnku+XeVelwr1hPm3/9lojO94THELPBZ/MX42ToMwzzjp0vwS1yZWj02Yj7mYQHmYzWqsQWbUA2gI7qgEzriEAzEIAzGQNHrs+pxjUUClJY5Bm9ZhPX8K16QbDySZ962+OV5zvh/ldr5D7fUYqxgL7xgYXmW9pAhWeJKq2FvljU4+9N/m2fmpD253Mr2ZdpDhmSJNlhgMfg+MvgIl/3pvxnnCPbAgRbpxguYzxMARBa7HD7/1cr/lv3pPx9DRNv/Xivrl2sPF5I1SvChxQCsb/Hy7mL8Wn2CJlue9MqbvC+nod7C+vtMyEPksXsHnbffgNysT/8G3CU8AQ+wegErYIz2UCFZpBjvWQ3Dimb/F/fF/8MY43hfQJplLS4Wb/kfW3nwFj++k2Q412og1uMz+/wPPtO/GEBPq9Tb6ZfpDpGQrXGO1fK/gHO1hwnJLk9ZDcUqdN/jr90X/4/udpB2LDaqT/TmysZEzt71sNr9L+CP2kOEZJmjLbPfPbHb3/r++u/iCPxefbrvXZL47QeK8KSVFzswUHuIkGxzn+XEaMocKDf9Gznb4Tb+pMpb+FxCrT3B0pMfaQ8PknW6W6byrMMIyE9/ACjBV4zTlyVXluGLiX10O9tyvbUanbWHB8k+V1lOkVU4LIHp30hHTBQ7tWdf1mMi2iXWzodbf/O4SntokDxQhOctB6b5HXZ207+RdrgeS1Of/PNwvfP9Rya0t7iNsbE8x89/JB2OwrYUppjZ9G+kFJfjBYuLS3xKA/6C8xOOtSvGY5Ze1aC/9rAg+eGbQU3/JgbgB/g4Ua+WYapwjH/zTLb2bGL6g4Dkl1LMCW76N1KCc/FTLBP3aCmm4OSUFtlftfZuFk//kXQZgq0BTv9dHIuv4xWn3H17ln/iGXwbJ6XYsqOw09LHbbz9j6TP1wKe/k20w6kYj0fwoeX+QB0W4TGMx/EiqTxsOA/brVtsfMo+WsB9yexShGcSCIB5BFejIQFvO6Iv+qEvjkBf9EJbdEVbHIADUYIa1GI7NmIDNmAxFmMRFmM56pJvwGY4G09ZpzV5CheioOItyTmHWgYFpfvrHx+nYYt1i61KJASZECMuFP30lu/pPwKbrVusIeWsyITshU2mmpbLo6m/b4fEpx1+/Qv4vrbbJO+U4Dn++ntT7rD1V8CzuZZMEgjdBAJx8/3rf43T58rlOEjbcUIA4BTP0OA8//oXocKpzbbhBG3XCWniMo/NwDxP/3b4nVObNeAKbdcJ2Z3bHaf/Jhym7boah+NNx1ZzS8NOSGIUOWf5XYt/1XZehbOwyrHFpjHAjoRHW7ziOKDr/vfisLxQhAmWt/3sKs+jTNt9Qpqjq1UW4T1L5V43CGeZHvizczu9J5xziBBBelglENuzrMJ52u6nwmfwiXMbLUJvbfcJaYkjPK7kqMfkBO/YC4H2+JFlmo/dy3IcoV0BQlrjKOfNrcbfuLO1K5AYp2GeR8usxmDtChBiwklOce271gF3J3rdpg4dca/Hb38B63CsdhUIMeUkzzSeVRinXQVR/g1VXu2xktOfxMVgfOQ15Av4K47WroQIx+Ilz5ZYzoRfJD6OsMxqv2+pwwM4RLsaXvTGz5y/9zeVhdz6I3HS0yMuoKlswXfRSbsiTnTBD1HjXf/30Eu7IoS40tU5OnD3sg7fiizrXRfcJnJd2vMM+yFx0xa/EZgIBWzEdyM5/34wfoh/itT51wz6JfFThG8L3Ry4FQ+mkpfHnaF4QGDZX0ABDbidR35IVvg3sWyCDXgG5SjVrtA+lGCUddLU/ZdtPO9PssUp3p8Fdy8rcReO0q7S/zIUFZ7f+fcsS3nbD8kePfAXwUlSQAPewATl60QOw43WabxbK8/m6FwkyRUl+L54Cu8GzMQtCjsDg/ENvJlAbX6Q6+tRSea5QDybUGNZgvtwEbol7n83XIKfYVEidVjFNB8k+/TGM4lMnwIKqMc7uAfjMEDc66NwBe7DbK8DPS2XJ7OY5IsfMsi+FOGrqLBOgmnHJszGHMzDPMzDBsf/owuGYCiGYCiOTzgGYTtuxf3IYIpPCgBpniH4TWp73euwDJ9gOaqwGhuxERuxCVsBbMc2AB1QBqAzDkB3dEM3HIQ+6IvDcQS6puTfbFyF91OyRUggtMENqE5sQR1L2Yo7AoxqICQV+uNZ9SmoWV7GIO0uIESTIlyJteoTUaOsxlV8RSYE6Iq7nLLjxltqcU9k5xsJSZSBjlnyYizPYah2cxMSHp/Fu+qTM+nyFs7VbmZCQqUYIwVuEQq1fIArc5wJmRAjijHW6/78MMsSXMcof0LMKMEVGVoJzMZlaKPdpITExhn4k/h5u7TLTIzkxz5CXBmCh4Qu2Uq7bMEvcIx28xESPwfiOsxUn9A2ZRZuSOFoMiE54l9wH9arT+3Wylrch+O0m4qQbFKCM3APVqtP8+bKRjyCkTzYQ0jSlOF8/CogGViFX+FC3uHfHNz/JMkxFBfiHJylNvXq8Tb+ij/jNTRoN0WoUABI0nTB2TgTn8KJqQlBLWbhNczEy9ikXfnQoQCQtGiH4TgNJ2EYBiQSc1ePxXgXczATb2K7dmVjgQJA0qc9hmIYjsFA9EM/r7sHt2IplmIR3sc7mIut2hWLDwoA0aYn+qIvDkF3dEd39EB3dALQGcUoRUcA1ahDPTYD2IL1WIv1WIf1WI1lWIo12s7Hzv8DmOmmqfLhmWIAAAAldEVYdGRhdGU6Y3JlYXRlADIwMjAtMDUtMDdUMTI6MjM6MjMrMDA6MDDyKlgiAAAAJXRFWHRkYXRlOm1vZGlmeQAyMDIwLTA1LTA3VDEyOjIzOjIzKzAwOjAwg3fgngAAABl0RVh0U29mdHdhcmUAd3d3Lmlua3NjYXBlLm9yZ5vuPBoAAAAASUVORK5CYII=;imageBackground=#ffffff;fontColor=#000000;" parent="1" vertex="1">
          <mxGeometry x="153" y="373.4" width="70.6" height="70.6" as="geometry" />
        </mxCell>
        <mxCell id="WfICn3c8xEElV-hs6Pjb-61" style="edgeStyle=orthogonalEdgeStyle;rounded=0;orthogonalLoop=1;jettySize=auto;html=1;exitX=0.5;exitY=1;exitDx=0;exitDy=0;entryX=0;entryY=0.25;entryDx=0;entryDy=0;fontColor=#6600CC;" parent="1" source="WfICn3c8xEElV-hs6Pjb-32" target="WfICn3c8xEElV-hs6Pjb-31" edge="1">
          <mxGeometry relative="1" as="geometry" />
        </mxCell>
        <mxCell id="WfICn3c8xEElV-hs6Pjb-110" style="edgeStyle=orthogonalEdgeStyle;rounded=0;orthogonalLoop=1;jettySize=auto;html=1;exitX=0.25;exitY=1;exitDx=0;exitDy=0;entryX=0.5;entryY=0;entryDx=0;entryDy=0;fontColor=#6600CC;" parent="1" source="WfICn3c8xEElV-hs6Pjb-32" target="WfICn3c8xEElV-hs6Pjb-103" edge="1">
          <mxGeometry relative="1" as="geometry" />
        </mxCell>
        <mxCell id="WfICn3c8xEElV-hs6Pjb-32" value="" style="shape=image;verticalLabelPosition=bottom;labelBackgroundColor=#ffffff;verticalAlign=top;aspect=fixed;imageAspect=0;image=data:image/png,iVBORw0KGgoAAAANSUhEUgAAAgAAAAIACAQAAABecRxxAAAABGdBTUEAALGPC/xhBQAAACBjSFJNAAB6JgAAgIQAAPoAAACA6AAAdTAAAOpgAAA6mAAAF3CculE8AAAAAmJLR0QAAKqNIzIAAAAJcEhZcwAADsQAAA7EAZUrDhsAAAAHdElNRQfkBQcMGwi6wf4xAAA9CklEQVR42u2dd4CVxdX/v7v0Lk1QEEGlCCJE7LGLXRLzRlQsQKJiNDFEfzGW5LW9asBEI9GYEBUUS2zY0FgRG2JBqRZABUWU4tLLwpb7+2NZdu/uvfecKc9znnI+80ck9zkzZ87MnJ0+gKIoiqIoiqIoiqIoiqIoiqIoiqIoiqIoSaFIWoHEkZFWQFEKUKfFF0vroyiKHOoAFCXFqANQlBSjDkBRUow6AEVJMeoAFCXFqANQlBSjDkBRUow6AEVJMeoAFCXFqANQlBSjDkBRUow6AEVJMeoAFCXFqANQlBTTUFqB1KE3MChBYngfhfYAFCXFqANQlBSjDkBRUow6AEVJMeoAFCXFqANQlBSjDkBRUow6AEVJMeoAFCXFqANQlBSjDkBRUow6AEVJMeoAFCXFqANQlBSjDkBRUozeByBPZ3RHd3RGe7RHB3RAe7QE0BZAY7QAsAnbAKxFBptQgh+wCiUowUosxhJ8L6186Bied/cOdZ8DpV/Q8p6zo5jCKcDm6IcB6I+e6I7uaOaQWikWYwm+wDzMxXxsks58CKgD8CqvDsA3VAFMxr7YM5ChVyW+whzMwjv4EJulzRAY6gC8yqsD8I10BQWAMszCu5iON/CDtCrekbZvxBqwq7w6AN9IV9DaVGIWXsNreAPl0qp4Q9q+EWvArvLqAHwjXUFzsQovYTJewlZpRTwgbd+INWBXeXUAvpGuoPnZjBfwIF7GNmlFnJC2b8QasKu8OgB/dMTZGImB0moQrMHjuBczpdWwRh2AV3l1AD4oxsk4H6egkbQibGbhHjyCddJqWKAOwKu8OgBX2uOXuBg9pNWwYDMewx2YK62GIeoAgpVXDNgb92IzMjEOlXgZx8eqUkhbzFW/qMsrTA7B06gQr45+whwMj83wRdpWrvpFXV5hcBTeEK+IvsOXGIEG0oZlIG0nV/2iLq8QHIQp4pUwqPAVRkXeCUjbyFW/qMsrBeiL58QrYNBhHk6VNnNBpO3jql/U5ZU8tMc4lIlXv3DCa+gvbe68SNvGVb+Iycdp/leOxvgdrkGbgGLP4HssxhIs3X7SvwQlKMcaANuwCUALNAbQFg3RfnvYGbuhO3qgc2DlV45/4nqsDih2JTh0H4B3jsLd2NtznJX4EnMwD3PxGZZY79Fvit3RF/2xLwZgD+9HjEtwDe7RTmPM0H0AXtkZD6DSYweyBFNwNY5AC++atsARuBrPo8Rrh/cN9JIuAsUI1yGEUotzvDWnTXgev8beIfjfIvTFb/BfbPKk+RZcHZs9Aoo6AG90xtNeGtAS/A3Ho2no+jfDCbgDS7zkYRYGSBeHwkQdgBfOxA/OzWYpbsfBwmOuIhyCv+Fb57yU4jIdPcYCdQDOtMQEx+ayERNwWISuXC/G4ZjoPCh4GbtIZ0QhUQfgyH5Y4NRMPsbFgS0YutEGl2CWU95W4SfSmVAI1AE48RuUWjePMjyGA6UzQHIQHkO5dR4rMTbym4XTjToAa5o6dP03YHyMFsy6YwzWWOf1TXSSzoCSF3UAluyFOZYNYi2uxU7S6hvTFtdhrWWOv8EB0uoreVAHYMVgy7+I63ET2korb0073IINVvkuxUhp5ZWcqAOwYBS2WTSCrfgrOkir7kxH3I6tVk7gRl0YjCDqAAwpwvVW1f9V7+cD5NgLj1vZ4HGBDU5KYdQBGNEYj1lU/M9wsrTi3jkGcy0sMT0BfaBkoQ7AgNZ43bjKb8YVCX1UvSGusrji9FN0kVZcqYU6ADad8JFxdX8LvaXVDpQ98KqxTRZjzxA1tBmqJCm42kfZThfjHX9rcH4Kpr2KcKHx8uDSEN2idAOUDq72UQAAu2GRoeFnYA9ppUOjG940tM6K0M4LSjdA6eBqHwXA7vjKyOjbcE3KNsA2wJ8Mb0Aswb6haCbdAKWDq30U7IbFRiZflNJ9bwfhSyM7LQ9lICDdAKWDq31ST0d8amTwF2K808+V1oaXonwbwhuJ0g1QOrjaJ+W0MZr5r8SYCJ3ql6AIVxo9gPY1dg9YI+kGKB1c7ZNqmmOGganX4BRphSPBEKNVgU/RLlBtpBugdHC1T4opxlMGhl6MvtIKR4Z+RncLvoUmAeoi3QClg6t9UszfDcz8ATpLqxspOuNDA+s9GuB+CekGKB1c7ZNafm9g5GfQXFrdyNECzxpY8MbA9JBugNLB1T4pZYjBVNZ9KVvz59IA9xtU1JEBaSHdAKWDq31SSW+Daax/pnzevxBFuINtx9KA7keUboDSwdU+KaS1wcr/WGllI88NbFt+g44BpC/dAKWDq31SRzH+yzbu9dLKxgK+C5gawGBKugFKB1f7pI5r2Kb9m7SqseHPbJve6j1t6QYoHVztkzIOZx9puVNa1RhRhH8wrVqpT4mEjDqAWrRjb2C5X6f+jCjCPUzLrtIHxUJFHUAtuCvXz+jCnzENMIVp3ZdTcI1KdFAHsINRzAo6Ey2kVY0lzfEe08K/k1Y1RagD2M6ezCcvFuumX2t2YQ6xSkO6LERRB7CdBpjOqppr9MiPE/2YW6w+TuhNytFDHQAA4HJWtazQA7/OnMrcZH2ltKIpQR0AgN2Z3f9rpRVNBDcyhwF9pBVNBeoAAOb89BRd+vNCMV5g2fsNXQ0IAXUAOIdVHRfF8EnvqNKOecvy+dKKpoDUO4BWWMaoimU4SFrRRHEA633lErSXVjTxpN4B3Mr6W3SNtJqJ41qW3fW8RdCk3AHshVJGNXxbd/55pxjTWD2vftKKJpyUOwDO0d816CatZiLpztoT8F9pNRNOqh3AMToVJcqFLPufJK1mokmxAyhi3fo/TRejAqMIrzFKYJ4uvwZIih3A6YzKtxl7SauZaHpiM6MUhjqkwOljJDm42iexNMDnDPNdIa1m4rmaUQqfOkzCSjdA6eBqn8RyLsN48/RISuA0Yl3Beq51/NINUDq42iehFGMew3jHS6uZCgYzSmKRtSuWboDSwdU+CeVMhumellYyNTzPKA3bPoB0A5QOrvZJJEWYS2Z8q07/hUZvxsbgWZZxSzdA6eBqnzokY0HmBPQnv7kTX0irmRoW4G7ym4EYLK2mkhReJv3eBuwsrWSq6Mi4keFFq5il/wJLB1f71CEJPYB+OI78ZhxWSquZKlYx+gAnYoC0mkoSGE96vTVoK61k6miPdWS53GsRr/RfYOngap86xL8H0IYxn/w3rJFWM3WUYBz5zVloLa2mEncuIX3eer37R4R2jHmAi4xjlf4LLB1c7VOH+PcALiC/uBdrpZVMJasxkfzmQmkllXhzAOnxyrGHtJKppQfjadYfGcYp/RdYOrjapw5x7wH8kvziSXwlrWRqWczYfUn34JQAiffZ+Eb4Dh2Ibw7CB9JqppiDMYP4ogS7oMwgxoRuZmVDtVjKPvFu8XU4hezwzJFWMfXMIsvoRGkVE0WqhgDDyC/+Ja1i6rmP/OJMaRWVeNIM6wlvtxFtpJVMPTuRdwStQRNpJRNEinoAx6EV8cVjWCetZOpZiyeJL3bSexrkiLMD+An5Bb0OrQTPBPKL06VVVOJHMb4nOjtLY+3ekkMx+VjbSi0pb6RmCHAIOhNfPI5KaSUVAJWYTHzR0Xg7kOKJ+DqAk8kvnpBWUdnO4+QX+liIYsj7RFfn62RteYg1RfiaKK13pFVMDCkZAuyEQcQXT6V+z1h0yOA54ouD9cYGGeLqAI4mn5Z4SVpFpRZUaTTAkdIqppO4OoBjiN83401pFZVaTEMp8cWPpVVMJ3F1AIcTv9MVTgmTzXiL+OIwaRXTSTwdQAv0I76wu3FWCQ5qEDAIzaVVTCPxdAAHkQ9LTZVWUakDVSKNsL+0imkkng7gYOL3EiyQVlGpw3zyXIbOAggQTwdwIPH7DF0CjByVeJf4Yj9pFb0gfSWYIfF0ANSDEtOlFVRyQDmAfaUVTCNxdACtsTvxhTqAKELt9tsLLaRVTB9xdAD9iU2+lfhYWkUlBzOJDmwx+kqrmD7i6ACoruKX2CStopKDjeT9zDoICJ04OoA+xO9zpRVU8jCP+J1+5F3xTBwdQE/id70JOKpQrnkvaQXTRxwdAFVNtAcQVageQHdpBdNH/BxAQ7KafC6topKHT4nfe+gdDmETPwfQDY0K/l6Jr6VVVPKwhFgHaI6dpVVMG/FzAF2J35frOcDIshmriC+6S6uYNuLnAKirQJdIK6gUYDHxe3dpBdNG/BxAF+J3qoopkiwhfqfcu+KZ+DkAqooslVZQKQA1P9NeWsG0ET8H0In4/QdpBZUCUKWjDiBk4ucAqNtjqWkmRRLKAXSQVjBtUDfrRI/WxO+rvaTSFkfgIPRGL3RAC7TAapRgNZbhPczAx7rOYE0J8XvyewDUTge9yYLgY+LCBOq2IIoOuBQzUF4gha14AaejsbQhYsmhROnNllbQGdcLPaTlI8+XRAZ7OcTdCxOwlXkzyyr8FR2ljRE7+hBWXSStoDPSDTjxDmAFkUFqo1A+OuA+VBhez7QWv9eegBHdCIvGfxendANOvANYTWTQbjPpcJQYNv7q8AVOlTZJjOhEWHO5tILOSDfgxDuAjUQG2xjH2AzjLRt/dZhCXlKmVNGWsKSfKVxJpBtw4h1AKZFB0+clOpHTipywEVcQh5QUAGhO2DH+dzlJN+DEOwBqnE49GppNdyzy0Pyrwmc4Q4+zEjQgbFguraAz0g048Q7AZwY74nNvzb8qzMNQdQIFSXoFlW7ASbevxwy28NL5rx9m4GeG/ZA0kfQKKt2Ak25fjxm8P5DmXxWW4Xrd1pqTpFdQ6QacdPt6y+DwAJt/VdiM+3CM9gXqkPQKKt2ADeXjN16lTMDLUXt8HtJf6BJMxoOYnoCq7Qc/5RddXPMXsnz8zO2nAt2HX4aq9XeYitcwFctCTTWKqAOIlHz8zO2jAvXCp0Jd8wV4G7MxB3OxXiR9edQBREo+fseBfXCV2Mi8N3oDADJYjM/wLb7FN1iGH7ABpdiCTdgmbRolXcTP37r/BemAZcwjPB9gMqZiGVahLXrjSAzf3nyTRCnWYR3WYQ2+wBzMxnxsDjQ97QFEWz7yuM8i/4Y1h/8JTsphvGFYGvjqgWwox1zcggMDqyi6ChBt+cjjnsEZjGbwZN636lvirygTb6bBh2X4J/aLZPlFG+kGnHT7OmewbcHbfqqbf+G7EvfFdPEGGk6YhiGe741MegWVbsBJt69zBn9KxjA/71//GopwAX4Qb57hhAU4M0LlF3WkG3DS7eucwVvIGE5katIOfyZvJ0hKmIb+ESm/qCPdgJNuX+cMTibk3zfSphPuwBbx5hlGKMM4tIxA+UUd6QacdPs6Z3AeIf8HY412w3hsE2+gYYTPsI94+UUd6QacdPs6Z/B7Qn6QlVa74kYsF2+gwYdNGClcflFHugEn3b7OGdxAyFNPj+WnCc7DB+JNNPhwj9M+yqRXUOkGbCgfv31BrjudKokvGqDSSb+DMAKnJ/zFgMk423rTctJ3qknv5NPDQAHLc2iAQzAUwxLsBl7HT7HRSlIdQKTk42duaQPzaYLjcSKOTeD5AQB4Cydii4WcOoBIycfP3NIGNqcrjsWxOBa7BmkWAZ7AmRZjdnUAkZKPn7mlDWxPW/TDIAzCIPROyEVhN+NPxjLqACIlHz9zSxvYB83QA13QBd3QBV3QGQ3QGk3QHC1i99LgCEwylIiC/YNEun6qAyj4a1vy8an4WcSNxmiBjuiBvXEwjrZ4WbEcG7AJ67EEX+ErfISPiNd91AFESj5+5rYzUBMcisE4DvuRne/4WcQfRTgQ52EY2jnEUY75eBnP4b08y6nqAKItH3nMN0r0xTjyTeHkbERxpyUux3fO24WW43bsnSP2pNs/ZhuB4odJBotxJt4yrLgKUHXtiY/zDW9hSJ2/OUm3v3QDTrp9DTJ4ImZZVFmlmkH4woMLyOBjnFYr1qTbX7oBJ92+zAzuh9ctq6tSQxs858UFZDAV/bbHmXT7SzfgpNuXkcFGuNHh1j6lNg1xnycXsA1j0QTJr6DSDTjp9iUzuA8+cqqoSjZF3lxABnOwT+LtL92ADeXjtyhAmWArmjjFHz+LBE1DPI1TPcVViqbEF3G3v/QyXur3AbgSP4sETyvMRK+Q0oq7/WPmAPxe+awkkw04B+XSSihBoA5A4TATd0qroARB/DpcOgSQoRUWonMI6cTd/joEUBLJBtwurYLin/j5W+0BSNES36Bt4KnE3f7aA1ASykY8Kq2C4ht1AL7oj3GYj43YiPm4w8MDGlHUz/TyDwl8bVpK6kal2ONSeBV4NpACboK7UZEVSznuitDtPr70K8JKwnqTME24gUk7gLjLRx7bgtuIu9AzEAM1yXPwaGpEXIBP/R4jrHcdgL1xJ0rVAcRUPvLYFdsz6BKYgf6ZN65orJ371O8ywnoPbv+uJ15WBxBL+chjXmTfY2iABupfp3NdO5TvOAQrh1/9Tias926tb0/HKnUAUZdP/iTgbAzCEwHGf0EBGzbA+dLZ96zfIuL39rX++0kchE+ls68kDTN//SpaG8qb8knB2OZJm8uzfh0I662o830rTNEeQKzkI49JYT2FhoEbqPBrw+ulzeVZvyaE9eo/FtYIL6kDiK58kocAs3BeCGfYMg6/hoFf/bYSv9c/7V+GoZglbQQlH8l1AMtwKvFEhR+WFvz1G2kzREC/DTgV30qbQclNUh1ABufhu1BSerXgr69IGyIS+n2HC6XNoCQF3kjtAWt5U/ZBed64ytFX2lze9bO13yM6BxAL+cjDKaSSAm/c+TfQXXnjGidtrAD0s7XfzihRBxAD+cjDKaQrQzVQY7yWM6ZX0UjaWAHoZ2+/q9QBxEA+8tBFtAUdQjZQY9xZp6NdjnERaf6+9bO3X2usVQcQefnIQxfR/SIG6ofbMQ8bsAHzcFsExv5B6ediv3+pA4iafPzuX6FN8OOsHemm8vGzSLi42O9QTCfjd7V/zG7kkZaPX3WnMrge7VDhIB8/i4SLi/2K8R06OcgHrV8K5ZO3D+Cdgs1fkaQSb0iroGSTPAfwprQCSgE+kFZAySZ5DuAjaQWUAsyXVkDJJnkOYIm0AkoBvpZWQMkmeQ7gB2kFlAKslFZAySZ5DiCME4CKLVo6ESN+DmAb8bsu48UZqnQVz8TPAWwkfm8uraBSgBbE7xukFUwb8XMAVBXpSPxO7RJoIJ3BSENZh7qBiSoddQAhEz8HQPUAehC/lxG/N4SSH+oAEWVdqnTUAYRM/BzAMuJ36qZ7qopG5wxfFHF1AFTpUKWreCZ+DoC6mf5A4neqk6o9gEJQDoCaxDuE+H2hdAbTRvwcAFVFjibyRFXRJtIZjDSUdQr3ABrgSEKecu+KZ+LnABYQv3fGQQV/30LIt4aSH8o6ha17MDkJSJWu4pn4OYAPUEl8cW7BX9cR0q2kMxhpKAdQ2LrDCekKfCidwbQRPwewBnOJL85BywK/Ug6gjXQGI42LA2iNYYT0bKyVzmDaiJ8DoA/8tsElBX5dS0jrEKAQLg7gUrJ39YZ09tJHHB3Aa+QXvy/wd5zqAVCj1HRDWSe/ddvhMjJ2umQVz8TRAbyCEuKLjrgx729rCVnqyqp005n4fW3eX27Oejo8F6swVTp76SOODmAbniS/+TUOz/PLckJSHUAhKOvks+7RGEXG/QS5jUjxThwdAPAI+UUDPJTnL873hKQ6gEJQPYDc1u2ISYya9h/pzKWReDqAtzGP/KYbnkLjHP8/5QC6SGcu0lDWyfUgaxM8ja5kzHMYV4YrynbOYz3i8GSOrasDCBndjV6I5YT1+teTaIxnWGV1ticNY/YwR+TkY0IjfM2qVpPRrI5kR0KiEk2lMxdZWqCSsF7dR9ma41lWOX3l7QyGdAOKu3xsuJhVsTJ4F7tkyRVhIyHRRzprkaUfYbm6h3m74ANmKV3gTUfpBhR3+djQAHOYlWsFTs6SnEt8f7KlRslnCGG52Vlfn4pVzBL62OM1LNINKGby8ZwEBIAKjGZ+uTNewCPYdce/vyS+31s6a5GFssxXO/6rKx7DlIKvNNeQwWh9zUmK+DoA4A2DhaNh+AK3bZ/DphwAdWlFeqEsU2XZrvgbFuEMdqwP423pjCnxpC2+YXYyq0IZnsYZuIL46j3pbEWWDwnL/R5n4BmUG5XJEuzkVceYdcEjJx8zjjSsbpywTq8Wz0kxOX1qHsrz7ti0RboBxUw+zkMAAHgTN3mPszX2lM5WJOlFXuptzg3a/VfcKMKD3v8unSWdqUjC23xlEh4NoK8Vs7/A0vJx7wEAGZyPaZ7jHCSdqUji2ypvYwSjQiuBEn8HAGzD0Dor0K7sL52lSOLXKrNwGrZKZ0lJCm3xnseu6Qa9HLwejbHJo4VneJ77ryFmXfDIyceW1njTYwWlXhdIH4d6tO60AK9elW5AMZNPwhCgivU4Hvd4i8334lT8oW705/NvnKBPgCnBMApbvfyNelY6I5HjRS923cq4GciNmP0Fjpx87Nkf8zxU1NX6SnAWjbDeg1XnhrC+It2A4i6fABrhSg/9AOoVu3RxhLM9yzAmlGfXpBtQ3OUTQn+84Fhhb5DOQqS42dGaU0I7YiXdgOIunyCOwLsOVfZ9afUjxUwHS04PdUpVugHFXT5h/BiPWA4HKvSJkB10QoWVDbfiYRwasq7SDSju8gmkM67AdIsqfL604pFhlIX7fAe/F7liXboBxV0+sXTGKDyEhQaV+AVplSPDywZWW4iHMErwdQXpBhQz+fSdfG+H/dEdu6EbjkD3gl9uRSfyJcE00BYrclyvXpsleAvfYCmWYCZWC2tLNRGqxqddPkWcQ3rLc6RVjAQjYmWnmP0Fjpx8itgJ2whjPS+tYiR4hbDSNrSVVrEW0g0o7vKpYiphrDJ9KRC7kJeuvSKtYhbSDShm8sk5DGQDteO/Ic6UVlGcs8lN0XpuQokpu5NPXX0oraI4swgLVTAe/gyTmP0Fjpx8yphOGmw/aRVFOYC0z5vSKtZBugHFTD7dQwDOm/QXSqsoykXkF/zHWRQlcnREGeExNwR4e03UaUUeAt7GfP4rPGL2F1haPu09gFWYSnzREsOcUqBOIjR2ir0JEXupU+zDSef3Kn5wSkERJu0OAHiQ/GK00+4p6vKr1k7at3FMvRDFuJT8hraeEmnUAUwmN6/2xQkO8W8kfu/hpP0exO8uDuBU9Ca+KMEzTtor4qgDKMXD5DeXO8RPdZEHOmk/wDH1QlxGfjHJcYihiKMOALiX/GIw9rWOfSHx+zFOuh/rmHp+9sNR5Df3OemuRAB1AMBc8vafIlxjHfsC4vdT0dI67hY4ifjic+u4/0h+8S4+sY5diQjqAADgH+QXQ63vtJtP/N7S4SnSc0jnYdtE++E08pu7rPVWlEjRCN+S66eTLOPuSG43XkScts9HE3xFxFyB9pZaP0baY5ml1kETs3X4yMmnlGtJw5Whl2Xcc8m4r7SK9xoy3o8tNe7HuEAt3xCBknMNFCqvDsCCjthCmu5xy7hvI2Mutbg68zDGZadjLTV+jqHxznlk1QHEWz613EuarhIHWMU8iFGtl2M3ozi7YTkjVmqRMDecZ0DH55VWBxBv+dSyJ3nxRQZvWMY9n1Gx5xm4gG6sGOdYajuNjLkcPfNKqwOIt3yKeZRR/U6xivlyVtVezhwIHIYVrPhGW+l6GiPmhwrIqwOIt3yK2Zecr8/gC6v37VriB1blLsVVxOGgxriG+dDJSrSw0LQJ4+L0SuxTIAZ1APGWTzX05FcGf7CKmV5lqA5f4sI8TbclRpELfzXBbusSvbKQweSCMagDiJW83hJemx/hI9IiG9Ab3xvHvBMW5J03r89G/BevYzYWYy2AndADP8IxONngb/r36IP1xlp2xWfk1qJKDMS8Ar8H/Tcm6vfqx10+5dAbYDKWd+CMCPxvY+1wtpWOkxkxUweAtQcQb/mU05O8ISiDDIZYxFyEN0Nr/q9b+fmTGTFvw55ELOoA4i2feu5hVMKvrQ7wdENJKM1/tdUdAy2wmBE3fWpCHUC85VNPF2xkVMM7rOIewlhncA2VjGM8ufg7I+716EzGow4g3vIK/sSohhU42iruMYE3kJus9DqG5Zo4KyDqAOItr6ApqzO82Oo2vyLcF2jzeNBq9N8GXzPi/pK1B0IdQLzlFQBnsKoifZNQLhrh2cAaxzNoaKXTA6zYT2PFpQ4g3vIKgCK8waqM/2MVewPWRKN5eMDyhP6ZrNhfZcamDiDe8goAoBdKGZVxjeWdvkUY43k6sBI3WW7x2ANrGfGXog8zPukKrPLqALxwI6vhvW/9sMdPPC4KrsXpllo0wgxWCteyY5SuwCqvDsALTRnHYjLI4C/WKXRnDjSo8Dp2t9bhDlYKnxscgZKuwCqvDsATvKWxSpzhkMYQLHVq/N9juMPu7nNYaVQyLgivQboCq7w6AG/czWogm52eEG+DP2GVVeNfiWucHi4dgE2sdO40ilW6Aqu8OgBvtMSXrCbyBdo5pvM7xtWhtcMcjLY6719DByxhpbTIMB3pCqzy6gA88mPGRWEZZPCm1UUh2QzErZhF3MdbgVkYa3nXX20a43VWvipwhGHM0hVY5Y3k9XQwxe2MN/IA4AGM9JJeBxyOftgbvdAOO6ElgI1Yi9VYgM/xCd5CiYc0ivAQ88DwX4wvQJE+z67ybvJKHZrgY9bfygz+JK0qmxuYOZppscgZs7+AKq9Q7IX1rOZSifOlVWUxgrkJaQP5PHgupCuwyqsD8M5IVoPJoNx6Q054nMa68iSDDM61il+6Aqu8OoAAeJDZaLYYrZmHz2DWFucMMrjfMgXpCqzy6gACoAXmMBvOOhwkrWxeDsMGZi5mobllGtIVWOXVAQRCd+bd/hmsjagLOIQ5l5HBauxhnYp0BVZ5dQABcRxzT0AGa3GgtLL1GITVTO0rcJJDOtIVWOXVAQTG/zKbUAarcbC0slkcxjr0WxWuckpJugKrvDqAwCjCJHYz2ojjpdXdwTHssb/95F810hVY5dUBBEhjxtu51WErfi6tLgDgp9jC1vkt5y3N0hVY5dUBBEoHfMFuTmW4QFpdXMyeuchgIdo7pyddgVVeHUDA9DE6vnuz4O7rIow10HQlenlIU7oCq7w6gMA5wGBMncETaCqiZRM8bKDlegzykqp0BVZ5dQAhcAx7R10GGUzHLqFruCvztr+qsNXblKV0BVZ5dQChcJrB2DqDZSHvDNiP9dRHdSjHUG8pS1dglVcHEBK/JC7vyA5bcF6Impn0Tyq8aiZdgVVeHUBomLmADCZZ77Dn0xTjjHSqxCiv6UtXYJVXBxAi5xu6gE/QL1B9+hjeLViJX3nWQLoCq7w6gFC5yNAFrPd0dVguLmA9bV4TKnChdx2kK7DKqwMImbOxzajZZTAZHbxr0RHPGGpRjhEBWEO6Aqu8OoDQMdlsWxW+x8meNVhhqMEWDAnEFtIVWOXVAQhwrNHWoKowyVM/oCMeMU57PY4OyBLSFVjl1QGIsK/FI1+rPczAD8VK43S/87TrLxfSFVjl1QEIsTs+MW6KGbzosAO/D16xSHG+w2OiNNIVWOXVAYjRCi9ZNMhtGIfWxmm1wPVG232qw+vYKVAbSFdglVcHIEhjiyaZQQbfYjiK2akU4xf4zjIl86c+zJCuwCqvDkAUu2aZQQafMHfkD8Ysh1Sk86/y0ZZXHLFvmhlk8Cpxo/DBmOqYgnT+VT7a8oojbs0zgwzeyfO4yCGY4iF26fyrfLTlFUfcm2gGGbxUxwkcjZc9xSydf5WPtrziiJ9mmkEGszAcDVGMIUZXe0hXAOkKrPJG8vpauG/8NrElALp7jTHoEpd+317ljeTVAfgm6p0sdQAqXwv+2rOiKIlDHYCipBh1AH5pKK1AAjRUQkQdgF/aEb+XYn2g6W9AqaOGSqpQB+AX6oT/F+iNf6MyoNSfxz5YRHyjDkCphToAv1Bv663AclyEw/Gx95Rn43AMwTdY6aihkirUAfilP/H7CgDAuzgAv8Iqb6muwiXYH+8AAOkAKA2VVKEOwC+HEL8v3/6/lRiPHrjKw4zAZoxFT/wTFdv/TTmAg4UtFPedinFPvw7qAPxCOYDaI/RNGIs9MRZbrVMrw7+xF67Cujwp2GioKIole6KS8O+5Dvv2xENG7wxWhXI8jJ45YjuYkKtEj0Bt4O/UQjB74dOevhIg/0cYvyzvQ+E9MM7gavFtmITeeWJqhjJC+vpAbRD1BpD29JXAKCZf5J1dUL4bxmEzWYClmIQ9C8ZDPQ62JNCBX9QbQNrTVwLjp6Tx7yLj6IRrC9z2twz/i53JOP5B6nFKgFaIegNIe/pKQDTAfNL4g1kxNcJQvFpPdiaGoxFL/nhSj08D3BAc9QaQ9vSVgLiQNP0aZgOuYn9MwCZkkMEmTMD+BpKNsZbU5fzA7BD1BpD29JVA6IjvSdM/bBxrG/wav0YbYzn6qbDvAnietIqoN4C0p68EQDHrxr4gR97ZnMrQ5sWApgKj3gDSnr4SAP/LKLhFIW66KsIChkZXB5J21BtA2tNXvHMeaxvP6FB1Gs3QqBxnB5By1BtA2tNXPHMmufEmgwzWW4zkXWjFmAjMoBzneU856g0g7enXQc8CuHExHmYtqTVA11D16srUaiIuClUvRUkMrfCwgedegFahadYUsw00e9Lre8FR/wuY9vQVTxyFhYZFd39out1nqNkCHOkt7ag3gLSnr3hgbzxuVXgjQ9HuLCvdXsUAabMqHlAHEDCD8B+Lw7tVYRP6Ba7f3thoqV05/oNB0uZVHFEHEBhFGOz8Pm/QMwFmo/9c4R0MRQNpUyvWqAMIhCYYjk8cm1ZVeCRQPSd40fELjEZzaZMrVqgD8E5HXIllXhpWVRgZmKbDPGq5EmOwq7TpFWPUAXhlL4zbfibPX9gS0HRbL6z3rGkpJoUwa6H4RB2ANw7D49bTfYVDEDMB7qP/3KESr2KIdFEobNQBeKAYQzAjkOZUHfzPBPgZ/ecLs9jXkSiyqANwpBVGk3f7+QgjvWrtc/SfL3yP69FWungUAnUADuyC67E6hKaUgd+ZAP+j/3xhPcZhd+liUgqgDsCSQXiEda6PCu/hZOZWnE/QwovmzRm3EWaQwUaciOkecliGR3TDUGRRB2CMjw0+VaES49AY/A65n5kA7uh/BICGuB4VXvKqG4aiiToAI5phFD730iAy+BIn7IiX2yhHOudgODOlCTskjsMiTzn+DKPQTLoIlSzUAbDxucFnM67PevWHuyjnOhPAHf3Pz9rZ1wijscFTznXDULRQB8CiD8YbPMVFhbIcr/T1DWEmgD/671tPdg9s85b/zRiPPtJFqgBQB8AgiA0+uW78DX4mYCIzhRE5ZE/xbAHdMBQN1AEUILgNPk/kTC/YmQCug5mQU9ruRgMNcQ+ppRVGY0lgZt2a86GNIGcC7Eb/1bRDqXhV1CARUkkYG3x+kzNlbjM1PR3QjOlaco3+AeA34hVRg0xIHQMxyeN0V/7wYZ70g5kJmMiMdUQe+Q/FK6IGmZAi/G3w4YV98+jhfybAbfQP9BOvhhqkQkpohlH4zJvRtmA84wrwv+bRhbtYx70xkLvAOD/vrT5/IWUfxL+wWbyyavAfUoDfG3yqN7rsQ365Iu+BWZ8zAa6jf6AhviOl9wXQwfNNSBqiEBJOH4z3+JdrddZW15nk9/nXwUcwU7yfzOFEZkwj8sZAvx1cM5/RFKNCOx+pIYyQYPxv8HkmK/5Lye+fLKDdRGaaIwvm0XX0DwBPktLZKxrPildaDf5CIglqg8/NWanQa+e5dwNUwe26F9oT4Lb2b5uLW8QrrQZ/oV7TiTutMBpf4TkcHEDcn2b9azWeJ75vjGF5f9uCM7CBkWZTPJ5nJqBZ3l+y2YQzsDnvr+egCSH/LH4oYAVFiQxBb/AZWCe9IaTERwX1ddsTMJEpPaKgDvRMRt1zDT8S/6ulwV9IDMFv8Cmvd9a9Ib4npQpv6p3ITHtkPcmzmZITCqZP7wBYXu9h8aYB3Y2sQSIkgLA2+CzMkfZfSanbCupuOxPQj/k6wXziRR9a/1tzSPm6QESDfIg5/p7oosPTOdKn/4KuIK7PttkT0IKZ5/xr/1VwejD9c8g9I15tNfgKdYjTJGBHXIdv8ABRybmswkrii1yTX59gJiG1M04q+PtCXMrSrxfu3PHf/2Dm+dfEhN1J6EzE8CHm5cx1YVaQtlQUJ/w+0VX1+CXVsT07pyb0ObrJZG4mMvUcCQD4BfPrCWS6k8k4Lskpdw4h9TmaYDhzwzMn6JNkSi38bvCpvs2WntoamFMbzjp6RyJHJjMBvkb/QHuG5u1zSlLrAGVoguq5mUpP5aQ3DCloiGGMZStuyL7PfiDxdXne+26fIFMaTeaMf2Ogn9E/wNnJ+HgeyWaks6w5CbkfHva4OjMTw/RJsnTi9waf+i/aUN3ahXk1o/fSf8zIn9/HvEYwUvyIjOXkvLLUcOmsrK87e92foU+SpQ6/G3y+y1mBbiakns6rHec0HeeKr4neckiP/jmnGevvAKiBWgf4v3oSQTtwJaH43eCT/1VbqkrfVEDHW8l0b2fklDsTQAV69A8At5HxjC0gTbnL3BOfxRiCd72VZQWmBLLhW4kMx2Oa1+pyVIG0FhLyZxeQpXcDrGSNXLkzAYUCZ/QPNMJyMqZC8VD7ED8vIHsknvX0HFkGGUzD8QHWQEWMwR7P85ViEtEs6DWAwp34D0gdfsrKtftMAGf0D/yUjOf9gvLUlGkZccRoT6/LuDMwBEW+K6Aix2C8561y8J6qsl8DqOLXpB5PkzpUMdEpt5zRPwA8RcZ0cUF52mHuS+rQAVfiW2/lPBtD1QnEnyKcxpid5obPMCrrhb78UF3ahYQ8vRtgG7kboIoWDhto5jOfFeuArURMW8h5dmrINIylSVNciE+9lfdM/ESdQJwZiLe8VQaz56rt1wCqoV/W+R1TF+7pgLqBN/oHgNFkXI+ScZivA+TD74ahNx2fV1WEaItxnvb32cwOu6wBVHEyqddctjZ2MwG80T8AfEzGdRIZh906QH4GeFvtqcCkAjcxKRGkGMOx0kvhr8c4dLPQwO4cQG0aMG7MHcjWZ6Jxzrmjf6A/GdcyRt+JPg9gTmdcjxIv9aAEow36f4oohzL+InHCElyO1lYa2J4DyGYsqeEdbI24B36rg8mj4n8jYxvLiMV1HSAfrXCZpw1DM3GIlQZKiDTFX72sCX+IswrsW6Og1wA4U4l9SS1XojFbp/2N8r8/O95GWEHGtjer5NzXAfLREGcyFlbpUIFbLd2QEgr7YJaHQnY/JUZ1Zxcw43mf1PZnzJh2NWwAs9gDn9PIuGYwY6LWAc5ixpOPQZjkYVZoPn7kqIcSCMUYTS5GUYHe4MODmtB6ihnPJaTGz7DiGYivjW2xDAew4n6ajOlXzNxSMfHXAfLjY8PQNlyv8wFRozvedCzWlRiDXTxp474GUEUb8hWiMvIOHuB0yyq/BeeScbf3sAOgGt/rAPmtOtp5w9AM9PSkjeKBs7DBqTg/xYXMDT48XM4BZPMoqftlBeWLcJ3DinglriM2wowm46B3AFTjch7AlKa4wPHux/UY6lEfxZoGGOO06cNsgw8H13MAtTmJ1H9eQU0edPxLl8ETBc8CziLlT2TnNah1gPwc5rRhqBJjdCggTWs8Z12AFZiCgwLQyfUcQG2KsZTMR75JqV0Yk4ickH9CkH7S41uDJhLkOkB+BmA8tljb5kW9SkSS3vjMsuC2YhL2CkgrX2sAVYwh8zIup9wAi4m/fCHfhOAdpOQtRnkNeh0gH90wzvrN50V6vagUp2KtZeMfj64B6uVrDaCKXmR+fsjRNbad+MsXck0INmLstuxjlNenidh8rAPkoxPGWNpsA/4nQL2UPFxmNXrbgtsY8+Zu+FoDqIa+xyC7AhbhWm9HYWpC/QlBfzsAqrnJq+s0pzNusxoOVOK3AWum1OFKq0o8BXuEoBt1DoB3sLWGX5H5erbW1z4m/vKF7AlB+j2fiwxzGuY6QD66YpKVbcaEoJsCAChi7D6vHz7FCaFo538qy2Q3gK+Jv3yhZkJwZ/Ks3RbsZJjTAWQ+w9mIe5TVbYp3xeodrNjSCA8bF00JfhXago2fcwDZ/IfM4eUAgEHGG1w+xIeGEsu2nxP4Hfnlf4zz6XMB1Y0GuNjiHOEkh/MjCosmjMun6oYX0CVEDYM41noimcd5sJn4exzNLYYMVROC9N9Im8s1FxBxmg6fXOhkUdemGCzxKsY0w+uGBbKasZ3VL9QawBzWJdvZNGD8ZZ9oOPFXM6lnvluwknG/wFKLPldzzCFiNZ1AdeU84/cjXtXzgkHRgPH4ZHZ4MdDlvtzQU2OfYR/jWP9s/LeocNiCc7Li971smMHNxnnsTTb/4NcB6tOJcdwpOzyrA4EgKMZDRsVQyj6F5hdqM0sGGWzEeYax9vbaOL+t9YZhNebzB4VDb8Mcnsd6w8BsE5UvfkVe0Zod7terRP1zu1ERLBV644WexqoOkwzu3AHg8QWcWdgtZwo+VxCmG1ptHDPesNYB6rIfvjLK/10iWiYYaotIdngdnYT0pHfH1wSzocBFnprm4wXmIPztIRhlkDNO178mBHEegEN7vGhkgeuE9EwklxkYvgI3CK7HUmsA2cFkKEDvBqBDJa4lOqd+dhFuRht2vnhd/5oQ5jpANsW4wei6uUvFNE0YJxhc5FQqWEEA4BbjxsIfCjzi2CzrTvzlw31C8GFmjvhd/5oQ5HkAmv8x2CpcgVNEdU0IfbCObfLVOFJY22stmss81qWZwPFOjTLXxF8+XCcEeTsA9sY8i7j/KFzCR2INW9c16CWsbexpZXBvy7eReMNluMWLvJtxASPmYnxj3STzTfzlw2VCkHcHwLkWtzjx7BQ0fQ0OWn9uMBhS6lGMF9imns14sjMc+lldNnUfY4MQtckoX3jUYn9aM8Z1ZLkDvQOgOe6ziJfbUwqeLgbTls/qCQF7+NtfZqG9tLK1aIZ/W1RwelWgp8UEXSXGWFbBIlxp9cYCdQeA2ax/dTBdNg2WnTCTrfmN0srGlaHs6h6t5l/FSIupNHpVYLphjJscr64capyLd4gYTWf9eXYJnw5sN1bJfr1BqUVX9i7sORF9urEP5nr/SzfKKC7u3f6FML1a7MICcdnM+tttnQ6DjuzyXWP1vmSqKcZUdvUI+oYfe/wPBVob/EU2nfjLh8mE4OYCdwAkoeufTUf2OsZrujnYjMuZhl0c4eZfxS88DwW4tyHYTPzlgz8h+FDeOJLS9c9mF/bDo6OlVY0TfZnbLdahv7SqDPwOBY5jyNpP/OWDOyE4OKd0srr+2fRlDlVLY1FXI0Fj5oVMW3G0tKpMWuABiwaQe9mLsxvg8kByQffKvs7pduw2/HCWRaPBseTlaFXhY4O3nFPNWJY5KzFcWlEj/A0F6INRdwaSgzvJdHNd15HMrn82I5n5+rO0onFgIHPn/w3Sihrja4MQvRvghwAOzTbBD6RLrvtgZtw3/PDhnVYtj8Re1UhTxHzl97VYvsrma1XgHVLm5951P51M8+06Esmb9c9PMV5i5e4dXQ0oDK8ztRQdrVOg4g4aH2cFLiQlpnjX+3kyzfOzvo/qXv+gyr8j8wBVvAY3IdMa3zFMWIbDHNKQdgA+VgXo3QBl2MWrzp1QRjbemmMvUZ71D678D2ZNBi7X40H5+TurovzeKQ15B+BjKEDfj+hmpbpcwXBQ1US76x9k+f+BldPbQ8lnDBlA/pXJIIP/Oo6iouAAANdVgcHkt/O9ajufTO/Y7V9GfdY/yPIvwn8ZuS2Lxf4GATjTf2ucH/mIigNwWxUoZuzQ39+bpvuTaVXtAIjDrH+w5d+V9WL11BDzGxs4O9wy+IVzOtFxAG5Dgf8jv/O3G+AuMq0bEfWufzVBl/8FrFwfFWqeYwHnoOuLHhZRouQAALuhwN0A9iJ3A5R42g3QhHwlrxJ7AbjbOB8SG36CLv8ivMLI+Vuh5zvi0K/fZbDOy6HKqDkA81WBb7efuHub/PJ0L/oNJdN5EwDQ2vDgsMxe/+DLf3esZ+T+WPeEksR7DJNd7CWl6DkAs7MClTueOT+f/PZ5L9rROwB+uf3LEwxuLJLa6x9G+V/KyD91cUqqOJlhsLme9v5F0QEAwC+YR0ru3SHRipxv97EbYBdybWYjWu34+l5WHrYKbocJo/wbsqZ3bV5PTiicCyd8mSuqDmAw66/nt1kXbkwiv7/CWS96bfuBWl9zhwEnidk5nPI/lmGDd8VsEDE4990/5y21aDqANljKsEIlTsySOoaU+MRZM/pv2TFZ35/IcmTfiO2HC6v8OfdZH+OeTBJ4jjTUNo8PLETTAUxg/d28p45UEePJSrdbAQ8k419S7w4A3jDgXit93Amr/PswhnSThWwQKbozjv+O85heFB2A/V/NG0mpfzhp9g8y/vqXXrdhPWBStzcTFuGVP717oszTrY2xhr7+Y4vXJz+i5wB4DSb3uLkHYzdAU2vNGjPuANgzhxxvPmMZ2gpYO7zy34Vxsd1N7snEmyZYSRrJ7/020XMAdt3/at4iJc+w1uxMMu438khGdxgQZvn/k0xtZQBXt8SKX5Am2obdvaYYNQfAnf3P99fyl6TsC9a60Udb8m3Nju5qQJjl3w1byfR4LzYnlg9JA433nGK0HIBL97+KluTFG+XoaqXbruTsTO0dAHWJ6jAg3PKne3epXgwcSJqnDHt4TjNaDoB3eu6+gnHQuwj/YKWb2Q4A27yFPQwIt/x7Mqa4+4VsgQhBP/75hPc0o+QAjnPs/ldB7wb43Eq7T8l4C1/LHs1hQNjl/wyZYoofD11EGmeweyJ1iI4DcO/+V1GEL8k4DjTW7iAyzsXk4yNRHAaEXf70MbcFIeY+UhxAmuaLAN5Wj44D4M3+c7rIN5Cx3G2sHT2DfT0jlugNA8Iu/yIsJNMcGGL+I8RfSMP8vwBSjYoD4HX/eX8du5NxrTV8KbAp+eBV7h0AdWntqZfjj/DL/0oyzVtCy32EKMJiwiylDpd/5ycaDsBX97+aN8iYzjTS7ywyvmnMmKI2DAi//DuQG4K+TONrAfQY8+FA0o2GA/Ax+18b+j2FF430e5GMb6RYXt2QKP//kKn6u78xNtxKGuUngaQbBQdwEqtJLDU4McfZDcC/TrULuXi1AS3ZsdmddAwKifI/jUx1TCh5jxSzCJOsc9jDXgh5B+C7+1/F/WR8V7LjuoqMa6KRblEaBkiUf1OsI1KdGULOI0V78rX5Se6J5ETeAUxkNX/TmfGjyRgXsEea9A6AIw21i84wQKb8HyFSrUD7EPIeIeiLJocElLK0A/A5+1+bInxBxnowK6ZDyHgWG09aBdPrsUGm/H9GpvuzwHMuQr51fOoulHV4RVr1QGiDCazG8yI2GMacwYPkNyNZMY0gv7jfuKFsYpbnvxP6ct5LZHmm7JbgBYQ/fCywlGV7ALzNPxlkMNv4CVT6boA1jHmVplhDxFKJHoaaHYbZ7HwHPQyQKv/JRLqfBZzvSLEbWQwXBpa2pAPgdf9rGtokdDKKfxoZ51lkHMPIOF430qk9xpHzPdkh2GGAVPlfQqbs+uhdjBhBGoOzy8wOOQewE2s5LDusxW/R0KNdXyLjeImMgx4iVNMQv2W9lZcdTJY/zZEq/95kyucGmOuIQT0i9XWAacs5gInGTaEq8AcDLcg3aSqIW+joHQAb2TsADsAHljkOchggV/6U+/97gGlHjHdSWAG6kGvB+UMlHmAOBug5hqsLyl9Nyk9g6dEJDxgNd7LDGq+3QGYj5wConRqpeS+wiGwKZweYulwF6IxJDo1iLUYzBgNHkvEU3g3wGSl/BKlDMYaTl4kWcnamMx9myJX/cCLldWk5EbAXWQjdA0xdrgIAwBGGD4FmB3owwNkNcEhe6UNJ2a/ISmrf8efl0BW58pet9xHi54QZ1gTqCWUdANAQoy0mxvh/H68j4/hXXtnxpOy1BdM2n/GvHXh9HFfkyr+ILPfTAs99JKAeszBbZjJF2gEAwQ4Gdieb4No87/JydgDkv6Ex2h3/GiTLn7rC/bpQLCDOs4QZbgs09Sg4AAA4HHOsm0vhrvLrpPSwnHJnk3JT86YZ9Y5/DZLlP45I+6nQrCAKNUoN9unoqDgAoCF+5zQYyLcyQE02ZfByTrmXSbnhOeXcZvzNdjq4I1n+1K0NC0O0gxhFKCXMsE+g6UfHAQBAZzzotFyWq/FwdgPUfymgKzl0WI8W9aQa4rfkwMHGiQWHZPkPINLekoZ1gM5kpQjmHoBqouUAgCAGA/Th22vqyfyRlKl/QNmt4z8nxI5/DZLl34x09kFcghcx9idMsCzg9KPnAPyvDBxByiys97eG3gFweNb3cZjxz4Vs+S8nUv+RiE1ChboeKeinkqLoAAC/KwOc3QCHZqX+Y/L72jsA4jLjnwvZ8n+fSD2oWzDEqH8fAPUiepDnAKLMcgzHkZhrKd0Gd2Dmji415z6lEQX+lYuJOxrHAXgPD1jfYDMXR2A4VnixWfxYQvxOtY4EMIbwgUFfjxjVHkAVDTHKy99WejfAulq7AZqx7wCIa8e/BtnyH0ukfrOwdULgIcIEFwecfrQdAOCrkU0lv6w5cXEO+e1riHfHvwbZ8qduBXjAPYloUX9Z42UcL62UokSUl0J+KjVw6s8BNLeIRVHSQeJahzoAReFj9oJjDKjvABKXRUXxRuL+PKoDUBQ+iWsdOgRQFD6Jax3aA1AUPolrHeoAFIVP4noA9fcBRGGrjaJElYQdCC52j0JRlLiiDkBRUow6AEVJMeoAFCXFqANQlBSjDkBRUow6AEVRFEVRFEVRFEVRFEVRFEVRFEVRFEVRFEVJAP8fI72HhwFdWY8AAAAldEVYdGRhdGU6Y3JlYXRlADIwMjAtMDUtMDdUMTI6Mjc6MDgrMDA6MDC746vfAAAAJXRFWHRkYXRlOm1vZGlmeQAyMDIwLTA1LTA3VDEyOjI3OjA4KzAwOjAwyr4TYwAAABl0RVh0U29mdHdhcmUAd3d3Lmlua3NjYXBlLm9yZ5vuPBoAAAAASUVORK5CYII=;" parent="1" vertex="1">
          <mxGeometry x="68" y="190" width="69" height="69" as="geometry" />
        </mxCell>
        <mxCell id="WfICn3c8xEElV-hs6Pjb-92" style="edgeStyle=orthogonalEdgeStyle;rounded=0;orthogonalLoop=1;jettySize=auto;html=1;exitX=1;exitY=0.5;exitDx=0;exitDy=0;entryX=0;entryY=0.5;entryDx=0;entryDy=0;fontColor=#6600CC;" parent="1" source="WfICn3c8xEElV-hs6Pjb-33" target="WfICn3c8xEElV-hs6Pjb-86" edge="1">
          <mxGeometry relative="1" as="geometry" />
        </mxCell>
        <mxCell id="WfICn3c8xEElV-hs6Pjb-33" value="" style="rounded=1;whiteSpace=wrap;html=1;fillColor=none;fontColor=#6600CC;strokeWidth=2;" parent="1" vertex="1">
          <mxGeometry x="272" y="340.7" width="364" height="136.3" as="geometry" />
        </mxCell>
        <mxCell id="WfICn3c8xEElV-hs6Pjb-34" value="" style="rounded=1;whiteSpace=wrap;html=1;strokeWidth=2;fillColor=none;fontColor=#6600CC;" parent="1" vertex="1">
          <mxGeometry x="284" y="368" width="120" height="60" as="geometry" />
        </mxCell>
        <mxCell id="WfICn3c8xEElV-hs6Pjb-35" value="" style="rounded=1;whiteSpace=wrap;html=1;strokeWidth=2;fillColor=none;fontColor=#6600CC;" parent="1" vertex="1">
          <mxGeometry x="429" y="380" width="75" height="36" as="geometry" />
        </mxCell>
        <mxCell id="WfICn3c8xEElV-hs6Pjb-36" value="" style="rounded=1;whiteSpace=wrap;html=1;strokeWidth=2;fillColor=none;fontColor=#6600CC;" parent="1" vertex="1">
          <mxGeometry x="519" y="380" width="75" height="37" as="geometry" />
        </mxCell>
        <mxCell id="WfICn3c8xEElV-hs6Pjb-37" value="" style="rounded=1;whiteSpace=wrap;html=1;strokeWidth=2;fillColor=none;fontColor=#6600CC;dashed=1;dashPattern=1 1;" parent="1" vertex="1">
          <mxGeometry x="418" y="360" width="188" height="72" as="geometry" />
        </mxCell>
        <mxCell id="WfICn3c8xEElV-hs6Pjb-38" value="&lt;b&gt;Kernels&lt;/b&gt;" style="text;html=1;align=center;verticalAlign=middle;resizable=0;points=[];autosize=1;fontColor=#6600CC;" parent="1" vertex="1">
          <mxGeometry x="480" y="360" width="54" height="18" as="geometry" />
        </mxCell>
        <mxCell id="WfICn3c8xEElV-hs6Pjb-39" value="&lt;b&gt;&lt;font color=&quot;#000000&quot;&gt;Python&lt;/font&gt;&lt;/b&gt;" style="text;html=1;align=center;verticalAlign=middle;resizable=0;points=[];autosize=1;fontColor=#6600CC;" parent="1" vertex="1">
          <mxGeometry x="441" y="387" width="51" height="18" as="geometry" />
        </mxCell>
        <mxCell id="WfICn3c8xEElV-hs6Pjb-40" value="&lt;b&gt;&lt;font color=&quot;#000000&quot;&gt;Spark&lt;/font&gt;&lt;/b&gt;" style="text;html=1;align=center;verticalAlign=middle;resizable=0;points=[];autosize=1;fontColor=#6600CC;" parent="1" vertex="1">
          <mxGeometry x="534" y="387" width="43" height="18" as="geometry" />
        </mxCell>
        <mxCell id="WfICn3c8xEElV-hs6Pjb-41" value="&lt;font color=&quot;#000000&quot;&gt;Jupyter Server&lt;/font&gt;" style="text;html=1;align=center;verticalAlign=middle;resizable=0;points=[];autosize=1;fontColor=#6600CC;" parent="1" vertex="1">
          <mxGeometry x="301" y="408" width="88" height="18" as="geometry" />
        </mxCell>
        <mxCell id="WfICn3c8xEElV-hs6Pjb-42" value="" style="shape=image;verticalLabelPosition=bottom;labelBackgroundColor=#ffffff;verticalAlign=top;aspect=fixed;imageAspect=0;image=data:image/png,iVBORw0KGgoAAAANSUhEUgAAAVYAAACTCAMAAADiI8ECAAAAzFBMVEX////kbi52dHQxOUCZmZmWlpb8/Pz5+fn29vb09PSTk5MtNTzl5eXkbCrx8fEhKzS7u7umqava2trr6+sWIiwoMTlRV13jZRjQ0NBgZWrKysrm5ubjaCATICobJi/W1tZ1eXywsLBta2ujo6PLy8viYg23t7cJGiX76+P65Nruqov88exwdXl+fHzldDb1zr3xuJ/snnrngEz4285CSU/pilz208PtpILrlm/zxbHng1Hme0OEiItnbHEAABM4QEfvspbxvaYADh3qkWi8aB50AAASE0lEQVR4nO2dDVuiShTHK2FA5E1QMSAJUUptszJ7tVu7ff/vdOcAwoBvqIBs6/+5dx8NGOHHmTNnzsDMyclPFWvpcls99Fn8MBlU19Ov3qHP5CdJ7p4F6tLo0CfzY+SGVDHXX4c+m58ihaCKuTqHPp8fol9nMXX5Q5/Qj5DVjWM9ow59Rj9C9STWM+bQp/QTxCWpdo/hawZaxHp0rhnoaK25yD761jykJLH+e5GAyOZQaDJuVXL4jRKLrZ91u7/0zMvlY+ba/ceMVT3zLr/LbXZ9o+vx3fB++n4qnOL/Hr7vh7+frkcrd5cJrt1f/1auBc3rapdeu9/1+Pnttq+ZpimEwl807XY6fFqBVg+5drk83EyJRSTvVsaVzPj+VNMwz9MlwnQx2+HTMmtUqTM/35q9iym5ovCy6y7dAY1fAOkyogRbUxPuJ0uOFi3Z1f+9fgCaRf5vWepuNLzVNiCNyL7fZeNAEUIMiGWrIpaKZRg8SInEG/jPuYQwWYiwVnth4/V9f5OdJsgOV7dg6+RzxBg9jjGpvgzQnKxltdu9nq7LnnTMWETlahKjzlDXSmwavPTN9Ex9mdrzdbofRp5NsoCy6tHE/7IghkGBNhTAsBg6r7R7smzbtqv3+OpOCPKQGmJNDIuM7s2toXpgheFaHkCTndOsAkXguNc14NsjKpZs1+vYj5fEaoMoqHsWy4Qww+0tNRB2Bb8Xf8ar5mwozySzvhSR123HkctB1ppBDESJ5N/Gt7tC9aQ9DOYlzau6z5LZXLf3lKi4jqOXIqvDt9sxqOg+Zeu/2mK1L2zxTGCg+1fzrSTKlFPCBMTgdC9TnRvsCOVS09OIkanFsObAet3XVH0Jp8u6B0VJKRvX52yogiNY0nIVJoMrU4cZTbVsoIL6zwe8Ep0rTxQ7esvArUbSXg53KSyX7N4cTKPbjQ5AiGnT3ub0YNeCqLI8pnh9upoTZFc1TTNP3x8e3t6m07e3h4fbU7OP/7QiY+hzfTtUbI6o9oF+OaEVtgoJ1b75cD+8G0+ur0ejkBMaja6vJ693w5cHrb8qHWtOD8TV4MqRj1xGVRCwfU7vnkab0h7XT19TSLouFnEoP+BSpejDoockEozp9uU1ZUIKNPj9fbuY8dbu8zvp1eK5cviAFzPBtP/+Ndi6bz2aDG+TOVrtLo/zXa+qU47uwJcWY2q+/97CTOMafCVstj/O8kzTiHGoUmRbxn0CqobtdL/iBvGxmv7Ot2g3sQ5Vige+RlFbI/SnS0dRtxTz+t6Pynzbv8AtpJaE6sl0TsA0X/Y01EiTaWix2jCrQlNIoZzDjxwipsrOHatpph2JSqfJyxxsv7B0FiNT8oFDK8R6A5uDflD9XzL3gZM33xUIt1mXvEJ8nTpoLgBVRcMwVLXK+C5A0N4yq/6knvzxGxguyF+M7tji5t3y+vWqavC8oYoMVJex5sVUeWVH0RA8gWAWEA0odedQpsqI3lMMavjAAoJOqzbN8aonYLBm7p0t1XXkg5gqRgqP2ahV0qffaf6IXp6CMcd+Lj4mlCg79gGSKyHSRPcDmbg9yb2dfjUFIc+cC9ur24WPtiLRe3TJEJdEHnea+bDbg1NbaWAK+Zkr07br7WKjKiQalmUpvLi8k8wUNTIyetO+8ymZbdt2r9AUAKsqVtvi1dW9jtfCxvGYaS6pAbFn2+0ie1Uib7XbllFdWzveCxwdfcu+CyvqrmsVZqmI5a1ez1KWOdOYJjl7AFRliTZymq0TR4bsykpRPhWJSlvvKXyamjHO+aR4juOih+dHaSKOer1upzkrVpGLe+4SGZau64paioEcwErR8naHcDSdYhhKbMtyu6Dgn+Xbut7mD9crXtAOWGmK2oSV4XVZV4pxqaLSk3UrVdXfQcpujzTlgVUtbm4tXPUx07yqvnj52LjZ6cjMsXoVshBDZVQLXvfIseorV7Xm5U5HZosVXymOb4owVGS0gWm+T8cpjcrhsUKAg8PwIgwVmMp52qmvEmCt8rgLnlfDQQqpbdfVrSKaff7AWBncB1cKCXBES7blOFNITwdVBOGPRrSFJb6K+LP3oe1cXs5cldyHJ2sYw/t7qryhdyrNDxW+Ez+o6hTH2bFsfLAD0mkuKDfEWlXaKZ1ihLUqQmmMynuvCaY6eC/hDobtLgTD5x3pT/DgkfFHkh6jLfqVJLWCz7ML6Qof6dY6UrPZlDo3QTFGR5KuyLeJqQup8+EV22xWKpVaU5Kki/C9WOVDggKkzmd0jFiRLuiTE7nZkS6C5GeAVbVp3N3iiCGRquM4hBm38dfgxgdYDZeiccfAbsO9KoIpr9uubiz+0nmz0gjO27io1FrRFmxt4VeuWbmooo9GrdZs1jCuZjO4FTfNSvOcKK5VqzQgWD2HvQJJ9WAjdYH3BrCVWuNmfiqoVWtyJ/ULfIAUw6pzwAqLC0lW8QbiMSmdo+YPTvpY3eAQmrOLeFjd0G1bVpa6bnz9nc1Y61KlYXxIzcY5NzvHcCq1AEGvgWlEwxY8LuIRnELrz1UD8F9h/RdMDTLDzrYzc3vurFOrSPOQFrDS+Lhmp/EnOBEPa4+jMSSOA67zXkUSKx3HauNDKIcCtrSTt61WLXtJ5Z8rNdbajSR9eI6ueilhrp/+eT9iQtGMKo5UkeYTYiSbrDr+3vJPQ23hOhLwAazUeVM618M8D8YKdGz4NYXCkOZOdy1WR+ZomRfZE9HFx9O5PvyHeLlu68bqHVJjxdWXOyG+BjAB+Gd4zGctst1EgKVKgSF7X8Dg/fuCsVYeaxJJgSdNlHWoMC5Yb600rQQDwxYugMtvlKratuu2tTZu2wLrR7TtozlnBIAa84dtFeKQJNZZsyJFD+VSUqXjcwOskYl7AqxRhKXAt+B6lmNFDANYCZAyTdH1k3zEy05d3xSfpMd6Qdi8eoFh+i+FYFzNuZ/ELVsnwhHDiq5ibRs4U3+jh7US84Qe1rDNQUDMdx5LsbKiKAJWmohIGCryHJmKUWzHtja3h+l9a4s8DLNo+iZkgSH7Vw2EpBBQHCsuTSIjsbBAOKg5i50TH6dnh3V9CVZFFKssAicQe5sCm2sOD6yzvbrjpkqCp8YqxWZlwW3T3Eah0fKvFfsAAlAcKw0+IJhmAWZa+KxUPr2b4d2L+EQ6iV4WIPLrdwwrQh5W/yLBCZCtMvYcdLzQ/SXKOGpOWQXSY401rXK00Q0/Yn/QiPxbHOsHeNCLUF705XkVwNqJG9ZmrN7cIGyiySJ7eyKEBukIpJSBofZSR8PpscaagHa0kcFeoONd9meNPD6OFTxoLS7Ju/PbY0Uwd1CVZRbiVqIIkcoWq+E6TnuLPNiOWHt447yjC208RFtWI7bTAtZa65xU69y791tjxVCr3kOLxWE1bKq+3VOFO2KVpahhxy61UjnxYwLC9Sxg7SwNn9NjRYwKWJkQ3zqsGToB0aUca8tOWwJrFNmvb7Jw3Bm1TrgMCF3joW0C600zCS9QSqwIphVSuRisNViza7IYmXK2f1SLwKpiq+tEW1wphrV5kzgsMl/XY4zdbYMcEoxjdZI3Zq50WC0WnGkV6MU3EFjJbg8mTmfysrVFOfoO6QUCq4jrciMK/i6bie4AcZRxRWZYGEgBYh9A2noSq3WRiHznWo8VN/mMG/pWL8qP6DkUiZXsraKMugN8nXZ3SoQTWMH/RWkTA/IpJFYiowLIyT4TNFq9Vk2KzWKLe2KkU/isET0wQquxBpM2oajJOqljIwz3hV4taa1E0qrNZeFaEa7/Oz5UTGLlgGRwc5jHZgJrRQqruA3GS9Qx/qpSO49lCKEEaMmimESGFOIS77oKK/JmbQJSBFad8KEiRcexRs4UfPD+81jwDrXz1C0kVh6wPsI31HtsPj7GsdZqHcejxM4wMOkyVgp2GPEG68Q3fi76+oHv00V9XoVZeT7Us4AVAVYXhS0+gVX0UqneGI2CP8SwOjTnv7DCtGGvvTMtPa6+uxshsZ7MgF6ndXPT6tQu9I9arMm6fKxJjzOKuqyAR2jFYmMwxYqUqOMU7Hc+m90EHXqwf+nzsu66Nn3z+V9g7TGsXr1nlFVxK/4MWRi6LrsOR1NqZJPYOVgyR9O2rLsU7EPtOTyAbG7LUcqYYlhPWpI3ANWs1S5sHBPFsM7UTwlvgjGqWuMm3uNgH3G0X0kUXf1seoXNh6jY804N0rZY+Bc6gSMOsQbzCWIjXdkdwHI4L7NK05wjslFbBsHCSZ3ztkBz5ew54lp1qH3ytXBRRD8eu1d/DPAco/64upCCP3vWims/DBFKUqe1cCNxWCotVDuj1YDb8F942+Rzb4gRfqA5LwM9XjX+66Fg+jvvT0msFHmNOs0BVHiZksH13rdzhuMAsE5xHnFql5iIlLjne8UMNjMykYr7adyMq3tXoc5HsedY4Tlmh6aWvHIDxUiL6XKk48Jo8hp5m57NOC7KAyMEL36IDEPshCDFRXxlYltZBZ7887bj/fxaA+Po7In/+Kq7YtRuC4n7vldcxdWysTmFMMe6cnunIm29RkAw63LJpvwFOdSeNwbH7LXHzde1AasIA1pbtREB0jIyhXZx354EtcEMA23AiuOrTuqAJjTSMhIF7T8RjghpgBQx71qs6AZvXdoxXdjTU4mJerL3XfLEgrgoDZB1WHmIyqQNnTyE0k0JXgIx+02LKc9aEm6wrtLEZ6ux8jQ8PXSxJnT+i4h6Yvd7wuDDD85T3ZrVWB+9jtmq1ObfBdTXnlhnEjz6ly5D4/zpXC1/DwDyqJ+Lmc2/zUQJIWqfXuuJ3ZqlziWobcuKbgA5eaDyXycROnsbs8RZwKvgMem5PLixWSPiNVRmbqkoAJop0eSvFSLk7JtR2FHPsSvNt66j93wnwFgikd4rz7KzrvtfwYIgQWCfH1f0UOzkbZ5Ym3OLdgQQz3/3n/1FavLuLY1u+085Fr9SlsO5hbwfB11OfyUq/P+kr70wJ/m38oNb8yH3H1kqZDm0kyNZBOtR+YtPqd4aXt4A01QoYrKWsSZohc83GkrV6/CMdzuzl+VwxfZmvIP1u+ANIAxUhOWUoj0G2qlg5l09h32hsPnwlku0ZIdyHFvWld0WhfNXSVMNcpU5H2cshxzqWzgV+rmGPtcP2unpYTwrKcQqllx3sOq27co9MDQDY1mAgrz1+vw15Xh/Mbm5YDohhccwRXZDSzSASQDN9/zmwrqDuYdznQZrK8H7cz1dll07LteTTEjH6oUocUPEbuNEhqY3H+Z9Ph524k88bBYes24UCpaQjC8d6TtKMQqPdi7en2vYFHKYG/w6mMLVLLqDVQIFM2ML2nvGjTUzDBY0FE6zLfjv0L05nxj7PcO5hkZf2nzWfa18LqAAMeEKGdhif2cT3A2ehXApg2ImxS2fBtEE+YImZDBD9tOUWHugPFFA0bojlnMQzP7b7qs54CZwMhTIZQcEs+g8a3kUX3xE0MzpjmQnw/fEwi6H7wgcTug9scYNrDU+fNrOzgavL8LCYjkHXZPw4BotLkIGK2U9PL8O0rAdTe5eTvtLlnYqdCmHEmqwdCExjFa7nb7cPa2Ci64nr8PvB2HFQmSHWdepTBosrHU1RwsrvGmmeft9P/z9Oh6Pn56exuNXWNjt7RQW01u9bt4hV3ksi1ZyDfGa3oqEc8EyhOuPOFIFDdYs8riL+v+8B/A1es9yodd/tXO1KCa7ZYmF/uuhr6ZEeu5n4whM4ZBrk5dP4w0NVyoJ2ve/22Ndruv9HUF+Cxr9zbrbzxEI2nvBizr+JRp9a7uDNYWjqa7S+HZHT5DbWOPPELpbXLg5DdTpPzm+slowyU/sD8zX7XauQDC172NURYp1Z91u94yLL+bJvL4lV8ReA1Uzh0dLjUk/65556v5KPGY7eDbTOANsqA+vpVi3ukSyA6ge2IUXZp7uk8MoC0iF6d0xpEpKJqhirouPhaPB11RbllYVTFPr396Pj23/otQY1bOzX0srM5q8fk1PyXyraQrvz7+PSFfISWBddAORRteTydP49XX8NJkMjvV+jZizpLjNBx21SXw3ibX7970wWD61F7Ee5t27n6XeEWseOjqBXMQuNFmzzQcdtVFU0lj3el38qEBG0gsUuXbyD5Yd49rNZBLao7AbILh2s57k/x+W2w3Ads/2moznqLgM56yL9csu0ZLGP0KMqmxeIf6v0v+fL6HKNAKA8gAAAABJRU5ErkJggg==;" parent="1" vertex="1">
          <mxGeometry x="301.5" y="369.46" width="85" height="36.54" as="geometry" />
        </mxCell>
        <mxCell id="WfICn3c8xEElV-hs6Pjb-54" value="" style="group" parent="1" vertex="1" connectable="0">
          <mxGeometry x="830" y="432" width="122" height="213" as="geometry" />
        </mxCell>
        <mxCell id="WfICn3c8xEElV-hs6Pjb-51" value="" style="rounded=1;whiteSpace=wrap;html=1;dashed=1;dashPattern=1 1;strokeWidth=2;fillColor=none;fontColor=#6600CC;" parent="WfICn3c8xEElV-hs6Pjb-54" vertex="1">
          <mxGeometry x="2" width="120" height="213" as="geometry" />
        </mxCell>
        <mxCell id="WfICn3c8xEElV-hs6Pjb-52" value="" style="shape=image;verticalLabelPosition=bottom;labelBackgroundColor=#ffffff;verticalAlign=top;aspect=fixed;imageAspect=0;image=data:image/png,iVBORw0KGgoAAAANSUhEUgAAAgAAAAIACAQAAABecRxxAAAABGdBTUEAALGPC/xhBQAAACBjSFJNAAB6JgAAgIQAAPoAAACA6AAAdTAAAOpgAAA6mAAAF3CculE8AAAAAmJLR0QAAKqNIzIAAAAJcEhZcwAADsQAAA7EAZUrDhsAAAAHdElNRQfkBQcMOy79SF9uAAAjlElEQVR42u3df3RV5Z3v8TckIYQkhMAFCb/EkCLNAYVJdaDgOAo6diy2rlvwx+04tnq1Xr1avGtdZ1btuu1q/1C76q86vUpre69etaPTzlQraAWLq0SsGoFAopTwM0AwQE5CQhIIP+4fphEwyTnJ3s9+nrOfz2uvBYGc8zzffc7Zn7N/PhtEREREREREREREREREREREREREREREREREREREREREREREREREREREREREREREREREREREREREREREREREREQklSGhtTSLW1nIVPJtz5JktCPsZBU/Z7PtQvwQTgDk8gi3M9T2zEhsnOBJ7uWY7TLiL4wAyGUll9meEYmdN/mSIsC0rBDaeIIltmdDYug8illpu4i4C74GMIsNWvkXI05wITW2i4i34IvurVr8xZAsbrFdQtwFX3gX2Z4FibErbBcQd8E3AVopsD0TElutjLRdQrwFD4BTtmdBYi28M1WkF9p+F/GYAkDEYwoAEY8pAEQ8pgAQ8ZgCQMRjCgARCeBUmlM195AIYbSAfBLcw6a0+7Xdf9wFnX/fX7+Ml85C0MkdIa9rZHEnR9NeCG32H3cKAM+ls/iZGS3g8jQXQbv9x50CwHOpF4FvGev7rrQCwG7/cacA8FyqN7Da4I7GLDY733/cKQAymvmjAD/npLG2T/C08/2LxFqqBC832vtM5/uPO60BZDTzlwMX0maw/kIOO95/3C9nTfX+p5r/oM+XQMwHgOk30Pf+bVMAZDSdCSjiMQWAiMcUACIeUwCIeEwBIOIxBYCIxxQAIh7Ltl2A9ePApvv3/Vw23+ffcVoDEPGYAkDEYwoAEY8pAEQ8pgAQ8ZgCQMRjCgARjykARDymABDxmAJAxGMKABGPKQBEPKYAEPGYAkDEYwoAEY/ZHw/A9rjvpvu3PX+mmb4vgBilNQARjykARDymABDxmAJAxGMKABGPKQBEPKYAEPGY+QAoNNr6SOf7F3GY+QCYbLT1Kc73L+Iw8wFwhdHWr3S+f5FYO5Vi2kSWsb6zqHG+/7gLOv++v34ZL9UbeIo7jfV9dxq92+4/7hQAnku9CBxloZGeF3EsrQCw23/cKQA8l94ieFfIK+JZ3J3m4m+7/7hTAHgu3YVwM8uYSUHg/gqYyb1pbHu70n/cKQAyWvCr1fUWiUlxH0/BMp0JKOIxBYCIxxQAIh5TAIh4TAEg4jEFgIjHFAAiHgseAK22Z0Fi7LDtAuIueADU254FibHdtguIu+AB8IbtWZAY+73tAuIu+ImWM9lg8Ip78dkJLqDWdhHxFnwNYDNP2p4Jial/0eJvWhiXWgxjhaEr7sVnq/h7umwXEXdhrLyf4FcUU6FDihKaEzzBP2rxNy+8iy0T3MIVTA3hinvxWRs7+T1Pa+VfRERERERERERERERERERERERERERERERERERERERERHxl/+7rpwzPQdD2487062f/Eyb90DBeIh5TAIh4TAEg4jEFgIjHFAAiHlMAiHhMASDiMQWAiMcUACIeUwCIeEwBIOIxBYCIxxQAIh5TAIh4TAEgIiIiIiIiIiIiIiIiIiIiIiIiIiIiIiIiIiIiIiIiIiLikPDu3j6LW1nIVPJtz5I47jBJmmjhGC100EkLx2jlCMdIcpStbOGk7RL9EU4A5PIIt2t0IenRRSMN7OcASZI0keyemkhywnZx8qkwAiCXlVxme0bEmg520sheGtnHx+xnH4002i5K0pMdQhuPavH3Sgc72MkudnZPWtgzWPA1gFls0Mp/zLWyhQ/5iDp2sZOPbZcj4Qm+BnCrFv9YSlJLDduppYad2i0XV8EDYJHtWZDQHGEjH7CearbQarsYiULwTYBWCmzPhARymE1UUUUVH2kPvW+CB8Ap27Mgg3KU91jL+3zADtuliD1hHAWQTNLKn6hkLWvptF2K2KcA8EUDa6lkLeu1Q08+pQCIu07WsopVVNkuRFykAIivHbzBKl7T/nzpmwIgfrr4AytZyRbbhYj7FABxcpJ1vMQLOjlX0qUAiItanuFZ9tkuQzJLdAGwiadZxU6OBGwnn6ks4lZmZlj/5lTzAr9ip+0y0lJAEUUUMYoCisliJDkUMJw88hlGIdmMIoui0x6f0/NzUc9J5ydp6fnfLtp6fm7mJM0cp5WjtNNBJ2100cJJkrTS0j21pazSI9GcCHSUZTwV6uGnLL7FwwxL89G2+zelled5ivWWqzhbPuM4h7GMpYSx3Qt8EcUUMYos28UBx2mhhWR3HDRzgP0c4AD7aaTddnFRiyIAjvIl/mCg9stZmdYiaLt/MzbyU16wvof/HCYxiSmMZzxjGct4xjHCck1BtNPYEwf72cUe9sb76scoAuAOnjRU/V38JI1H2e4/bKd4jYdZZaHnQs5jCpOZyBQmM4lJDLdQRdQ62cMedlPPHvawix1x2ogwHwCbmG3s3LMsNpJwvP9wHec5HqI2sv5ymUiCckoppZTzQhxDMpMl2c727kult3LYdjlBmN8J+HODp56e4Gkedrz/8Jzk19zPn433M4mZzGIGZUxnfGRzl0mKqaCi518NbKWOj6hmM3ttlzZQ5tcAEka/r2ayyfH+w3GKX3E/2421P5LPkaCCcmZxTiRzFE8t1FFLFTVs4KDtYtJhPgAKjW4xFaZcAbPdfxje5X+w1kC7o7iYv+YiZjE1grnwzU6qeY93+dNpBy2dYz4ATG81ut5/UPu5l1+F2ks251PBfBYwQ8O5ReKTKzGreI+jtks5mwLAdP/B2v5/LONQSK0VcAmX80XmkGf4NZHedbCeSt7kj4FPRwuNAsB0/4NXz02sCaGdbC5kEYu4hFzDr4Wk5wQbWMUqFwZlUQCY7n+w/oNbA3/3z+ZLXM58feM7qp1K/sAKNtorQQFguv/B6OJengjw/KHMYTHXc77heZdw7OK3vMIajkfftQLAdP8Dl2QJqwf53OEsYDFLKDE81xK+Q6zgFVZEu39AAWC6/4HaxpfYOqhnfpFbWEKh4fkVs1p5kadZF1V3CgDT/Q/MVi5nz4CfVcwS7uQCw3Mq0dnCL/llFAO72A+AuD9/ILZw+QCH9BjCVdzK4tOumpe4OMYr/JzXzZ5pogBwJwAOMpdtA3j8MK7nf0Z8MZJEbSv/wlPmDhcqAFwJgE4uH8CWXw63cD8TQ+pb3FbPD/klXSaa1qmgrvh22ov/EK7nQ/63Fn9vTOYparnORNNaA3BjDWAVV6bZ0vk8zpWh9CmZ5i3+e9hXn2oNwAVtfCOtxT+L+6jW4u+tS/mA74U7rqICwAWPpHXobxJ/5AHrA5GKTdn8L94Kc+NPmwD2NwGaKSWZ8lFz+XeNzyMANHAtfwqnKa0B2Lc8jcV/Aau0+Eu3Et7ksnCa0hqA/TWAC1Lu2JnLKvID9yNx0sZC3g3ejALAdgBUc2GKR4zmA84N2IvETz1/FXzcQW0C2LYm5SN+osVfejE5jBGpFQC2pdqZcyHX2y5RHPVfmBW0CQWAbam2//9R75H0YSg3BW9C7Eq1FafTfqRvfxe0AQWAbakOAU6xXaA4bGrQBszfGiwV23ebs92/9XFhJYMFvu2d1gBct8t2AeKw3UEbUAC47nXbBYjDVgZtQAHguv9r8O7GktlO8mzQJhQArtvEc7ZLEEc9w+agTdg/FTju/aeSur5iPtDde+Uz6pkT/L6RWgNwX5LrjN7iXDJRK/85jNvGKgAywbtcpQiQ07RzDe+F0ZD5ADB7p5qRzvcfjkr+hvqI+hLX7eNvQ7lvNFEEwGSjrac+T852/2FZzzwqI+tN3PVHLgrn2x+iCIArjLae+kx52/2HZy9/w7c5FmGP4pouvs9lA7x7lGGnUkybwh3F9AxZ1Djff6ppoKbzWuA+NWXm9AcX7wOVuuw7jfV9d1ovm+3++58G4zq2Wv8waop2+jNLjH2OA0ld+lEWGul5EcfSeuls99//NDg5/Fd2W/9Qaopm2sktDly214d0ZuAod4W8Ip7F3QNY/Gz33980eDks4T3rH05NZqdqbnL73s/pzshmljGTgsD9FTCTewex7W27/76mYIZwJS9y1PrHVFP4Uyf/yhWmz2Q1fyqw9C+MN7iYJdzBbNuzIqH5iP/DL2k035ECwLbwEn4ut7A0slOTxIwW/pVfhHXfn9QUALaFu4qXzVyW8DUm2J4tGbCDrOQlfs/RKDtVANhmYhtvKHNYzHXMsD1zkpYdvMIrrOF49F0rAGwzuZNnFl/ici5hhO2ZlF4dYS1vsiL4Vf2DpwCwzfygpNlcyCIWcQm5tmdWADjORlaxij9Gu7rfGwWAbanegQQ1IfWUzwIuZz5/RZ7tmfZUO+up5E3WciSkFgN/OhQAtqV6B7r4BfdzIMQes5hBBRXMZ47Gg4jEdiqpoor3Qv3GL+Y+lgVdqwseAIcNX3Efd+ncfTjJgzxi4DrAkXyBv+YiLuA8RUHITrKDjbzPO1RxOPTWs/kmP2QsgZfg4AFQQ3nos+eTdG8/vpn7WGGsimF8jgrKSVBBie2XJIMlqaWGWqrYYGwMpyFczYM9S531AHiUewzNqB/SDQCAan7Mc5wwXNF4ZjGLGZTxOSZav3OS606xhzrq+IhqNrPfcG9D+DLf5aIz/idgg0HNZIPBK+7jbyABAFDDQzwf2RHjYUyilATllFLKVG0oAJBkO7XUsJ3tbIlstMahXM33mXPW/1oPAHjC4BX38TfQAADYysM8R2vkteZRymQmMZlzmcQkpnhxPKGDXexhT/efu9lBR+Q1FPJ17qWsl984EADDWGHoinsfDCYAAFp5gZ+y0XL1/4lJTGYK4xnPWMYyjvEhXHFpTyv7OcABGvmY/eymnj0pb+Bu2gxu5jaK+/itAwEAw/gxd2hDYFAGGwCfqGI5z1r4RurPcMb2xME4RlFEMUWMoogiJ05FOkoLzbTQQpJmWvi4Z5E/4Ni9mnO5httY1O9jnAgAgAS3cAVTMzr/bQgWAAAHeZHneTsjzsjI64mCIgrJZhRZFJFNIbmMYAS5FJDDyJ4vk5zTPk+FPaPiHD9t86eNrtP+t4s2OumgnaO0cpxmTtLMcVpp6Vns3YrL3g1hPjeylDFpPFJiLd3hI3bzGBW2i5UQJPgedWm/7xJzAxtFppp/0jWAGevz/DPVA3zHJeYGM5jUdp5iMcNsly5pymIBD1A7qPdaYm7wY8o18TzX97n3WFwwmht4gWSAdzkg7UJwXdC3+CTrqWQtrxs4I10GK4/5LGIBFwce8deZowBiRlgreUdZx2pW856NcWekWzYXs5CFzA3tgKgCIObC3sprZz1VrGVNqJcYS/9GcjELqOASikJuWQEQc+Z282zhHd5mHR9qncCQbMqZxzzmMd1YHwqAmDO/n7eLrVR1T5lwkozrcphOBRVUMCeC0RgVADEX5YGeLmr4gI3UUEuD7RnPMCWUk2A2c0hEeisvBUDM2TrS20Jd9+AWNezQ8eZeFZOgnATlzOIcSzUoAGLOhUWvlTrq2MY26tjGHidqsmEIkyhjGtMoYxplTgyGpwCIOfcWtk62sY2d1FPPHnbRYHyMIluyKOHc7hEQplJGKcNtl/QZCoCYcy8AznacBnazm73so5EGPuZj69fQD8YnoxmMZxwTmchkplDSc/2huxQAMed+APSmi0Ya2M8BDtFEE00cIkkTTRbGMTpTIaO7pzEUM5oxjOMcShgX6a678CgAYi4zA6BvXTTTSjNHaKPttL9PkQRaOU4HnXTRxunX+p85BsDpYwP8ZcyAAnIYTh7ZFALFDGEUheSTf8bfozJ0Me9bxgdA0A948AE17Mr0+sWugEuwRnkV8ZgCQMRjCgARjykARDymABDxmAJAxGMKABGPKQBEPKYAEPGYAkDEYwoAEY8pAEQ8pgAQ8ZgCQMRjCgARj9kfD0D6p/EApD8aD0BEBksBIOIxBYCIxxQAIh5TAIh4TAEg4jEFgIjH3L/1kfhN900wSmsAIh5TAIh4TAEg4jEFgIjHFAAiHlMAiHhMASDisfDOA5jFrSxkKvm2ZynDpDrO3cwo2yWKs5JBGwgnAHJ5hNu1NmHEW3zFdgnirLeCNhDGiEC5rOQy269Exkr1Dsznj16P26QzAfub9wW8HayJML61H9Xib1AlT9guQRz1eNDFP4w1gFls0Mp/AKnfgRxe5irbZVqjNYC+vMZijgdtJPiie6sWf8O6uJZXbRchjvkd1wZf/MMIgEW2XwkPdPIVHrRdhDhkOdfSGUZDwTcBWimw/WpktPTfgatZzgTb5UZOmwBna+QOfhNWY8EDwL83IFwDeQdG8SC32S5YrHqJ/8bB8JrT9nsmaeZ2llJvuwyxpJ6lLA1z8dcagH0DfweGcTM/YJztwiVSTTzE43SE3awCwLbBvQMF3Ml3KLRdvESinZ/wAM0mmlYA2Db4d2AC93CbrhSIuSQ/4zH2mWpeAWBbsHeggBtZxgzbMyFGbGc5T9JisgsFgG3B34GhXMO3udT2jEio3uJRXuak6W4UALaFdaHP+dzATZxne3YksL38mqeptl1Guk6lOVVzD4kQRgvIJ8E9bEq7X1f672sK01AW8BStodWmKdqpgxdZnGn36khnxjq5I+QzDrK4k6Npv7C2++9vCl8h3+C1kKrTFM10lJV8IzOP6qSeuU5DlwtfnuaH3Hb//U+mjGAxz9Bs/aOtqf/pCK9wE0XGPgfGpZ7Fbxnr+660XmLb/fc/mZXLIh5jn/WPuabPTgd5hiW2h9AzvxNwE7ON7cvMYiMJx/tPJYrRfobyBRaykPkMj6A36V8nlaxmNe+b38cfhVQ5d7fR3pc533+qKUp5LOA+3uCY9W8/H6cTvM8DLHZrS9/8GkCCWoP1z2ST4/2nkuodSFATetWjuYxLmctscoy9MvIXXWzgHdawhqbQ2w786TAfAIW0hT7bp7d+2PH+U0n1DnTxC+7ngJHqc7iABVSwQOcPGNBAFVWspTL8S3gAKOY+lpEbrBHzAWB6G9f1/lNJZ8CLJA/yCMcMzsUU5jGPi5jl1gpqBmplE+/yDuvYbbCXbL7JDxlL4M+3AsB0/6mkO+LNZu5jheF5AZhABeUkqGCGRotIWwNV1FBLFR8a37U3hKt5kPKefwVsLCjXF0Db/acykCGvqvkxz3HC8Bz9RSEzuYALmcn5Gn2gF41sYTMbqWYzrRH1OYQv810uOuN/AjYYlOsLoO3+UxnomHc1PMTzYYwHOyDDmUY5pZRSSoKSiHt3RZLt3VMtm8xepdeLoVzN95lz1v8qABzvP5XBDHq5lYd5LrJvnc8aQxnTKeNcJjKRKbZPZjHmCLvZy152UcefqeOQtUoK+Tr3UtbLbxQAjvefymBHvW3lBX7KRsNzl548SihlQs+fEzJyHaGTfTSwj+09fzZEfJ5G72ZwM7dR3MdvFQCO959KsGGvq1jOs4YOMwWRyxiKe6YSJpz2s12dJLunfTT0/JxkT+Sr9Knlcg23pbjzhgLA8f5TCT7u/UFe5HneduLbKrU8RpJPESPIo5g88hjFCPIoIp8RFJLFyO5HFnUfhcjrPoH5098c7t4R2tkdfSd7Ft7DnKCVdo7QQgftNNNBB0k6aKeFIxx2MCx7M4T53MhSxqTxyIAdBRV0AYz781MJq/16/p1nqApYjdiXYAlfZ1qaj1YAOP78VMJtfxPP8x98FLAmsePzfJUbmDWg5ygAHH9+Kiba38Eb/I7XjZ47KOHJYh5f5ho+P4jnKgAcf34q5tpP8hov8zrJgBWKOaP5O67hqgCDuysAHH9+KqbbP8l6KlnL64EvW5Lw5DGfRSzg4sDXYyoAHH9+KlHd/fYo61jNat6L/CxC+VQ2F7OQhcwNehVfDwWA489PJerbX7eznirWssbQJcbSm5FczAIquCT00f8UAI4/P5WoA+BTW3iHt1nHh1onMCSbcuYxj3lMN9aHAsDx56diLwD+ooutVHVPmXGajNtymE4FFVQwhxHGe1MAOP78VOwHwKe6qOEDNlJDLQ0R9hsHJZSTYDZzSEQ60JoCwPHnp+JSAJyuhTpqqaGWGnZkyGnGUSsmQTkJypnFOZZqUAA4/vxUXA2A07VSRx3b2EYd29jjRE02DGESZUxjGmVMo8yJ4dMUAI4/P5VMCIAzdbKNbeyknnr2sIuGyMYoiloWJZzLZCYxmamUUergfRUUAI4/P5XMC4CzHaeB3exmL/topIGP+ZiDtosahLGMYzzjGcdEJjKZKZRkwI06FQCOPz+VzA+A3nTRSAP7OcAhmmiiiUMkaaLJ4jhGnyhkdPc0hmJGM4ZxnEMJ4zL0HgkKAMefn0o8A6BvXTTTSjNHaKPttL9PkQRaOU4HnXTRBrTR1fO842dER+Fp3805FAAF5DCcPLIpBIoZwigKySf/jL9HZehi3reMD4C495+KbwEg4Qr4+dbI7yIeUwCIeEwBIOIxBYCIxxQAIh5TAIh4TAEg4jHzAWD2gomRKR9hu38Rh5kPgMlGW5/ifP8iDjMfAFcYbf1K5/sXcZj5U4E3M9vY5aJZVFPueP+p6FRgCcL5U4Fn8i1jbd+ZxuJnu38Rh5lfA4Bj/D2rDdS+iBVpXdtlu//+aQ1AgnB+DQCGsYK7yAq1zSzuTnvxs92/iLOiWAP4RA1P8wY7aQvYXwFTuZJbBrzybbv/vmgNQIJwfjwA6Z8CQILIgE0AEXGUAkDEYwoAEY8pAEQ8pgAQ8ZgCQMRjCgARjwUPANt3ehGRQQseAPW2Z0FEBit4ALxhexZEZLCCnwo8kw0hX2jjF50KLEFYPxV4M0/afg1EZHDCuHXmMFaw0PaMZCytAUgQ1tcAPhlw4wljw26JiDHh3Tw7wS1cwVQKbM9ShtEagARhfTwAMSvJKNslWKWA7E+S0cEa0JmArnvLdgHisMCfDgWA637k+Xec9O0UPwrahALAdZU8YbsEcdTjvB20Ce0DcF8OL3OV7SKs0T6AvrzGYo4HbURrAO7r4lpetV2EOOZ3XBt88VcAZIZOvsKDtosQhyznWjrDaEibAJnjapYzwXYRkdMmwNkauYPfhNWY1gAyx6skWG67CLHsJRLhLf4KgMzSzO0s1QgM3qpnKUs5GGaT2gTIPMO4mR8wznYZEdEmwCeaeIjH6Qi7WQVAZirgTr5Doe0yIqAAgHZ+wgM0m2haAZC5JnAPt8X+SgHfAyDJz3iMfaaaVwBktgJuZBkzbJdhkM8BsJ3lPEmL7TLEbUP5Kms4FdMpFdv1mZrW8NUodtFrDSAuzucGbuI822WEzr81gL38mqepjqYzBUCcDOWL/AM3alCWDNXJKzzLyjBO8U2XAiB+Cvka13EZw2wXImk7xpu8yL9Ff5sdBUBcjWAhS7iGItuFSL/aeZOX+K2tXX0KgHjL5RIWs4QS24XIZxxiBa+wgiM2i1AA+GAoX2AhC5nPcNulCJ1UsprVvM9J26UoAPySRwXzWcSl5NguxUMnWc8qKlnj0g11FQCuS1ATepujuYxLmctsBUEEutjAO6xhDU2htx3406EAcF0Xv+B+DhhpO4cLWEAFC2J4/oB9DVRRxVoqw7+EB4Bi7mMZucEaUQC47hSQ5EEe4ZjBXqYwj3lcxCwvLjAyqZVNvMs7rGO3wV6y+SY/ZCy6MUjs/eVMt83cx4oI+ptABeUkqGCGRotIWwNV1FBLFR8a37U3hKt5kPKefwVsTNx2+qmu1fyY5yK7C2MhM7mAC5nJ+d6MPjAQjWxhMxupZnNku/WG8GW+y0Vn/E/ABsVtZ5/rXsNDPB/lyaIADGca5ZRSSikJb88qSLK9e6plU+Sn7gzlar7PnLP+VwEQc71d7LKVh3nO4sGkMZQxnTLOZSITmUK+vZfHqCPsZi972UUdf6aOQ9YqKeTr3EtZL79RAMRcX1e7tfICP2Wj7fIAyKOEUib0/DkhI9cROtlHA/vY3vNngxPXGs7gZm6juI/fKgBirv+PYBXLedbQYaYgchlDcc9UwoTTfrark2T3tI+Gnp+T7HFw4I1cruE2FvX7GAVAzKX+DjrIizzP2058W6WWx0jyKWIEeRSTRx6jGEEeReQzgkKyGNn9yKLuoxB53Scwf/qbw907Qju7o+9kz8J7mBO00s4RWuignWY66CBJB+20cITDDoZlb4YwnxtZypg0Himxlu4IMrt5jArbxUoIEnyPutBGTJIMN7CBpKr5p1iPEBhvn+efqQ55yDTJcIMZT247T7FYA4JkjCwW8AC1g3qvJeYGP6xkE89zfZ97j8UFo7mBF0gGeJcD0i4E1wV9i0+ynkrW8jqHbc+K9MhjPotYwMWBr8fUUYCYC2sl7yjrWM1q3ov8LEL5VDYXs5CFzA16FV8PBUDMhb2V1856qljLGkOXGEtvRnIxC6jgktDHaFQAxJy53TxbeIe3WceHWicwJJty5jGPeUw31ocCIObM7+ftYitV3VNmnCbjthymU0EFFcxhhPHeFAAxF+WBni5q+ICN1FBLg+0ZzzAllJNgNnNIRDrQmgIg5mwd6W2hjlpqqKWGHTre3KtiEpSToJxZnGOpBgVAzLmw6LVSRx3b2EYd29jjRE02DGESZUxjGmVMo8yJ4dMUADHn3sLWyTa2sZN66tnDLhoiG6MoalmUcC6TmcRkplJGqYP3VVAAxJx7AXC24zSwm93sZR+NNPAxH3PQdlGDMJZxjGc845jIRCYzhRKybReVkgIg5twPgN500UgD+znAIZpooolDJGmiyfpNMQoZ3T2NoZjRjGEc51DCuAy9R4ICIOYyMwD61kUzrTRzhDbaTvv7FEmgleN00EkXbUAbXT3PO35GdBSe9t2cQwFQQA7DySObQqCYIYyikHzyz/h7VIYu5n1TAMRc3AJAwhVwCdbI7yIeUwCIeEwBIOIxBYCIxxQAIh5TAIh4TAEg4jEFgIjHFAAiHlMAiHhMASDiMQWAiMcUACIeUwCIeEwBIOIxBYCIxxQAIh5TAIh4TAEg4jEFgIjHFAAiHlMAiHhMASDiMfdvfSR+SzXuve6bEIjWAEQ8pgAQ8ZgCQMRjCgARjykARDymABDxmAJAxGMKANc12y5AHJYM2oACwHVv2S5AHBb406EAcN2PdK6b9OEUPwrahALAdZU8YbsEcdTjvB20iVRnWot9ObzMVbaLsEbXAvTlNRZzPGgjWgNwXxfX8qrtIsQxv+Pa4Iu/AiAzdPIVHrRdhDhkOdfSGUZD2gTIHFeznAm2i4icNgHO1sgd/CasxrQGkDleJcFy20VE7lSKyTcvkQhv8VcAZJZmbmcp9bbLEEvqWcpSDobZpDYBMs8wbuYHjLNdhkSqiYd4nI6wm1UAZKYC7uQ7FNouQyLRzk94wMxJ4QqAzDWBe7iNUbbLEKOS/IzH2GeqeQVAZivgRpYxw3YZYsR2lvMkLSa7UABkvqFcw7e51HYZEqq3eJSXOWm6GwVAXJzPDdzEebbLkMD28muepjqazhQAcTKUL/IP3EiB7UJkUDp5hWdZGcYpvulSAMRPIV/jOi5jmO1CJG3HeJMX+Tdao+5YARBXI1jIEq6hyHYh0q923uQlfmt2V1/fFADxlsslLGYJJbYLkc84xApeYQVHbBahAPDBUL7AQhYyn+G2SxE6qWQ1q3nf/D7+1BQAPsmjgvks4lJybJfioZOsZxWVrIl+S79vCgAfjeYyLmUusxUEEehiA++whjU02S7lsxQAPsvhAhZQwQKdP2BAA1VUsZbK8C/hCY8CQACmMI95XMQsXWAUUCubeJd3WMdu26WkQwEgZ5pABeUkqGCGRotIWwNV1FBLFR+6sGsvfQoA6UshM7mAC5nJ+Rp9oBeNbGEzG6lms0u79QZGASDpGM40yimllFIS3p5VkGR791TLJlun7oRLASADN4YyplPGuUxkIlPIt12QIUfYzV72sos6/kwdh2wXFD4FgASXRwmlTOj5c0JGriN0so8G9rG958+G+A86qgAQE3IZQ3HPVMKE0362q5Nk97SPhp6fk+yJxyr9QCkAJFp5jCSfIkaQRzF55DGKEeRRRD4jKCSLkd2PLOo+CpHXfQLzp785zAkAOruPsJ/sWXgPc4JW2jlCCx2000wHHSTpoJ0WjnDY5WPyIiIiIiIiIiIiIiIiIiIiIiIiIiIiIiIiIiIiIiIiIiIiIiIiIiIiIiIiIiIiIiIiIiIiIiIiIiIiIiIiIiIi4qb/D5eV/44VfHyoAAAAJXRFWHRkYXRlOmNyZWF0ZQAyMDIwLTA1LTA3VDEyOjU5OjQ2KzAwOjAwWGT7SAAAACV0RVh0ZGF0ZTptb2RpZnkAMjAyMC0wNS0wN1QxMjo1OTo0NiswMDowMCk5Q/QAAAAZdEVYdFNvZnR3YXJlAHd3dy5pbmtzY2FwZS5vcmeb7jwaAAAAAElFTkSuQmCC;" parent="WfICn3c8xEElV-hs6Pjb-54" vertex="1">
          <mxGeometry x="7" y="43" width="110" height="110" as="geometry" />
        </mxCell>
        <mxCell id="WfICn3c8xEElV-hs6Pjb-53" value="&lt;b&gt;NFS/Cloud Storage&lt;/b&gt;" style="text;html=1;align=center;verticalAlign=middle;resizable=0;points=[];autosize=1;" parent="WfICn3c8xEElV-hs6Pjb-54" vertex="1">
          <mxGeometry y="172" width="119" height="18" as="geometry" />
        </mxCell>
        <mxCell id="WfICn3c8xEElV-hs6Pjb-58" value="Adhoc Run" style="text;html=1;align=center;verticalAlign=middle;resizable=0;points=[];autosize=1;" parent="1" vertex="1">
          <mxGeometry x="313" y="443" width="70" height="20" as="geometry" />
        </mxCell>
        <mxCell id="WfICn3c8xEElV-hs6Pjb-62" value="Containerized Execution" style="text;html=1;align=center;verticalAlign=middle;resizable=0;points=[];autosize=1;" parent="1" vertex="1">
          <mxGeometry x="437" y="444" width="140" height="18" as="geometry" />
        </mxCell>
        <mxCell id="WfICn3c8xEElV-hs6Pjb-101" style="edgeStyle=orthogonalEdgeStyle;rounded=0;orthogonalLoop=1;jettySize=auto;html=1;exitX=1;exitY=0.5;exitDx=0;exitDy=0;fontColor=#6600CC;" parent="1" source="WfICn3c8xEElV-hs6Pjb-64" target="WfICn3c8xEElV-hs6Pjb-95" edge="1">
          <mxGeometry relative="1" as="geometry" />
        </mxCell>
        <mxCell id="WfICn3c8xEElV-hs6Pjb-116" style="edgeStyle=orthogonalEdgeStyle;rounded=0;orthogonalLoop=1;jettySize=auto;html=1;exitX=1;exitY=0.5;exitDx=0;exitDy=0;entryX=0;entryY=0.5;entryDx=0;entryDy=0;fontColor=#6600CC;" parent="1" source="WfICn3c8xEElV-hs6Pjb-78" target="WfICn3c8xEElV-hs6Pjb-64" edge="1">
          <mxGeometry relative="1" as="geometry" />
        </mxCell>
        <mxCell id="WfICn3c8xEElV-hs6Pjb-78" value="" style="shape=image;verticalLabelPosition=bottom;labelBackgroundColor=#ffffff;verticalAlign=top;aspect=fixed;imageAspect=0;image=data:image/png,iVBORw0KGgoAAAANSUhEUgAAAgAAAAIACAQAAABecRxxAAAABGdBTUEAALGPC/xhBQAAACBjSFJNAAB6JgAAgIQAAPoAAACA6AAAdTAAAOpgAAA6mAAAF3CculE8AAAAAmJLR0QAAKqNIzIAAAAJcEhZcwAADsQAAA7EAZUrDhsAAAAHdElNRQfkBQcMFxebfLzIAAAtgElEQVR42u2deXxX1bX2nyQkgIBMIoKoDAoIynXAoU7YXlutigYQuVrrq9XX23pLVURpa2vtcKsBeuvUWmtvW20vfmylhrZOtc5UbQWckXnQyDwVEoaE5Pf+kTeXKSR7WOesvc95vvtPTlhrT89vn33W3qsIWaADzsAJGITB6IGu6IAybYdIotSiBhuxBvMxH7MxE1u1HYqXIm0HPOmJyzEap6BU2xGiRi3+jul4FGu0HYmRmAXgLEzE59FG2w0SBHV4GlMwU9uN2IhVAM7G93CmthMkOF7G7XhF24mYiFEADsFkXBGl5yQNfo/xWK3tRCzEN40uwUPoou0ECZqNuAZPaDsRByXaDljRFvdiCtppu0ECpz0uRTe8gHptR8InphVAR0zH57SdINHwAkZhs7YToROPAPTA0zhR2wkSFW/ifKzTdiJsYhGATniR059YMwufwRZtJ0KmWNsBI9qiktOfODAcjzMutCXi2AS8F5dqu0AiZQA64VltJ8IlhleAS/B7bRdIxBQwhh8F90f4AtALc/ndn3ixEYN5UqB5wt8DmMrpTzzpisnaLoRK6CuAs/GitgskAxQwAq9qOxEioW8CPoIjtF0gGaAIffGwthMhEvYK4Cy8rO0CyQxn8rDwvoS9BzBR2wGSITiamiHkFcDBqOJNP0SMnejDY8IxcRMKVmUHHsNlGIQOxhZM/2cSFh0wCJfhMeywHCHjtR0nNrxq1bnT0d/aAgUgbgbgD1ZjhF+UIqKDhb7X4xYnGxSA+LkV9cb9uB3ttd0lppxroexu058CkA1utRgp52g7S0z5psXi3xUKQDZ4wrgnv67tamiE+xlwkOFztbhV21WizM2oNXxyoLaroRGuAJh2VSUWa7tKlFmCPxo+afqzkhvCFYBehs/xoCcBKg2fO0Tb0dAIVwA6GT43W9tREgCzDJ87UNvR0AhXADoaPrdS21ESAJ8YPmf6s5Ibwg0FNt1796lBGjZIOrAvnQh3BUAISRwKACE5hgJASI6hABCSYygAhOQYCgAhOYYCQEiOoQAQkmMoAITkGE0BKMM4TMM8VPMMPiF5YwwWW93nlsRlHbwQJDuwLyOiBFNFJj8FgDTBvowIuelPASCNsC+jYYzg9KcAkEbYl06kfziyDHMxIJAa8AhpdmBfOpH+V4BRotOfEOJB+gJQrl1lQkgT6QvAidpVJoQ0kb4AmN72SwhJHIYCE5Jj0heAFdpVJoQ0kb4A8B5/QoIhfQGo1K4yIaSJ9MMiSjEXRwZSAwaPZAf2pRPprwDqMEm70oQQTabwLAARhn0ZEcWYTAEgorAvI6McCykARAz2pROaWyKlKMfFOBF9jDMBS9eAG0fZgX3pRLjNwezAxAb2pRMMBSYkx1AACMkxFABCcgwFgJAcQwEgJMdQAAjJMRQAQnIMBYCQHEMBICTHtNF2IKOUYRQuxgnogw7aruxGDaowB5WoRK22K4S0TMyHgaQyHydVFmG0dveKw8NAGSNWAZDMfJxkmZKx1z8KQMaIVQDimP4FFFCh3cWiUAAyRpwCIJv5OOlSrt3JglAAnAj3cGSMx4GlMx8nzVIMzsx2II8DO5Gt90BtYst83A8Xa7tAdKEASFKu7YA1FICcQwGQJL7Mx8O1HSC6UAAkiS/z8aHaDhBdNAWgDOMwDfNQzd1aNRq0HSC66IUCj8Fk9NeuvjArMFDbBWuPSa7RWQGUYCoez9z0jzHz8SxtB4guOgJQgZu1K54IldoOWDND2wGSP2Sj5XyQtlEqlO0orbIYZdqDQQxGAkZCGRZlVgCA0eqT2qZkKQqAAhAJ44QHsQ9J2JDMfJxsuUt7KIhCAYiERzMuAJKZj5MsFRmLAaEARMKCjAsAIJf5OKmyMFOL/2T7MuOkfzZqi1cuYNkaJHeCTCbzsTTVqMJsVGIG6rRdEYenAZ2gACRtg6QD+9KJ9N8DGXtGSDCkLwDxRcsRklnSF4BK7SoTQppI/42oFHNxZCA14HtjdmBfOpH+CqAOk7QrTQjRRDJazgd+O84O7MuIkIyW84GDJjuwLyNDKlrOBw6a7MC+dEJzS0QmWo6bgARgXzoSbnPEmBiE6MG+dCJbJ8IIIVZQAAjJMRQAQnIMBYCQHEMBICTHUAAIyTEUAEJyDAWAkBxDASAkx1AAkqHlzMcupRrzMA2XZiiXDyEtEPNhoDFYLDbx9y6LMFq7a4KEh4EyRqwCUIKpiU3+pjKFK7d9oABkjFgFIPnpX0ABFdrdExwUgIwRpwDIZj5uqZRrd1BgUACcCPdwZIzHgcswFwOSa5I9WIrBqE3JVgzwOLATfJeUZFRq0x/ol8H8fiR1KACSlKdqjQJAvKEASHJiqtaGa1eXxA8FQJJeqVo7VLu6JH40BaDlaDnSGg3aDpD4aaNmeQwmo7929YVZgYGpWiPEE50VQAmm4vHMTf+0Mx/P0q4uiR8dAajAzdoVT4TKVK3N0K4uIS7IRsv5IG2jVCjbkUlZzHOBe8BIwEgow6LMCgAwOjUBYBTAnlAAImGc8ETwIQkbkpmP91/u0u7G4KAARMKjGRcAyczH+ysVjN/YBwpAJCzIuAAAcpmPmysLufhvFgqAE+mfjdrilQtYtgbJnSCTyXy8O9WowmxUYgbqhP7HbMHTgE5QAJK2QdKBfelE+u+SjF8jJBjSF4B0o+UIIS2QvgBUaleZENJE+m9EpZiLIwOpAd8bswP70on0VwB1mKRdaUKIJpLRcj7w23F2YF9GhGS0nA8cNNmBfRkZUtFyPnDQZAf2pROaWyIy0XLcBCQA+9KRcJsjxsQgRA/2pRM8VUZIjqEAEJJjKACE5BgKACE5hgJASI6hABCSYygAhOQYCgAhOYYCQEiOoQAQkmMoAITkGAoAITmGAkBIjqEAEJJjKACE5BgKACE5hgJASI6hABCSYygAhOQYTQEowzhMwzxU8/ZWQvLGGCzmteBEDPZlRJRgKhODEFHYlxEhN/0pAKQR9mU0jBGc/hQA0gj70on00ySUYS4GBFIDJpPIDuxLJ9L/CjBKdPoTQjxIXwDKtatMCGkifQE4UbvKhJAm0heAXtpVJoQ00UbbgYxShlG4GCegDzpouxIoNajCHFSiErXarpA0mS/6ETDMz4BSUY55KIswWmRc8TOgE+m/AszWrnLClGAqHkd/bTeiYQCmYwoPpWmRfsNXalc5YSpws7YL0TERd2q7kFfSD4soxVwcGUgN5INHxuBxwbrliVGePw0MBHJCozlGY3ogNZAeNNJRjnliKQZ7bQdSAJzQePf6A6ZqVzshGOXoTj9crO1CHtHZfJmEKdoVT4RybQeihgKggI4ANOBWjMIi7cqLwyhHH4ZrO5BHNN+ISlGOi3Ei+qCjUg2k3xu3eNUk71Sjk8dfcw/AiXCbI40OpQCExGZ09vhrCoATDMCQZIW2A1HD1lOAAiBJ1qMck2WWtgN5hAIgSaW2A1EzQ9uBPBLuG1GMewDSUY55YgmOZiBQ+nAFIEkdJmm7EC0TeCxYAwqALNmNckyWCr4AkD2J9T6AYkxWP2MfW6kQ+CHifQAZI1YBAIByLFSfVLGUhUIhwBQAJ8LdEolxE3AXMlGOWaYaVZiNSsxAncj/x01AJ8JtjrgFgKQN+9IJbgISkmMoAITkGAoAITmGAkBIjqEAEJJjKACE5BgKACE5hgJASI6hABCSYzQFoAzjMA3zUM2YbULyhlQGXR94gCQ7sC8jogRTxU6T+cBBkx3YlxEhN/0pAKQR9mU0jBGc/hQA0gj70on0D0dKZ9DlcWACsC8dSf8rADPoEhIM6QtAuXaVCSFNpC8AzKBLSDCkLwC9tKtMCGmijbYDGaUMo3AxTkAfdNB2JVBqUIU5qEQlE4Lki/miHwHD/AwoFeWYh7IIo0XGFT8DOpH+K0DWM+iWYCoeR39tN6JhAKZjCg+laZF+w1dqVzlhKnCztgvRMRF3aruQV9IPi5DOoBtWINAYPC5YtzwxyvOngYFATmg0x2hMD6QG0oNGOsoxTyzFYKYHTx+Nd6/sZtBllKM7/YRyBBIrdDZfJmGKdsUToVzbgaihACigIwANuBWjsEi78uIwytGH4doO5BHNNyKZDLoh7QFsYS5gD6rRyeOvuQfgRLjNEWN2YAqAD5vR2eOvKQBOMABDkhXaDkQNW08BCoAkWY9yTJZZ2g7kEQqAJJXaDkTNDG0H8ki4b0Qx7gFIRznmiSU4moFA6cMVgCR1mKTtQrRM4LFgDSgAsmQ3yjFZKvgCQPYk1vsAijFZ/Yx9bKVC4IeI9wFkjFgFAADKsVB9UsVSFgqFAFMAnAh3SyTGTcBdyEQ5ZplqVGE2KjEDdSL/HzcBnQi3OeIWAJI27EsnuAlISI6hABCSYygAhOQYCgAhOYYCQEiOoQAQkmMoAITkGAoAITmGAkBIjtEUgDKMwzTMQzVjtgnJG1IZdH3gAZLswL6MiBJMFTtN5gMHTXZgX0aE3PSnAJBG2JfRMEZw+lMASCPsSyfSPxwpnUGXx4EJwL50JP2vAMygS0gwpC8A5dpVJoQ0kb4AMIMuIcGQvgD00q4yIaSJNtoOZJQyjMLFOAF90EHbFQdqUIU5qEQlk3UQaeaLfgQM8zOgVJSjdlmE0drDRb0viTDTMi4AklGOIZQpkRwYowBEwqUZF4BsTf8CCqjQHjJqfUkSoFQ4a44P8jZkoxxDKeXag0alL3OBRlzUaEwPpAbS0WPSUY6hsBSDg98OZCSgExrvd9nNoJvVKMd+Qvn7SHDobPBMwhTtiidCubYDiUEByCg6AtCAWzEKi7QrL052oxyHaztAkkHzjUgmg25IewBbMpsLuBqdtF1oBe4BOBFuc8SYHTi7ArAZnbVdaAUKgBNxBHnEwgptB1gzYgcFQJLZ2g4kxixtB0gyUAAkqdR2IDFmaDtAkiHcN6IY9wBKMRdHJtckaizB0QwEyiZcAUhSh0naLiTChOCnP3GEAiBLFqMcK/gCQNInzsNAQDEmqx/ekSwVkfxI8DBQxohVAACgXPjEo1ZZGFEIMAXAiXC3RGLcBNyFTJSjFtWowmxUYgbqtF0xhpuAToTbHHELAEkb9qUTcbzfEUISgbcCE11K0QuHoTd6ow+6oQu6ogs6ozOKAXRAGYAd2AqgHpuxCZuwEZuwDitQhZX4GKuwU7sCcUMBIOnTGcfhaByFwRiIvq2OwbZoCwA4qJl/q8MSzMcCLNSuUqyE+0bEPYCs0QmfwnAcj+PRX7FF2Zd7wBUASZqDcDbOwBk4DiXarpC9oQCQpCjBcTgH5+BsjrJwYdcQedrhXIzBSHTRdoS0BgWASFKGC3ApLgj4ArEyHmyKg5hDgfPJUNyFNerhy62VjXgQZ2g3FQGAMozDNMxDtVeH+kABkKErJuBD9altU97B14K/5TDjSGXQ9YEC4M9xeAg16hPapWzBAzhGu/nyiWQGXR8oAD4U4UK8oj6NfcsL+DxjA9JGMoOuDxQAV4oxErPUJ69UeRdXcjs8PWQz6PpAAXChDa7FMvVJK12W4GqKQBqUYREFIFqKMRbz1SdrUmUprmO0YtKME+40HygAdozE++qTNOnyHs7TbuZs8ygFIEoG40n1yZlWeQ7DtJs7u0gvIH2gAJjRAz/DTvVpmWapw0/RTbvZs8kWCkBUFOFKrFWfkBplPW7gjVnybM6FAMhEOTZXqjEP03ApylLprSEZ+NLvU17GkFTaOUfk4RVAKsqxpbIIoxPuqVJ8FzvUp6B22YHb+HlQkmkZFwDJKMfWypQEl6jHYk5q9ViPOXgCdxs/fzf+gNkpvpjMYsiwHJdmXADSm/4FFFCRSB+VYBK2J+z5ajyH/8K1OBkHOvfHgTgF12Aqnk1cDLbj69wPkCHbgUCyUY4mpVy8h/rg1cS8rcM/cC8uR3/x/hiAy/BjvJng14rn0Vu8rXPJ6MwKgLS4mZQlwtuBF2BdIn4uxE8xqpUjuBL90RWjcB8WJFKHNbhQtK1zy5SMCoB0lKNZGSvWL6WYigZh7xrwOm7Bkan3x2DcipmoF6/NFG4J+iOZQdcHaRvSUY5m5bdCvXKI+NL/dXwVhyr2B9ALN+IfwrV6EQcLtXiukcqg64O0jWQWnq2VeSL9cTKqBH2qwp0YrN4fTQzE9/GJYO0+xqkibZ5zSjEWv8WHnrGBPkjbkI5yNCtbBPriamwT8qYBz2Kk45m6JPu8DUbjWbFXgu24QqDVSQtQAEzLPz1bukjshWwz7nf43U+zz4/CA9gqJHTf501CSRKjAOiclP/Qqw3a4TERLzbgDu/jM2n0OdADdwjFDTyG9p6+kP0SowBIRzmald94tEB3zBTwYA2+sVs4Tzj9sX864TasF6j5K0x+khQxCoB0lKNZucS5/ocJXOa9BXeIpQFJTwAAoDO+g3961/8d9BLyh+xBjAJQKvRlw6Ysdg4E6ucdtlSLB3FIZH2+J91xD+o8W2EpBgp6RP4/MQqAdJSjSbnYse7HYIWn5WfEB376AgAAQ/G0Z0uswNHCPpFIBUA2yrH1cpdjzU/wDPhdnshhZB0BAIDRnlEQqzA0Aa9yTawCIBnl2FqpcDyhNsxr+u/EZBwQbZ/vj0642+sg0RreIyhLrAIAyEU5tlQWOi/+h3ql8PwAp0Td5y1xMuZ6tMxa3h4kScwCIBXl2FzZgg/xW1yCUsc6D8JKZ9s7cSfaRd7nLdMeP/KIFqxCvwR9yxlxC0Co9MFy5+H9Ec5M2Lsw+uMsfOTcRot5Z4AUFAB5unok9ngihWuyQ+mP7vijczu9j66J+5cLKADStHeO+tuB8anEvYfTH0W4yflC1JfQNgUPMw8FQJZiVDoO6JU4PSUfw+qP0513S6bxmJA/FABZ7nIczK9bXenhR2j90QdvOrbanan5mFkoAJJc6TiQH051ORtef7TD/zi23BdT9DKTUADkOM3xku97Ul7KhtgfRbjDqe224eRU/cwcFAApejm9y9bh2tQ9DbU/vuwUI/ix6EGp3EEBkKGNU3a/rbhAwddw++MipyvTXuUNwu5QAGRwyVRUjXNUfA25P0Y4RXW6HtbKBTIZdH0IecDJMMrhnv9NqX3225uw++NMh+tDGnC+krfBI5VB14ewB5w/h2GDw/QfruZv6P1xioMErEUfNX+DRTKDrg+hDzg/ivGCdWtW4zQlb0sxzNjLYc5HoXw5EzXWbfoi04rujWQGXR+yLQC3WLflttTf/TvgdPwHHsIsyw+VOzAHv8KNGJHo6cTmOMdhO3BCyj4GjmwGXR+yLADHWX/7r8NFKfo3CDfhLwJJyGvwDCbg2BQ9v8j6o+A23he0izKhd38KQEuU4i3rlvy/qXhWjHNwv/AYKKCAFXgQZ6QUuPRla+/mqL20BId0Bl0fsisAt1m343+m4NXh+A6WiU/93csSfC+VO3p/aO3ZbSl4FQXSyTN8yKoAHG29tP5twr+dZbhUMDNfa2UmRie88VZkfUZgGy8Pb0Q6fZYP2RSAYrxm2YavOecWMKEtrve4Y8e1LMC/J5q4q731ScGXeEgYADZTABLmOssWXJngNVbtMB4fpz75m8pqfBMdEqtbH+szFtck5ktEUACSpZtl4stanJGQJ6UYj0/UJn9T+QRXJ/Y6cLrlrUFreF0YXwGS5n7L9vtqQn6chffUJ39TeTux+IabLD25J6lujwduAibJcZbfqP+QiBcH42GHMwjJlhmJvOgUWV4fWseIAOkMuj5kTwCet2q7jxK46bcY1zucQEijbEjklp7ulhuczyU/CMKmzDsnLQVgf5xn1XI7cZa4Bz3xrPpEb6nMSCCZ9wjLz5vnpjEUQkY2g64P2RKAYrxt1XLyoT/neGQdSqusd06ptn9+bOXBHB4Oksyg60O2BMDu4s8PhY/RtMEdqQX6+JUG3IUS0bq3tUy4clmawyJEJDPo+pAlASjFEotW24lTRa33dE46olOeFt79ONVq83URTwbIZdD1IUsCcLVVq/1I1PagBA73JF0WC6fzvtfK+lUpjoxgkcmg60N2BKAECyzabBkOELR9GtapT2eXskl0E/RAq6Cn+cIvIRmEAmDDF6yG/mhBy+XYqj6VXct20ZYYa2U79/sArUEBMKcIH1gMvWcFLV8fycbf/kqdaGyAzSfQ98I4GhSEE81iOu18apCGjTQ4H08aP1uLYZgvZPcaPCTaNusxH/OwAAuwEjWowUbUAOiAruiADuiFgRiEwRiI7oI2CxiPnwj9X8fiLYul/fl4WrAemYMrAHP+avHL82Mxq2Oc8uU0V1bhd7gO/Ywt98JYPIjlQtYb8CWxNnnQwq7kSiyDUABMOdYi7n4zeghZvQi1ApNvHm7DIGcfjsa3RA6X1WGkUKv0tDjt2sBzAS1BATDlvy2G+neEbH7W+zrP9bgfp4j4cip+gvWe3mwV+yJgk0r050I2MwkFwIyuFtdUr0YnEZtDPW91qMINoh8igQNwI6q8fNokFBfQ2eIoVA06i7ZCpqAAmDHeYpBPFLHY1SrmYO+yFDckdJd/Ga708myZ0ObityxsfiWRlsgEFAAzzA8ArRf5/S/Gk85TbDMmJJwvtxS3eASWPSlyTKeTRWDUW4m2RtRQAEw4yWJ4y7z/21+I3VT+hMNTaZPeeMTZx++KePBdC4t6mRgDx/S2NZ9ftfgF4AGLX1+J4y9jHG/6+QifS7VdznO8irRe5HvAwRbRkT9NtV0iwnQZ5XPbeuwCUGqx2JS4ja6X4277n0RDd8w4CE85+boOPQWs/8zY3lqeDGyepYYNeLmHjdgF4ALjGjR4fG3fxQyHCVWLiUqRlEWYhDoHjyXuSRxksVK6QKV1gud1w+Z7zMNG7ALwG+MaSESdXeEwmdaopRtv5AzLS9L9f1SaeM7Y2m9VWyhYfm3YfDswwNlG3ALQ3uJrvH/eX5fl/9IA0mENdggZXodDvO2a58DeIhwTkRG+YdyA7ku2uAVglLH/HwmcPq+0nkbvJZhxyIY+lhd2FVDAdG+rpViRojxnkM9ZdNetjjbiFgDzEGD/6z8/bz2FXg8oC043vGHt/6e9rf6nsa1faDdQiBxgkXap3lECYhaAYosbeH03AEvwrvWvfzjTHwC6Wa8CZnsHBQ02trWK9wQ3xytWHfYEjrS2ELMAnGzs/RvetuzuGyxgKQ7Vbp596GO9F/B/vG3ONrb1Ke3mCZEbLDusFr/HFzAYHY0txCwA3zP2/npPS+0tg2rWBLD11xyDLb8IfOy9OXezsa3vazdOiBwscuI876XeOxeO+XZsAQXUKn/4a4kzLeMCvuFpr7fxhWmvaTdNmLgEnrDsWf7m2QedsNHKnsyJw6T4ulVdVnmfWzSNZqnTOhgc9ubDXdoOZIAnPP/+S+hi8fRTwhkHpKnAnyye7ul9ZegMw+faYIRSiwTOS+q/oLEX+63R3Sm2St/ykULMvy09rC4Omef5EznE2JLEWY0MclZweebjKvM823+klbV0T/y5cr5VnXxTiZoK6CztZgkV97PdLAXc79n6NvcN/057qBjzB4taveJp6yeGdmoZENw8PS3uWGPZu5R7tf0xVvcNh/ftf38cjmrjejV4nDUBbM4ESCYqMybsTUAAWI0rEeaX+PCpx0tef/8li4O8d+AT7eoa8xF+YPxsEa7wsvUSGgyfDPfzqTr3qP+Sxln8YgCLLGLnFid81580ZVhmXLeFnvcZzDG0438AyYHwVwAAcAue03YhSl73+utTLO7wq8BO7cpaUYvJxs8e6RmoO9PwuX/RaIg4BKAWo7lL6sDfvf56rPGTn+Bh7apa80usNH7W7yXAtBf6CWVtyCgH4R/qS+rYinm2vX2xeQG4QXtwODHBuH4fe9k5ytgOjwS1SEer9Mssq71a+1RjO+si/YDVweL70hAPO0XGV7d+Of1GiOMVoJFqjMQ94BcBU/ySTpxn/ORj2KpdVSdqLO6T9AlxKmCO4ZMSF7daEpMAALW4EaOxUduNSPjA669PN37yEe2KOmPu+We97Lxv+Jxf2LYTcQkAAFTiSPyc6wADTIddc7TBqYZPLsQ/tCvqzOuYb/jkCLT1sDPX8Dm/kCMn4hMAYAP+HSM8Q1zygM8K4Djja1UejlqMpxk+1wEneVgx7Yn+Ape3WhKjAADAq/g0zsAM1Gk7EiwFfOjx1+YvAI9rV9QLc++P97BiugJom344dawCAAB/QzkOxdfwEnZouxIg67DF469NBeAT40V0mHxoHA1wnIeVf2KD4ZN90m6AuAI492Ut7sN9aI/TMRwDMRg90QUdUabtVgAs9/rrEw2fe1G7mp4U8KJhHqDjvOwsN0zN6nt9G8k8Nxl+U/ZZmpca3513tXZzeHOtYU13eP2sPGFoZXza1Y/5FSCfmCb59ole62u8MnxBuTX8ed7wuTIM9rCyzPC51FcAsb8C5I+DDJ+r8rBh+j16veeLRggsxUbDJCbvpOCNf05CS7gCiA1TAVjrYcNUAOLeAGxigbYDu9ElbYMUgNgwvXbTdN+5OUwDUnxvHAyDkGqR+uXgFIDYMN0D8AmYNj1FGNJvpzshrWMoAKQVTCP01nvYMH3NCGnquBNSLSgApBVMY9I3e9gwzezrd+A4FEKqhXleSyEoALFh+jW61sOG6WuGT6xhOIRUi9K0DVIAYsN0BeAjAO0Nnwtp6rgTUi0oAKQV0lgBmNoIaeq4E1ItUg9ipwDERkgCUK3cFjKEJABcAZAAqNd2gKQFBSA2TH/ZfX5LTO/4S33POhFCuow79YPtFIDYMBUAn7dJUwEIaeq4E1ItKACkFUJaAYQ0ddwJqRY+OzdOUABiw/Q3op2HjRrD50KaOu6EVAuuAEgrmP5G+ASVmgpA6odXEyGkWnAFQFrB9NObaThvc6wyfG6gclvIEFItUv+wSgGIDdNDPj4CsMzwOYVMNgngc9OPNOvSNkgBiA0KgDQhrQB8bnFwggIQG6a/ET5vtqYXfYX02+lOSDLmc4+TExSA2DBdAfjcML/U8Llu6KvbGAL0N14rDUORc7nb0AZXAKQV0hEA03Rfn1FuDX9Ma7DdK9NSX8PnuAdAWsF0h95HALZgoeGT+RGA97DTw0pfw+dSv5yEAhAbywyfO8LLypuGz31asykEKDKuwdtedvoaPrcs7QagAMSG6fv5IV5XTJum/O4d+UbgEOPN0rc8rHQx7gvT3hWDAhAbq7HN8Emf3W3TFQBwiWpr+DLW+Mk5HlaGGD5XgzVpNwAFIDYKxh/pjvaw8rZx4vUvKreHD0X4guGT2/Cuh52hhs8tS78JKADxsczwOR8B2Gb8EjAQp+o2hwefMs6B9LLxuqs5jjF8bln6TUABiA/Te+yP97LypPGT8a4BzD1/ysuOqQCYfnshucY0ofU6FHlYGWZopYD1OEC7SZzogA3GdTRdKTRHEdYaWvmSdpOQGDjZeNj29bKz1NjOjdpN4sRE4/r55Q4aaGxnuHaTkBjogHrDAeW3Q/9T44FbZZytIBzaYYVx/e72svRFQys7NVZS3AOIjxosMXzydC87M4yfPBRX6TWHI9eiVwIt0RyfMnxukfFVbCTnTDf8TfH5dg2UoMr4N3JJ+jfae1GG5cZ1W+y1lwLMMbTze42G4AogRkzDdIZ5RQPW42HjZ/tFtg8wEYcbP/tLmB6Nao5uGGb45GzVFiERcZbxr9eFXnb6o8HYUo3n6YM0ORzVxvXaicO8bI01tnSGdrOQWGiPHYaD6h5PSy8ZD1+lJawTMyxq9WdPWz83tLPd6x5nkjP+bjisFnnaucJiqhRwnnazGHGhVZ1GeVpbYmjnNe1mITHxY+MB7Hdar9Ris6yAj3GQdsO0ysH4xKJGvpubg4wtTdZpDm4CxsnfjJ+8wMtOHaZYPN0Hj3jumCdNMX6D3hbP32l8KKp5zNcP5j1KCLpip+EvyyueltpjldWSeZJ207TIbVZ1We6VYREA/mFoqc7rFmeSQ/5mOLTqcainpVutJk1dwLvZI1BnVZeveNo7wvgryqvaTUNi43bjYXyTp6VOWGc1bdYGekvQEKy3qsfH3gHONxnbuk27cUhsmB8JesPb1vVWE6eA5V5XkibDYfjIshb/4W1zlrGtE7Sbh8RGsfEh0wYc5WmrBO9aTp730U27gfagGz6wrME7aONp81hjWysD3zolQfKI8QC709vWpy2nTwFvBCQB3fCGpfcNOM3b6lRja7/SbiASIyMtfmH8j+o8bi0BH3gG0UrRG+9Y+/6Qt9U2WGls7XztJiIx0habjIfYRd7WjsBm62m0PIDtwCHW7/4FrBMIaBptbG2D98dGklMeNh5kfnfaNXKN9UQqYC3OVG2hEZY7/43lGgHLLxpb+2/VFiIRYx7V3uB1R3ATpvcQ7F7qcIdSvGkRbkCtg8dPCWzJDbU4R/lZldYhGaDM4lrLBwTs9cQahwlVwNPokXrbHIxnnXytEjnPYHoGsIA13l8bSI75ifFAqxHZlR/jNKkKqEp5o+tCqyM/u8pOjBCw3gM1xhbvT7VdSMYwv7y7gNu9rZVY7DrsW/7keUuxKYdafCDdu3xHxIMfWlj0y95Acs9s46G2Hgd6WSrxmFiNpRqTEt7xLsM3LX599y4vokTAhy4WX2dM8y8Rsh9swnS/4WHH79d/V1mOG9A+kZYow5VY5OHZIhws4se3LWxel0hLkBzRxeIXby06Olrx//XfvazABHQQbYUOuNki8Ka5shoDRDw50OLo1BZ0Em0Fkkt+YTHM3fYBZKd/Y9mABwTCbYEinIYHLL6GNF9qcLJQb/zAwuovxMYAyTE235y3oKf1/5/E9G8qC3C7cfLsfTkG38FCAS92YqRQX/S2WI81GCcNJaRFnrYY7D+x/L+TnP5NZSX+B9egn7FP/XEtpnku+XeVelwr1hPm3/9lojO94THELPBZ/MX42ToMwzzjp0vwS1yZWj02Yj7mYQHmYzWqsQWbUA2gI7qgEzriEAzEIAzGQNHrs+pxjUUClJY5Bm9ZhPX8K16QbDySZ962+OV5zvh/ldr5D7fUYqxgL7xgYXmW9pAhWeJKq2FvljU4+9N/m2fmpD253Mr2ZdpDhmSJNlhgMfg+MvgIl/3pvxnnCPbAgRbpxguYzxMARBa7HD7/1cr/lv3pPx9DRNv/Xivrl2sPF5I1SvChxQCsb/Hy7mL8Wn2CJlue9MqbvC+nod7C+vtMyEPksXsHnbffgNysT/8G3CU8AQ+wegErYIz2UCFZpBjvWQ3Dimb/F/fF/8MY43hfQJplLS4Wb/kfW3nwFj++k2Q412og1uMz+/wPPtO/GEBPq9Tb6ZfpDpGQrXGO1fK/gHO1hwnJLk9ZDcUqdN/jr90X/4/udpB2LDaqT/TmysZEzt71sNr9L+CP2kOEZJmjLbPfPbHb3/r++u/iCPxefbrvXZL47QeK8KSVFzswUHuIkGxzn+XEaMocKDf9Gznb4Tb+pMpb+FxCrT3B0pMfaQ8PknW6W6byrMMIyE9/ACjBV4zTlyVXluGLiX10O9tyvbUanbWHB8k+V1lOkVU4LIHp30hHTBQ7tWdf1mMi2iXWzodbf/O4SntokDxQhOctB6b5HXZ207+RdrgeS1Of/PNwvfP9Rya0t7iNsbE8x89/JB2OwrYUppjZ9G+kFJfjBYuLS3xKA/6C8xOOtSvGY5Ze1aC/9rAg+eGbQU3/JgbgB/g4Ua+WYapwjH/zTLb2bGL6g4Dkl1LMCW76N1KCc/FTLBP3aCmm4OSUFtlftfZuFk//kXQZgq0BTv9dHIuv4xWn3H17ln/iGXwbJ6XYsqOw09LHbbz9j6TP1wKe/k20w6kYj0fwoeX+QB0W4TGMx/EiqTxsOA/brVtsfMo+WsB9yexShGcSCIB5BFejIQFvO6Iv+qEvjkBf9EJbdEVbHIADUYIa1GI7NmIDNmAxFmMRFmM56pJvwGY4G09ZpzV5CheioOItyTmHWgYFpfvrHx+nYYt1i61KJASZECMuFP30lu/pPwKbrVusIeWsyITshU2mmpbLo6m/b4fEpx1+/Qv4vrbbJO+U4Dn++ntT7rD1V8CzuZZMEgjdBAJx8/3rf43T58rlOEjbcUIA4BTP0OA8//oXocKpzbbhBG3XCWniMo/NwDxP/3b4nVObNeAKbdcJ2Z3bHaf/Jhym7boah+NNx1ZzS8NOSGIUOWf5XYt/1XZehbOwyrHFpjHAjoRHW7ziOKDr/vfisLxQhAmWt/3sKs+jTNt9Qpqjq1UW4T1L5V43CGeZHvizczu9J5xziBBBelglENuzrMJ52u6nwmfwiXMbLUJvbfcJaYkjPK7kqMfkBO/YC4H2+JFlmo/dy3IcoV0BQlrjKOfNrcbfuLO1K5AYp2GeR8usxmDtChBiwklOce271gF3J3rdpg4dca/Hb38B63CsdhUIMeUkzzSeVRinXQVR/g1VXu2xktOfxMVgfOQ15Av4K47WroQIx+Ilz5ZYzoRfJD6OsMxqv2+pwwM4RLsaXvTGz5y/9zeVhdz6I3HS0yMuoKlswXfRSbsiTnTBD1HjXf/30Eu7IoS40tU5OnD3sg7fiizrXRfcJnJd2vMM+yFx0xa/EZgIBWzEdyM5/34wfoh/itT51wz6JfFThG8L3Ry4FQ+mkpfHnaF4QGDZX0ABDbidR35IVvg3sWyCDXgG5SjVrtA+lGCUddLU/ZdtPO9PssUp3p8Fdy8rcReO0q7S/zIUFZ7f+fcsS3nbD8kePfAXwUlSQAPewATl60QOw43WabxbK8/m6FwkyRUl+L54Cu8GzMQtCjsDg/ENvJlAbX6Q6+tRSea5QDybUGNZgvtwEbol7n83XIKfYVEidVjFNB8k+/TGM4lMnwIKqMc7uAfjMEDc66NwBe7DbK8DPS2XJ7OY5IsfMsi+FOGrqLBOgmnHJszGHMzDPMzDBsf/owuGYCiGYCiOTzgGYTtuxf3IYIpPCgBpniH4TWp73euwDJ9gOaqwGhuxERuxCVsBbMc2AB1QBqAzDkB3dEM3HIQ+6IvDcQS6puTfbFyF91OyRUggtMENqE5sQR1L2Yo7AoxqICQV+uNZ9SmoWV7GIO0uIESTIlyJteoTUaOsxlV8RSYE6Iq7nLLjxltqcU9k5xsJSZSBjlnyYizPYah2cxMSHp/Fu+qTM+nyFs7VbmZCQqUYIwVuEQq1fIArc5wJmRAjijHW6/78MMsSXMcof0LMKMEVGVoJzMZlaKPdpITExhn4k/h5u7TLTIzkxz5CXBmCh4Qu2Uq7bMEvcIx28xESPwfiOsxUn9A2ZRZuSOFoMiE54l9wH9arT+3Wylrch+O0m4qQbFKCM3APVqtP8+bKRjyCkTzYQ0jSlOF8/CogGViFX+FC3uHfHNz/JMkxFBfiHJylNvXq8Tb+ij/jNTRoN0WoUABI0nTB2TgTn8KJqQlBLWbhNczEy9ikXfnQoQCQtGiH4TgNJ2EYBiQSc1ePxXgXczATb2K7dmVjgQJA0qc9hmIYjsFA9EM/r7sHt2IplmIR3sc7mIut2hWLDwoA0aYn+qIvDkF3dEd39EB3dALQGcUoRUcA1ahDPTYD2IL1WIv1WIf1WI1lWIo12s7Hzv8DmOmmqfLhmWIAAAAldEVYdGRhdGU6Y3JlYXRlADIwMjAtMDUtMDdUMTI6MjM6MjMrMDA6MDDyKlgiAAAAJXRFWHRkYXRlOm1vZGlmeQAyMDIwLTA1LTA3VDEyOjIzOjIzKzAwOjAwg3fgngAAABl0RVh0U29mdHdhcmUAd3d3Lmlua3NjYXBlLm9yZ5vuPBoAAAAASUVORK5CYII=;imageBackground=#ffffff;fontColor=#000000;" parent="1" vertex="1">
          <mxGeometry x="158.2" y="636.3" width="70.6" height="70.6" as="geometry" />
        </mxCell>
        <mxCell id="WfICn3c8xEElV-hs6Pjb-79" value="&lt;b&gt;Paramiterized&lt;br&gt;&amp;nbsp;Notebooks&lt;/b&gt;" style="text;html=1;align=center;verticalAlign=middle;resizable=0;points=[];autosize=1;" parent="1" vertex="1">
          <mxGeometry x="149" y="709.3" width="90" height="30" as="geometry" />
        </mxCell>
        <mxCell id="WfICn3c8xEElV-hs6Pjb-91" value="" style="group" parent="1" vertex="1" connectable="0">
          <mxGeometry x="676" y="302.35" width="120.00999999999999" height="213" as="geometry" />
        </mxCell>
        <mxCell id="WfICn3c8xEElV-hs6Pjb-86" value="" style="rounded=1;whiteSpace=wrap;html=1;dashed=1;dashPattern=1 1;strokeWidth=2;fillColor=none;fontColor=#6600CC;" parent="WfICn3c8xEElV-hs6Pjb-91" vertex="1">
          <mxGeometry width="120" height="212" as="geometry" />
        </mxCell>
        <mxCell id="WfICn3c8xEElV-hs6Pjb-48" value="" style="shape=image;verticalLabelPosition=bottom;labelBackgroundColor=#ffffff;verticalAlign=top;aspect=fixed;imageAspect=0;image=data:image/png,iVBORw0KGgoAAAANSUhEUgAAAgAAAAIACAYAAAD0eNT6AAAABHNCSVQICAgIfAhkiAAAAAlwSFlzAAAOxAAADsQBlSsOGwAAABl0RVh0U29mdHdhcmUAd3d3Lmlua3NjYXBlLm9yZ5vuPBoAACAASURBVHic7N15nFxVnf//16mqruot6XQWskM29kVZdUZFQcFl/AoREzULCaIwOjqOXxdm+c1MZv+xzPwcHccxKgSSoCYKjDqgsi+KCmENEEgC2bdOekt3dXd11T2/P4oMiIGk0+fWucv7+XjUww0/99PdVXXe99x7zzFIJCy8yTblsrwdyxkWjgdOAMYBrUATkPfaoIgMRwnoBTqAPcDzBp4PYE2hl4eWXmmKftuTNDK+G0izT95sx1cs84KADxvDW4A63z2JSM2VgN9g+VHF8r3ll5o9vhuSdFAA8GDRSnuuCfiSNbzfQM53PyISGYMG7jAZrr1+nnnIdzOSbAoANbR4uX0Xhr8H3uG7FxGJOMv9NsPf3DjfPOC7FUkmBYAaWHyDnUAd1wAL0O9cRIZmdS7D574zz+z23YgkiwajkF22wn7EwreBUb57EZHY6gjg8psWmFt9NyLJoQAQks99zRb2j+bfgM/47kVEEsEa+HpPni+vnmtKvpuR+FMACMFnVtnmYokfARf67kVEEsZwz6Bl9soFptt3KxJvCgCOXbbKjrMl7gDO9N2LiCTWI/kMH1g6z+z13YjElwKAQ5/4rh0RFLgXDf4iEjJreDTbz/nXX272++5F4inju4Gk+NzXbCGo5zY0+ItIDRjLWUGBH85ZZbVKqBwRBQBH9o/m37Cc77sPEUmVC5tKXO27CYknXQJw4OVH/Vb77kNEUskGcIkeEZShUgAYpgXL7cSc4Vn0nL+I+NNRCThB+wjIUOgSwDDlDNehwV9E/GrNZrjGdxMSL5oBGIaX1/a/13cfIiKAxfLOZQvNg74bkXjQDMBwVDf2ERGJAmMMf+e7CYkPBYAjtGilPRft6iciEWLhvE/cbN/uuw+JBwWAI2QCvuS7BxGR1wr03SSHSfcAHIGFN9mjshm2AXW+exEReTUL5boMU7R9sBxKzncDcZTLMt/a8Ab/bAZmTLLMmGAZ12ppqoc6x3+p/7g167TeDfOdlhNJlIEydBRhczs8tg0e2wrlIJxjGciVA+YCXw/nCJIUCgBHIAj4sAlp7mTmJMvbTgkY2RROfRGpvUIOJoysvt4yDfb0wKrHYM3W0A75YRQA5BB0D8AQLbzJNhnDOa7rGgN/eErA+9+iwV8k6Y5qhs+eC3NOr372nbP8wZxVtiGEypIgCgBDlMvydsD55ht/cHLAGcda12VFJMI+cBJ85M0hFDYURgzythAqS4IoAAyRDdzv9jdzktXgL5JSHzgJzpjqvm5gOct9VUkSBYAhMhmOd1kvm6lO/YtIen3sDMg5/ja2huPcVpSkUQAYImvdfqhmTLK06Jq/SKqNa4Y3T3Fb01i3JyuSPAoAQzfRZbEZEzX1LyKhXAaY4LyiJIoCwNCNcFls3CgFABGB6aPd1rMw0m1FSRoFgKFrdlmsqd5lNRGJq9ZGt/WMdXuyIsmjADB0Th8BdL3Cn4jEU8H1d4Gh4LiiJIwCgIiISAopAIiIiKSQAoCIiEgKKQCIiIikkAKAiIhICikAiIiIpJACgIiISAopAIiIiKSQAoCIiEgKpXIdujmrbL65xOwALjJwBjAF0J58IiKSGqkLAIuW20tMiWsszDC+mxEREfEkNQFgziqbbS5xtYUv+u5FRETEt9TcA6DBX0RE5BWpCACLlttLNPiLiIi8IvEBYM4qmzdwte8+REREoiTxAaC5xGwMM333ISIiEiWJDwDWcrHvHkRERKIm8QEAw5m+WxAREYmaxAcACxN99yAiIhI1iQ8AIiIi8vsSHwCMYYfvHkRERKIm8QHAWtb47kFERCRqEh8AsNzmuwUREZGoSXwAKBS51cIG332IiIhESeIDwNIrzaAxXOW7DxERkShJfAAAWDbf3GIt1/nuQ0REJCpSEQAApm/kKuBa332IiIhEQWoCwJIlJli2wHwFy2zdEyAiImmXmgBwwLKF5rZCLydhmItlJbDOQo/vvkRERGop57sBH5ZeaQaB1S+/hmTxCmvddyQiIlJbqZsBEBEREQUAERGRVFIAEBERSSEFABERkRRSABAREUkhBQAREZEUUgAQERFJIQUAERGRFFIAEBERSaFUrgQo8WSBYqn6KlWgHIDWZTw4YyCXgXwWGvPVl/HdlIhEigKAxEKxBO3F6qAvh2YtDFaqr95SNQyMbqwGARER0CUAiYH2Iuzp0eA/HOWg+jvsKPruRESiQgFAIq29CN39vrtIjq5+hQARqVIAkMgqljT4h6Grv/q7FZF0UwCQSLJUz/4lHO3F6u9YRNJLAUAiqVjSNf8wlQPNAoiknQKARJIGp/DpdyySbgoAEkmliu8Okk+/Y5F0UwCQSKpo+j90+h2LpFsqFwKas8rmm0vMDuAiA2cAU4Am332JiIjUSuoCwKLl9hJT4hoLM7Q0anRlMxBoijpUWc3/iaRaagLAnFU221ziagtf9N2LHFo+W13GVsJTyPruQER8Ss05gAb/eNGa9eFr0O9YJNVSEQAWLbeXaPCPl8Y81OkMNTS5jEKWSNolPgDMWWXzBq723YcMjQFaG3x3kVyjG7U9sEjaJT4ANJeYjWGm7z5k6Brz0FLvu4vkaanX2b+IpCAAWMvFvnuQI9faqBDgUkt99XcqIpL8pwAMZ/puQYantREKOejo05MBR6ouW72kojN/ETkg8QHAwkRd64y/xnz1rvViqfoqVaor2QXa0u6gMqb6nH8+W/3dNeZ1zV9EflfiA4AkhwGa8tWXiIgMT+LvATCGHb57EBERiZrEBwBrWeO7BxERkahJfADAcpvvFkRERKIm8QGgUORWCxt89yEiIhIliQ8AS680g8Zwle8+REREoiTxAQBg2Xxzi7Vc57sPERGRqEhFAACYvpGrgGt99yEiIhIFqQkAS5aYYNkC8xUss3VPgIiIpF1qAsAByxaa2wq9nIRhLpaVwDoLPb77EhERqaVUrgS49EozCKx++TUki1dYLT4rIiKxl7oZABEREVEAEBERSSUFABERkRRSABAREUkhBQAREZEUUgAQERFJIQUAERGRFFIAEBERSSEFABERkRRK5UqAEk8WKJaqr1IFygFEbV1GYyCXgXwWGvPVl/HdlIjIQSgASCwUS9BerA76UWYtDFaqr95SNQyMbqwGARGRKNElAIm89iLs6Yn+4H8w5aDae0fRdyciIr9LAUAirb0I3f2+uxi+rn6FABGJFgUAiaxiKRmD/wFd/dWfSUQkChQAJJIs1bP/pGkvVn82ERHfFAAkkoqleF7zP5RyoFkAEYkGBQCJpCQPkkn+2UQkPhQAJJJKFd8dhCfJP5uIxIcCgERSJYHT/wck+WcTkfhI5UJAc1bZfHOJ2QFcZOAMYArQ5LsvERGRWkldAFi03F5iSlxjYYaWaI2ubAaChE6VZzXvJiIRkJoAMGeVzTaXuNrCF333IoeWz1aX002iQtZ3ByIiKboHQIN/vCR57fyGBP9sIhIfqQgAi5bbSzT4x0tjHuoSeKacyyQ73IhIfCQ+AMxZZfMGrvbdhwyNAVobfHfh3uhGbQ8sItGQ+ADQXGI2hpm++5Cha8xDS73vLtxpqdfZv4hER+IDgLVc7LsHOXKtjckIAS311Z9FRCQqkv8UgOFM3y3I8LQ2QiEHHX3xezKgLlu9lKEzfxGJmsQHAAsTdc01/hrz1bvni6Xqq1SprqgXRGxrvYypPuefz1Z7bszrmr+IRFPiA4AkhwGa8tWXiIgMT+LvATCGHb57EBERiZrEBwBrWeO7BxERkahJfADAcpvvFkRERKIm8QGgUORWCxt89yEiIhIliQ8AS680g8Zwle8+REREoiTxAQBg2Xxzi7Vc57sPERGRqEhFAACYvpGrgGt99yEiIhIFqQkAS5aYYNkC8xUss3VPgIiIpF1qAsAByxaa2wq9nIRhLpaVwDoLPb77EhERqaVUrgS49EozCKx++TUki1fYiC0+KyIiMnSpmwEQERERBQAREZFUUgAQERFJIQUAERGRFFIAEBERSSEFABERkRRSABAREUkhBQAREZEUUgAQERFJIQUAERGRFFIAEBERSSEFABERkRRSABAREUkhBQAREZEUUgAQERFJIQUAERGRFFIAEBERSSEFABERkRRSABAREUmhnO8GfJizyuabS8wO4CIDZwBTgCbffYmIiNRK6gLAouX2ElPiGgszjO9mREREPElNAJizymabS1xt4Yu+exEREfEtNfcAaPAXERF5RSoCwKLl9hIN/iIiIq9IfACYs8rmDVztuw8REZEoSXwAaC4xG8NM332IiIhESeIDgLVc7LsHERGRqEl8AMBwpu8WREREoibxAcDCRN89iIiIRE1q1gGQ+LNAsVR9lSpQDsBa311JnBgDuQzks9CYr760IJikVeIDgDHswHKc7z5keIolaC9WB32RI2UtDFaqr95SNQyMbqwGAZG0Sf4lAMsa3z3I8LQXYU+PBn9xrxxU31sdRd+diNRe4gMAltt8tyBHrr0I3f2+u5Ck6+pXCJD0SXwAKBS51cIG333I0BVLGvyldrr6q+85kbRIfABYeqUZNIarfPchQ2Opnv2L1FJ7sfreE0mDxAcAgGXzzS3Wcp3vPuTwFUu65i+1Vw40CyDpkYoAADB9I1cB1/ruQw6PvoTFF733JC1SEwCWLDHBsgXmK1hm656A6CtVfHcgaaX3nqRFagLAAcsWmtsKvZyEYS6WlcA6Cz2++5LfVdH0v3ii956kReIXAjqYpVeaQWD1y68hWbxCa8+JiEj8pW4GQOIhq3emeKL3nqSF3uoSSfms7w4krQp670lKKABIJGltdvGlQe89SQkFAImkxjzU6UxMaiyXUfiU9FAAkEgyQGuD7y4kbUY3antgSQ8FAImsxjy01PvuQtKipV5n/5IuCgASaa2NCgESvpb66ntNJE1SuQ6AxEtrIxRy0NEHg1qlTRyqy1YvNenMX9JIAUBioTFfvTu7WKq+SpXqim2BlmWSIciY6nP++Wz1PdWY1zV/SS8FAIkNAzTlqy8RERke3QMgIiKSQgoAIiIiKaQAICIikkIKACIiIimkACAiIpJCCgAiIiIppAAgIiKSQgoAIiIiKaQAICIikkKpXAlwziqbby4xO4CLDJwBTAGafPclIiJSK6kLAIuW20tMiWsszNAa4CIiklapCQBzVtlsc4mrLXzRdy8iIiK+peYeAA3+IiIir0hFAFi03F6iwV9EROQViQ8Ac1bZvIGrffchIiISJYkPAM0lZmOY6bsPERGRKEl8ALCWi333ICIiEjWJDwAYzvTdgoiISNQkPgBYmOi7BxERkahJzToAEn8WKJaqr1IFygFY67sriRNjIJeBfBYa89WXFgSTtEp8ADCGHViO892HDE+xBO3F6qAvcqSshcFK9dVbqoaB0Y3VICCSNsm/BGBZ47sHGZ72Iuzp0eAv7pWD6nuro+i7E5HaS3wAwHKb7xbkyLUXobvfdxeSdF39CgGSPokPAIUit1rY4LsPGbpiSYO/1E5Xf/U9J5IWiQ8AS680g8Zwle8+ZGgs1bN/kVpqL1bfeyJpkPgAALBsvrnFWq7z3YccvmJJ1/yl9sqBZgEkPVIRAACmb+Qq4Frffcjh0Zew+KL3nqRFagLAkiUmWLbAfAXLbN0TEH2liu8OJK303pO0SE0AOGDZQnNboZeTMMzFshJYZ6HHd1/yuyqa/hdP9N6TtEj8QkAHs/RKMwisfvk1JItXaO05ERGJv9TNAEg8ZPXOFE/03pO00FtdIimf9d2BpFVB7z1JCQUAiSStzS6+NOi9JymhACCR1JiHOp2JSY3lMgqfkh4KABJJBmht8N2FpM3oRm0PLOmhACCR1ZiHlnrfXUhatNTr7F/SRQFAIq21USFAwtdSX32viaRJKtcBkHhpbYRCDjr6YFCrtIlDddnqpSad+UsaKQBILDTmq3dnF0vVV6lSXbEt0LJMMgQZU33OP5+tvqca87rmL+mlACCxYYCmfPUlIiLDo3sAREREUkgBQEREJIUUAERERFJIAUBERCSFFABERERSSAFAREQkhRQAREREUkgBQEREJIUUAERERFIolSsBzlll880lZgdwkYEzgClAk+++REREaiV1AWDRcnuJKXGNhRlaA1xERNIqNQFgziqbbS5xtYUv+u5FRETEt9TcA6DBX0RE5BWpCACLlttLNPiLiIi8IvEBYM4qmzdwte8+REREoiTxAaC5xGwMM333ISIiEiWJDwDWcrHvHkRERKIm8QEAw5m+WxAREYmaxAcACxN99yAiIhI1qVkHQOLPAsVS9VWqQDkAa313lQ7GQC4D+Sw05qsvLaQlEm+JDwDGsAPLcb77kOEplqC9WB30pfashcFK9dVbqoaB0Y3VICAi8ZT8SwCWNb57kOFpL8KeHg3+UVIOqn+TjqLvTkTkSCU+AGC5zXcLcuTai9Dd77sLeT1d/QoBInGV+ABQKHKrhQ2++5ChK5Y0+MdBV3/1byUi8ZL4ALD0SjNoDFf57kOGxlI9+5d4aC9W/2YiEh+JDwAAy+abW6zlOt99yOErlnTNP07KgWYBROImFQEAYPpGrgKu9d2HHB4NJvGjv5lIvKQmACxZYoJlC8xXsMzWPQHRV6r47kCGSn8zkXhJTQA4YNlCc1uhl5MwzMWyElhnocd3X/K7Kpr+jx39zUTiJfELAR3M0ivNILD65deQLF6htedERCT+UjcDIPGQ1TszdvQ3E4kXfWQlkvJZ3x3IUBX0NxOJFQUAiSStMR8/DfqbicSKAoBEUmMe6nRGGRu5jEKbSNwoAEgkGaC1wXcXcrhGN2p7YJG4UQCQyGrMQ0u97y7kUFrqdfYvEkcKABJprY0KAVHWUl/9G4lI/KRyHQCJl9ZGKOSgow8GtdpcJNRlq5dodOYvEl8KABILjfnqXebFUvVVqlRXngu0LFNNZEz1Of98tvq3aMzrmr9I3CkASGwYoClffYmIyPDoHgAREZEU0gyAiKRWJYDOPmgvVv+1s1j9972lVy43FUtQHIS+QTiwE8hAGcovb36Uy1TvUQEwBhrqXrlM0pSHxjpoLsCoxurjki0NMOblf83oOop4pAAgIonXNwhbOmBHF+zeDzu7YNd+2Nsz/PtIygGUS6/8556Bw/v/ZTMwrhkmjoTxI2D8yOH1ITJUCgAikij9g7BhL2zaB5s7YEs7tPVA1O4XrQSwq7v6EvFBAUBEYq1nANbthhfaYP2e6pm+ng4ROTQFABGJlcBWB/lnd8EzO6uDvwZ8kaFTABCRyBuswNqd8OgWeGJ79cY8ERkeBQARiaRyAE9uh0c2w5M7qtf2ZWjmrLL51XON4pIclAKAiETK9i741Yvw4EbYf5h31MvBNZXYfdlyu8pkWX79PPOQ734kWlIZAOassvnmErMDuMjAGcAUoMl3XyJp1VuChzbC/Rtgp+6Kd2mUNVxhA65YvNw+ZTN8t1DHjUvnmi7fjYl/qQsAi5bbS0yJayzM0BocIn5t6YC7X4Bfb4JS2Xc3CWc4zVj+faDEPy1eYVdkA77x3UvNWt9tiT+pCQBzVtlsc4mrLXzRdy8iaWaBp7bD7c/CC3t8d5M+BpqBP65k+OPLVth7K3DtTfP5GcboWYqUSU0A0OAv4pe11Zv5/vsp2NTuuxsBsHBeBs5bvJKn7XJ73fQp3LzkPKO5mJRIRQBYtNxeosFfxI/AVq/v/3gt7Ov13Y28jlON4cZN21ly2XL7D8dMYbmCQPIlfjfAOats3sDVvvsQSRtr4ZEt8Fc/hRt+o8E/JqZbw/WbtrN+0Up7xZxVNuu7IQlP4gNAc4nZGGb67kMkTZ7YDn/9P/CfD2qt+5iaZizfaizxxOLl9n2+m5FwJP4SgLVcjG73F6mJnd3w/TXw1A7fnYgLBk7BcMeiFfYum+GLN80zT/nuSdxJfAAgwxmR2wZMJGH2D8AtT8IDG7QufxIZeA8BaxYtt9/OFfh/vjvX6DbOBEj8JQBrmeS7B5GkssAvX4S//Anct16Df5IZyBnDpysl1i9ebj+/ZIlN/PiRdImfATDR2wZcjpCluglMsQSlSnWteBvxv64xkMtAPguN+eorKVekdnTBjb/Vs/wpNBrDVzfN4sOXrbCfvmGBedZ3Q3JkEh8AMOzEMsJ3GzI8xRK0F6uDfpxYW93JbrBSXe42l4HRjdUgEFeVAH6yFv7nmfj9PcSpcy08vmiF/fvpk7lajw3GT+IDgLWsMXCc7z7kyLUXobvfdxdulAPY0wMt9dDa6LubodvWCd/5FWzu8N2JW02VAcaW9zNusJsxgz2MKvfSXB6gKehnRKWf5ko/OVuhIahurJezFQpBGb6wm4FKHeWg+rRcX7mecpBlf6mRnlIjvaUGesqNdPY3s7dvVPVVbKV3sN7nj+tS3sA/btrO7Mtvsou1tHC8JD4AYLkNw8d9tyFHJkmD/6t1vfwzxSUEBBZ+9hzc+mS8z/pHlPuYWmpnSv8+pg60M6W0j/Glrv8d2I9EITtIIVvdq7iprvqHndC07w3/P33lArt7R7N1/wS27T+KbfvHs6V7PD2lmLwhft+ZFcOji1fYJdM2cM2SJSbG75L0SHwAKBa4rWmAjVoLIH6KpWQO/gd09UMhF/3LAR1F+OZDsL7NdydDk7GWqQP7OLZvF7P6dnFs/y5GD/b4bguAhtwA01p2Mq1l5+/89+39I3mh/Rg2dE5hffvRbNs/nsDG5K4RQwH4l03HcsEnvmcXXv9xo4dBIy4m76zhWbzSfhjLj3z3cTCfnV3xctz/uNXtAl83zHdaDgts74z32ebhyGVg8qjofhCf3A7feRh6Bnx3cnjGDXZzWs8WTu3dygl9OygEg+Ee8Au7Qy3fX86zrn0aT7fN4um2Y2krjgr1eM5Y2ozhEzcsMD/13Yq8vqh+7zi3aLm91hi+5LuP11IAOLjeErRF42QtdOOaoSliswCVAH74BPz8uWg/RmOwzCru5qyeFzmtZzMTBmu8zX3IAeC1dvWO4am2Y3l050ls6JiCjfZXuLWWf50+hb/QDYLRlPhLAAdM38hVm2ZhgS/77kUOrXjkl2Rjp1iKVgDo6oNvPBjdKX9jYUb/bs7Zv5Gz92+ktZyeTQYmNO1jQtM+Lpz2a9r7R/LIzpP57c6TealzUhTDgDGGL23azlkLb7IfXX6p0QOjERO5d0zYFi+3F1vDtQZm+e4FNAPwerZ3VR+dS4O6LExu8d1F1Yv74D8eqF73j5pR5SJv717HuZ3rGDcYkQ0GajwD8Hr29I7mgW2n89C2N9M10Oy7nd9jYZuBOcsWmF/77kVekboAAHDFt2xdqZmLCbgIw5kWphjw8qlRADi4LR3pWVUuY+DoVt9dVLfsvemRaAUvg+XU3q2c2/kcp/duJmMjdlNIRALAAZUgwxN7juf+rWewdu9MbJRuILQMGMMnb1hgVvhuRaoi9O6Ih8Ur3K49pwBwcAoAtWOB/34K/vtpfz28Vi6ocE7PRv5o3+NMKkV40YGIBYBX21Ns5a5Nb+H+rWdQqtT5bud/GfjaMRv4gh4V9C819wBIvGQzEEToTDRMWY8rqg9Wqnf5/3azvx5ebUS5j3d3ruX8rmcZUe7z3U6sHdXYwbyTfsYHZz7IPVvO5u7NZ0dinQELf7p5FhPmrLKLV881+iN7pAAgkZTPRmsqOkwFt5Mxh623BF+/H56PwK1ZTZUB3tPxNO/teGpYi/LI7xtZ6OXiY+/j/TN+yd2bz+H2jW+jd7DBa08W5jaVOObSG+0f3bTIvPGqSRIaBQCJpMZ8dYBKgwYPTwC0F+G6u2Gn53vpGiol3tv5FBe2a+APWyE7yAdm/JLzjn6Un7/0B/zipbfSVy74bOktmQz3LFhu37diodl56H9cXNN2jhJJjfnq3fFJl8vUfiXAPfvhX37hd/DP2IB3d67lmpdu5qK9j2rwr6GG3AAXH3sf17zra5x/zCNkfF6KN5yWM/zy8uU2Ek9lpY0CgESSAVr9zlLWxOjG2t6Ju6ML/t+7YK/HR+dPKm7n7zb/kAW7H6K5kuC1niOuOV9k4cm384/nfpPTxq332cr0iuGhy2+yp/hsIo0UACSyGvPVXfOSqqW+tmf/m9vhX+7094z/2MH9fH77HXx560+YMtDupwn5PROb9vKFs2/mT8/8PmMaaryS4ivGVzLctehme7KvBtJIAUAirbUxmSGg1tsBb+2E6+7xs6a/sfCuzmf5h02reHNPRB43kN9z+vjn+edzv8EHZvySjPHyDO54U+HeS2+2p/k4eBopAEjktTbCUc3JuCegLlv9WWo5+G/vgmvv8jP4Ty6181dbb2XR7geoD3tjHhm2fHaQOSfcxV/8wfVMbvawFrRhnAm4+7IV9qTaHzx9FAAkFhrzMKnllY1z6rLVBXSiLmOqvTblq71PaqnttP+ubrj2bthf48HfYPlA+xMs2fRDZvZFd7EcObhZo7ax5G3f4n3Tf4Wp8WyAgbEWfrHwJju9pgdOIT0GKLFhqA6kUdo4J8o6itVp/64aL7XSUily+c57ObV3a20PLE7lshU+euKdnDZuA99+6mI6+kfW8vCTsxnu+sT37Duu/7jZUcsDp4lmAEQSqLcE/3oP7Kvx3f5n7X+Rf3rpBxr8E+TEsS/x92//L86csK7Wh54RVPjFvJU2AjtlJJMCgEjClCrw7/dVr/3XSsYGzNn7G/5kxy9oqni42UBC1Zzv47Nn/IBFp/6UbKam6wacnLfc9rmvWa8rFiWVAoBIglgL//UQrK/h/VstlSJXbf0JH9j3eO0OKl68a+oavnzOTYzM13Rq6dzu0dwQra0Nk0EBQCRBfvgEPL6tdseb1beLJZt+xHF9Wsk1LY4fvZklb/8WM0fV7o1m4OOLV/LPNTtgSigAiCTEr16C25+t3fHO2v8iX972U0aVPS4rKF601u/nz9+yjLdOquke0n++eIX9RC0PmHQKaOdUTgAAIABJREFUACIJsKENbvh17Y53QcfTfGbHneSDcu0OKpGSy1a44s23cNGx99fysN+4dKU9p5YHTDIFAJGY6+yD/3gQyjW4NytrAy7bdR/z9vwSg5fV4iRCDHDxsfex6NSf1mpToXpj+dHiG+yEWhws6RQARGIssPDNh2rzrH+drfDZHT/n3K6aPw4mEfeuqWv47BmryGUqoR/LwBSbY/WSe63WsRkmBQCRGFv9OLywJ/zj5G2Zz2+7Q2v5y+s6ffzzfPHsFRSy4W/tbAxv37SNfwz9QAmXygQ1Z5XNN5eYHcBFBs4ApgBNvvsSGYo1W+Hnz4V/nIagxBe2386xxV3hH0xi7YQxm/i/Z6/kq4/Oo68c8qP7hq8sXmkfWDbf3B7ugZIrdTMAi5bbS5pKPGfh+wY+DhyPBn+JmfZi9aa/sK/CNwQlvrz1pxr85bAdN3oLX3rLchpyoS8IZazlxk+usFPCPlBSpSYAzFlls5etsNcZww+BGb77ETlS1sJ3flVd7jdMhaDMF7bfzvT+GlxjkESZ0bKdPzvrZvLZcHeANDC2DMuXLLGpGctcSs0vrbnE1Ra+6LsPkeH62XPwXMgb7OVswGd2/EJn/nLEjhu9hc+f9X3qMqE/KvquTTP5s7APkkSpCACLlttLNPhLEmzpgFueDPcYWRvwJzt+zmm9W8I9kCTeSWNe5NOn/zD8RwQN/7ToZntyuAdJnsQHgDmrbN4YrvHdh8hwVQL47sPhP+9/6e4HdLe/OHP6+OdZeEro9+nVZyosv+Jbti7sAyVJ4gNAc4nZ6Jq/JMDtz1ZnAML0wfbH9Jy/OPeuqWv4wIxfhnoMazh9oImvhHqQhEl8ALCWi333IDJcu7rhJ2vDPcY5+zfy4b2/DfcgklofOeEu/iDkvQOM5a8X3mRPDPUgCZL4AECGM3y3IDIc1lan/gdDXGRtVt8uPrXzHoxW95WQGOCy034c7i6ChkLW8E1tHXx4kh8ALBN9tyAyHPdvhA17w6vfUinyJzvuJGfDX8ZV0q0uU+ZPzljNyHyIO0ga3rnoZrRr4GFIfACw1eApEku9JbjlifDqZ2zAp3fcqS19pWZa67v53Jk/IJsJ725WY7nm0hvtmNAOkBCJDwDGsMN3DyJH6pYnYX+IC6p9rO1hji/uDO8AIgcxq3Urc46/K8xDjM5m+ZswD5AEid8LwFrWGDjOdx8iQ7WlA+5bH179s/a/yAUd4d6UFUt1ORjTAmNGwdhRMLYFRjZBYz001Ff/91y2+q8Ag2WoVKBchv5+KPVBqQcG94LZC3V7oXkPZMJdFS9u3jv9YV7oOJrHdp0QSv0APrPoZrv0xnnmmVAOkACJDwBYbsPwcd9tiAzV9x+rbvcbhtZyL4t33x9O8TgxwLjRMGMSTJ8ME8dCSzOYIVw5rMu9HAYK0Pw624pYC9090LUbBjZD/QZo1iqLl53yY17smEznwAjntU11QcuvAhc4L54QiQ8AhSK3DjSxwcAs372IHK6ndsBzIY0PBsundt5DUyX0zVqiqbkBTpgOMybDtEnV/xw2Y6BlRPXFLODd0FuEvVuhtAman4H6/eH3ETHN+T4++abb+NdHFoRy476B91y20r73hvnm586LJ0Di7wFYeqUZNIarfPchcrishR+GeOPf+9uf5MTi9vAOEEW5LBx/DHz0AvjiQvjQuXDKzNoM/q+nqRGOOR6OfS+M/wIUPwF7z4JK3l9PHpw89kXeO+3X4R0g4F+0WdDBJX4GAGDZfHPLouX2OmP4ku9eRA7l15tga0gr/k0utTM7TYv9TDkKzjwRTp4B9SHvTz8cGQOTpwJTof89sOMFyDwKLenYj+GS4+7mqbZj2dEz1nltazh980w+CnzPefGYS00qmr6Rq4Brffch8kYqAdz6VDi1DZbLdt1Pzoa8mUAUHDMB5r8frvhwNQBEefB/rfoCzDgVpl0GA1fAvuTvcZPLVlh86o8xIa1EZeEftE/A70tNAFiyxATLFpivYJltYYPvfkQO5uGXoK0nnNrv6VjLzL6Q9xH2beYU+NRsuPzi6pR/3E2YCLM+AuXPwL43QYJXajy2dSvnHf1oOMUNM0vNzA+neHylJgAcsGyhua3Qy0kY5mJZCayzENJXrsjhCyz8NKQHlsYO7ueSJE/9Hz0BPv0RWPRBmDredzfujRsHsy6Gyqehc5rvbkLzkePvprW+O6zyfzFnlc2GVTyOUnEPwGstvdIMAqtffg3J4hU2wRlcfPrtZtgd0o3g8/c8RCFI4HPoDQU47yx4yylDe3QvrsYdBWMXwebnoPA/UJ+sFRwbcgPMO+lnfOOxue6LW45rHmAuuhfgf6VuBkAkiizh7fZ3Su9W3tyzOZzivhjgzcfB5z8Obz01HYP/AQaYdiK0fg72vgMStu/NWROe48Qxm0KpHRj+UhsFvUIBQCQCntoOO7rc183YgI/tedh9YZ9Gjahe4//w+dXV+dKqvgDHng+lT0LfaN/dODX/5NvJGPc3qxo45dKVvM954ZhSABCJgF+sC6fu+Z3PMrnUHk5xH44/pnqt/+gJvjuJjgmTYMyV1ZsEE2JycxvnTn08lNoZ+LNQCseQAoCIZ9s6w1n1r6FS4qJ9Id1VXWuZTPVa/7z3Va/7y+8q5GHmxdDxIagk4z63Dx93D/W5UhilL1h0s03+s5WHQQFAxLOfrwvn6a73djxJc6U/hMo11tIMn7y4GgDSdK1/qAww43SofBL6Wn13M2wj8kUumPabMEobE/D5MArHjQKAiEe9JfjNJvd1myoDXJiEnf7GtVYH/ylH+e4kPsZPgJGXw/5JvjsZtvdO/xWNdaGE2PlXrLItYRSOEwUAEY8efgkGK+7rvr/9CRqCUKZPa2fKUXD5RdUZABma5iY46lLonO67k2FpquvnwnD2CWgcHGReGIXjRAFAxKMHNrqvOaLcx3s6Y372P3MKLP4/6b7Lf7jqCzBlHrSf5LuTYblw+q9pzvc5r2stVzgvGjMKACKevLQvnE1/3t25lkJQdl+4Vk47FhZ+APJaun3Y6nIw/RLYe7rvTo5YQ26A8495JIzSb/7ETfasMArHhQLA0DmdVx2M8fe0DM+DIZz954My53c9675wrRx3DHz4vOpd/+JGJgMzPxjrmYB3H/Nb6jLuvywrhk84Lxoj+pQNndN9A3rdz2xJDFQCeCSEnV7f1vU8I8oxfVNNOQrmXqDBPwyZDBwzO7b3BIzM9/KHk91vk2kMH52zyuadF44JfdKGzulq7Xu69FhTGq3dCT0DbmsaCxfE9dr/UaNh4R9BPpXbk9RGLgcT5kJPPDdLet+MX4WxXfDoxgEucF00LhQAhm6ny2Iv7VQASKPfhLA0/6nFLUwsdbovHLaWZrj0j7TATy001MOoBbFcJ2BC0z5OHvOi87oGPu68aEwoAAzd8y6LvbjD0JWsDb3kEEoVeHyb+7rndj7nvmjYspnqtP/IJt+dpMeIZsh9NJYrBr7z6DXOa1rDRVd8yzY6LxwDCgBDZBwHgEoAv1qrP0OaPL0D+h3vzDuqXOT03hju+HfhW2FqPKekY+2o8dAZvz1xTj/qeUbm3Z4xGWgeaOQ9TovGhEaeoTI85rrkxh2Gx9brUkBaPLHdfc23d68jY93vnhaq446Bt57mu4v0mnkW7DvFdxdDks0EvG3Kk87rGviQ86IxoAAwRHU9PIjjRwEBHn4moxCQAtZWZwBcMhbO7QxpO8GwtDRXH/fTW94fA0z5IBTjdT/AuVOdn4OB4YNLltjUjYep+4GHa+mVpgg436HC2uqlgNt/k6HL6YOGEiUvtUOX46f0ZvTvZtxgt9uiYTIG5rxHq/xFQX0BMpeEsxtVSCY07WPaKMcpGsa/eBxvcV006hQAjoTlR2GVfnGHYeXdWe74bYbntxk6erRYUJI8GcL0/zk9IawoFKazToSjJ/juQg6YOBn2neO7iyF5y8RnnNc0AR9wXjTi9NDtEahYvpc1XAuEslZpEMDG7YaN2+MzP3rZSt8dpJPBcnZ3jAJAYz28O16DTSpMOQ+6noVCPKYfz5m4llXPvQfr8BpSBt4N/LWzgjGgGYAjsPxSs8fAHb77EJlV3E1rOUbPkb73rZr6j6KGeijGZz2c0fXdzBzldjotgLPTtkWwAsARMhmu9d2DyFk97hdGCc3RE+DNJ/juQl7P9FOhc5rvLg7bmRPd7nlhIDcwwDudFo04BYAjdP088xCW+333Iel2Wk9Mnv03wB+9XXf9R5kx0PR+310cttPGbXBeM2N4t/OiEaYAMAw2w98Qq/tnJUnGDXYzYbDLdxuH57hjYOJY313IoRx1FLTHY5ZmUnMbYxrcvv8tvM1pwYhTABiGG+ebByzo9jfx4rSeELYTDMs74rsffeo0x2cW/FTHswAW3rTwJpuadakVAIapLsOXgA7ffUj6nNq71XcLh2fGZD32FyfjJ0DHTN9dHJbTxq13Ws9ALpPlTKdFI0wBYJi+M8/sNnApuhQgNZSxluP7nC+GEo53nuG7Axmqwrm+OzgsJ4zZRMbxFsHG8odOC0aYAoADNywwPzXwdd99SHpMHdhHfeB4R6EwTDkKpk/23YUM1eSjoeto310cUkNugMnNe1yXPdt1wahSAHCkJ8+XMdzpuw9Jh1n9u3y3cHjOPNF3B3KkgnjMhM9qdXwpzPImtwWjSwHAkdVzTSnfw8UGHvbdiyTfccWdvls4tFwWTp7huws5UpOOh0rWdxeHdOxoxzfDGmbMX2FHui0aTQoADi290hTrMnwIeMR3L5JsM/t2+27h0E6YVt1sRuKpvgCdJ/vu4pCOdT0DACabIfo/uAMKAI4tnWf2NuY5H/iF714kmUaU+xhTjsGa7W8+zncHMlyF6M+Gj23opDnvdovNTJCOywAKACH4z7mmpzfP/8Hw7+jpAHFsaqnddwuH1tQAM6f67kKGa/I0GGj23cUhTR3hfEbseNcFo0gBICSr55rSsvnmz7B8GK0TIA5N6d/nu4VDO3E6ZPX1EnuZDOw/xXcXhzTFcQCwMMtpwYjSJzRkyxaa27J5ZhnLUjQbIA5MLcUgAMzQo3+JUYj+okBTRrh9FDAD0f+hHVAAqIHvzjXtNyw0V2J5J3Cf734k3qYMRPwSgAGmTfLdhbgy/mioRHuomDLS8QyAZcacVTb6j0AMU7T/qgmzbKF5cNkCc56FtwP/DcRgJReJmvFR3wBo3GhobvDdhbhSyMP+aC8KNL7R8ayYodDQT+KnsRQAPLhxgfnlsgXmYpNnMvCnwH1YBnz3JdHXVBmgoVLy3cYbm6Gz/8QpT/PdwRtqquunIef2KzRrmOK0YATlfDeQZjfMNW1UlxD++pxVtmHEIG8LLGdZw3EZywkWxgOjgGYg77VZiYSx5f2+Wzg0Lf2bPIXoj4XjGjvY0u1u06kAJjorFlEKABGxeq7pA+56+SUJcdlK+wVr+TdX9cYNdrsqFZ6JY313IK61jIPAdxNvbGxjp9MAYAyJn8rSJQCREAWW0S7rjS1FfAagLgct0X9uXIZo5AgI6nx38YbG1nc6rWdTMAOgACASIgNOT4dHVtyueObcmBYwxncX4pox0BvtmZ2WeserYxrcTSdElAKASIis4wAwIuoBYOwo3x1IWErjfHfwhprzRaf1MpbEv5kVAERClIExLus1V/pdlnNPASC5bLRnAJpzbsOxNbQ4LRhBCgAiIbK4vQeguRLxp0XHJP47M73qnGZZ50YU3M4AYBUARGQ4LE7viIv8DMBI3QCYWPkRvjt4Q011bgOARQFARIbBGgou6xWCiC8e2VjvuwMJS120V3csZN1+Ngxuw3sUKQCIhMhYtwEgF/WHsRuc/rgSJfXRDnd12bLzkq4LRo0CgEiYjNsVHHO24rKce/nEf2emV120/7ZZ4/yzEe0f2AEFAJFwOQ0AWRvxGYCsvlISKxvtzfHqMs4DQOKXX9enVSRc6ZoBiPggIcMQ8b9tLqNLAEOlvQBEROSw/E3b+b5beH1WK1AOlWYARMLldO/eson2WRiViM9QyJGL+N/WBs4DQMQX3Rg+BQCRcDkNABUT8Y9sJeL3KMgRs1EPAO6HMwUAERkGm7IZgFLE1ymQI2ZLzq+xu+V+BsDpZzeKFABEQmSN27OIctQ/sn0RX6lQjlilP9onxEGgGYChivi3iUi8Gev2S2QgE/Ebk3sVAJKqXIr2eGgDt7NjVjMAIjJMvS6L7c9GezU29jv9cSVC+gYiHgAqbh9qM9DjtGAEKQCIhMgY9rms1xP1ALC3y3cHEpL2/miHu/Kg29kxC3udFowgBQCRELn+Eol+AOj03YGEZFfEt6IOym4DgLEKACIyPCmbAVAASKotJl0BAMezd1GkACASIuM4AHRno70lK+1dYK3vLsQ1a9lUF+11ACqOLwFgaHdbMHoUAERC5PoSwN78CJfl3BssQ1fi751KnaCrh/5MtINdpeR4dszS5rZg9CgAiITIWHa7rNdWN9JluXDsSPyl09Tp7Yz+pZ3ygNsAYGCP04IRpAAgEqJKlk0u6+3NRXwGAGDTdt8diGPbe6L/dEd5oOC0XsXwktOCEaQAIBKioOI2APRmC/RlI75N+Ys7fHcgjq0Lov0IYFDJOV8HIFunACAiw7BiAbuAPpc1d9e1uCznXls79BR9dyGuDJR4uhDtRfHKfc5vju29YY4eAxSR4TDGAptdltxaGOOynHsWeEmzAEnRvWM3g8732XGr1NfkuuSmlz+7iaYAIBK+TS6LbSuMdlkuHC/qPoCk2NgT/afhBh0HAEvyp/9BAUCkFta7LBb5GQCAdZugEvjuQoarEvBALvqPdQ4W3QYAAxucFowoBQCR8D3tslgsAkBvH2zY6rsLGab9W3ewLxv9IDfY1+i0nrE85bRgRCkAiITMBG6/THqy9ezLNbssGY4nX/DdgQzTk93RfxS+XKp3vgywNax1WjCiFABEQlaGtYDT06gNDRNclgvHuk3QH+314+X12f4B7s9H/2mO0n7ni2NV8r0847poFCkAiIRs+aWm18KLLmuuj0MAKFdg7UbfXcgRatuylYGIL/8LMOA+AGxYeqWJfvJxQAFApAYMbi8DrG+MQQAAWLPOdwdyhB4ciMdj8AM9zgNAKq7/gwKASE1YeMxlvW35MfRnHO9+Fobte/RIYAwVt+7gycKg7zYOKSjnGOx3vgaA089qlCkAiNSAsfzSZb3AGJ5vnOSyZHjuT833aWLc27HNdwuHpX9/S3XhKYcyGR5yWzG6FABEaqC3wG8Ap+upPtV0tMty4XlpO2zZ5bsLOUwDO9v4TX08bt4c6HK8KJZlIBjgUbdFo0sBQKQGVs81fcCTLms+HZcAAPDA4747kMP0YNsm3y0ctr6uVrcFDWuWXWb63RaNLgUAkdpxehmgrW4Eu/KjXJYMz/rNsKPNdxdyCKVdbTxQH4/xb7CvkUrJ7RbAhvRM/4MCgEjNGMcBAOCp5pjMAljgJw+Cjf5jZallLbe3OX1aNVT9rqf/AQy/cl80uhQARGqkLsN9QMVlzUebZ7gsF67te+Dx5313Ia9jz/oXeSzi2/6+WrFjrOuSlUwdD7ouGmUKACI1snSe2QtubzDaUD+BfXUjXJYM188fhmI8ppjTxPb1871yfG7ULA8UKPW4fd9by8PfnWuiv/WhQwoAIrVkuMNlOWvg0ebpLkuGq28A7vyN7y7kNR5bv459uehv+nNAsWOc85oGt5/NOFAAEKmhIIQvmd+OnOW6ZLgeWweb43O2mXT923fzk8J+320MSV97KAHgZ86LRpwCgEgNzVjPo1ic3g7/UuEo9tS1uCwZLmth9Z26FBABtm+A5Z0bCYzvTg5fub+BUq/z3TB33bCA1D2rqgAgUkNLlpgA4/ZMwxp4YNQJLkuGr7sXbrnH+SpuMgQWHly/lq11Tu9LDV3P3lD2wfgZxqTu3agAIFJjxvAj1zUfHHkCFROzj/MLW+BXTtdGkiHYum4dd9XHa9M7aw3FvePdFzasdl80+mL2jSESf837+BnQ5bJmd66BJ5qOcVmyNu78jZYJ9mBgVxvLsvFbmKmvcwyVQeebYHX01nGX66JxoAAgUmNf/1MzYAz/7bru/aNOcl0yfEEAq+6Erh7fnaRG0N3D9e0vEP29/n5fb1so0/+3rp5r4rMAgkMKACIeBAGrXNdc2ziVHXnHa6PXQncvLPsJ9Pb57iTxbLGflVvWsjNGj/wdUO5voL87hPe35fvui8aDAoCIB4UivwCcLjpiDdzZeqrLkrWzrwtW3gGlOJ6XxsRgmZ9ueJL1+Xj+jrt3TnV+06iFvdOmcK/bqvGhACDiwdIrzSC4v/HoVyOPozvb4LpsbWzbA9/7OVTid3YaeZWAu597gkfq4znTXRnM07svlGf/f7DkPFN2XjgmFABEPMkEfMd1zVImxz2jTnZdtnY2bmPbAw8rBLhUCXj42Se5vz6+l1j2754E1v1wFWT5rvOiMaIAIOLJ9ZeaR411v/jI3a2nMJBxfqd0Tdx72jiWTg74xTOP6nKAC4Nl7nlmDXcU4nuTpa3k6N0zMYzSj9z0cZO6xX9eTQFAxCNr3M8C9GTruXNU/O4FuPe0cdx72lEAPFQ/wC3PP4bVaoFHzPYN8JPn1nBffbx/h927JhNUcs7rhvHZixsFABGP8nlWAr2u694x5k30Zguuy4bm1YP/AU8UStz84uME3fE9e/Ul6O5hxcY1sb3mf0BQztGzZ1IYpXvLKb77/wAFABGPls41Xda4fySwmClwZ+tprsuG4mCD/wHP58t8e+tTlHbFb9EaXwZ27uFb255kfT5eS/weTPeuKQRl92f/WL6/coHpdl84XhQARDyzhq8Swqr4v2g9lZ5sveuyTr3R4H/A9roKV3etY+vaZ6sbCcnBWdjxwgau2f98LJ/zf61gsI6e3aGc/dus5athFI4bBQARz26aZ54C7nRdty+T59axZ7su68zhDP4HDBr4dn4fdz/5CFYLBv0eW+zn3qcf5b/YGcsV/g6mc/s0bJB1X9hyx3cvNWvdF44fBQCRCLDwr2HUva/lJLYWxoRReliGMvi/2v2NA3x70+P079gdQlfx1L99N996aQ33xvgxv9cqFZvoDWPTHyDIcF0ohWMoRrtAiyTb4hX2ceDNruueWNzOV7b+xHXZI3akg/+rZSx8sNTMmTNOwDTFdOGjYbJ9Azy38QVW1XUQmGR9le9ZdxoD+1vCKL1m2QJzVhiF40gzACIRYS3/Xxh1n2uczOPN08IoPWQuBn+AwMCPCz18dcsadj6/HoIU3RtgoX3jJr626VG+n+9M3OBf7Bgb1uCPseHMtMWVAoBIRBSKfA/LxjBqrxz/dvo9Lw7kavB/tY6s5ZtmF7c981tKu/c6rR1FpV1t3LL2N3y1spV92fjf6PdaQSVL55YZYZVff8wU98tvx1myoqNIzF22wi6ysCyM2hd0PM28Pb8Mo/QhhTH4H8w5AwXe3Xo0DVNC2TbWm4Gde3i4bQv3FfoIEvyt3bFpFj1toaz6h7HMu2Gh+V4oxWMqhAcsReRI9eRZ0VTiz4ETXNe+q/UUzt6/kWP7drku/YZqNfgD/LYwwG+L6znn6S28q2UyzUdPrslxwzKwcw/3t23iofoBiPYTncM20DOSnr3hDP7AM8ds5AdhFY+rBGdJkXhavNJ+DEsoZyqTSh383abV5Gxtpo9rOfgfzJsH8ryjfixjp07B1MdjZUTbN0Db1m08ONDGk4WkPNR3CEGGXc+czmB/YyjlreUjNy40PwqleIxpBkAkYqatZ9WmWfw58CbXtXfkW7ll7DnMbfu169K/x/fgD9XlhJ+wOyhs2snbSvWcMeIoRh49BbIRu/0psPTt2MUzHbu4q66HYgaIR15xomPbtNAGf+Dp6Ru5NazicaYZAJEIumyF/aCFUJ7dM1i+tPWnnFTcHkZ5IBqD/+sZU8nwznIzM0aMZuTE8VDI+2lkoET3jt282NPO/dke9iVg9b4j0d/VStsLp4RW3xjed8N88/PQDhBjCgAiEbV4hb0DeF8YtVvLvfz9ptU0V9zvFBflwf+16iy8aaDA8ZlGJjWPomlUC5mWZnD9aF1gCbp76O3sZHtPF88HvTxZX6Ls9iixE5Tr2LX2DCqDIYUwy0+WLTQfCqd4/CkAiETUZSvsSQE8aUK6VHfm/pf47A63J0ZxGvxfTyEwzCznODrIMz5boLXQSEN9A3WFPJn6AqYuh8lkIP/yY5WlQWwQYEtlKgMDlAdK9PX30TFQZFelny2ZQV7MlRnIpGitgsO0d/1J9HWGtlJlKahw6k2LzAthHSDuFABEImzxCvs14HNh1f9426+4sP0pJ7WSMPhL7XTvmkLX1umh1beW625caL4c2gESIGJ3wojIq5UMf2shtBVufjD2raxrHP6Oaxr8ZSj694+ia+u0MA+xp1DgH8M8QBIoAIhE2M3zTQeGvwqrfmAyfHPiBXTkmo64hgZ/GYpKqcC+DScQ6gS04aqlc01XeAdIBgUAkYi7cR7fxnJ/WPW7cw18Y9KFDJqhb72qwV+GwgYZ9m44kaAc3rLUFu5aNo8bQztAgigAiESdMZYMnwJC2+91Y8N4vj3xfOwQzso0+MtQtW86llLviDAPUSTHH2OM7rg8DAoAIjGwbL5Zb+AfwjzGIyNm8qNx5xzWP6vBX4aqc+t0ivvCfc8Yw9/e+DETyoZaSaQAIBITx0zmWuCxMI/xP6NP555RJ7/hP6PBX4aqp20C+3dNCfswT9b18O9hHyRJFABEYmLJeaacsXwCy0CYx1l51Nt4vHnaQf83Df4yVH0dY+nYPCvsw/RnAxYsvdKkZPMENxQARGLk+oXmSeAvwzxGYDL856QLear56N/57zX4y1D1d7Wyd+PxYMNdcsZYvvzdS83aUA+SQFoISCRurDWLV/BTDB8I8zD5oMz/3X47xxd3aPAF68N/AAAKF0lEQVSXISv1jGTP86dgg6E/XTJEP182n/frxr+h0wyASNwYY8vwyTAXCAIoZXL8++T3sfrU4zX4y5CUekbQ9kJNBv/duQyLNPgfGQUAkRhasdDsxHI5EOoXX18mz88q5zKwvyXMw0iCDOxvoe2FUwkqoQ/+FsMnvjPP7A77QEmlACASUzcuND82cG3YxwkqWdrWn0J/d2vYh5KYG+geRdsLJ9di8MfCPy2bb24P/UAJpgAgEmPHbOAvgND3OreVDHtfOJm+jrFhH0piqq9zNG3rT67FtD/A3cU8S2pxoCTTTYAiMXf5Kju6UuJRILyt1Q4wltajN9J81M7QDyXx0ds2gfZNs6jRkLIln+HMpfNMqPfApIECgEgCXPo9e3qmwi+Bhlocb8T4HYyaulHfIELX9mPo3nH0of9BN/ozAe+4/lLzaK0OmGS6BCCSADd93DyO4TO1Ot7+3ZPY9+IJ2EBfIWl1YGOfGg7+1sCnNPi7o0+vSEIsm2+WYcLdL+DViu3j2PP8aVRKhVodUiKiUiqwZ91pNb0nxMKSGxaYFTU7YApoAk8kSaw1i1dyI7CwVofM5AYZO3MdhZGdtTqkeDSwv4W9G08gGMzX7JgWvnfjfObreX+3NAMgkiTG2HwvlwN31+qQQbmOPS+cUovNXsSznt2T2fP8qTUd/LHcP7KdyzT4u6cZAJEEunyVHR2UeMjCibU8bmPrPlqnrSeT054sSRKU62h/6Vj6OsfU9LgW1ppB3rHsMqPppRAoAIgk1KU32smZLA8AM2p53ExdiTHT11Pf0l7Lw0pIBrpHse/F46nU8qwfwLIxk+Pc6z9udtT2wOmhACCSYAtvstMzGR4wUPP5+RETtjFq8mbIBLU+tLgQZOjYNo2e3ZN9HH1L1nDud+ebzT4OnhYKACIJt3ilPRbLA8CEWh87V99H67QN1I/QDG6cDPSMpGPTsQz2Nfo4/B4yvHPZPLPOx8HTRAFAJAUuvdmelgm4Fxhd84MbaB63k5YpL5HJVmp+eDl8tpKjc+s0etom+mphH3DesgXmaV8NpIkCgEhKvBwCfgGM93H8bH6AUVNfpHG0VnCNomLHWDq3zKRSqvG1/lfsAi7U4F87CgAiKfKJ5fb4wHAnMNVXD4URXYw6eiP5xl5fLcirlIrNdG6Z4XvL5y0Y3rNsvlnvs4m0UQAQSZmFN9np2Qx3UeOnA36HsTSN28WoyZv1yKAnwWAdXdun0bN3Anh8wt7ChpzhPbrhr/YUAERS6NIb7eRsljtrvU7Aa5lshRHjtzNiwnYy2bLPVlIjqOTo3jmFnt2TarV17+uysLZiuXDFQqPtJT1QABBJqXkrbWvecgvwLt+9mGyleqPgpK0YBYFQ2CBLz56JdO+cSlDO+W4HDPdQ4hIt8uOPAoBIin3ua7awv5XvYpjvuxeo7ivQfNRORhy1g0ydLg24UBnM07NnEj27JxJUIjDwV93Ym+eK1XNNyXcjaaYAIJJ21prFK/hbDH9DRL4TjLE0jm5jxMSt1DUUfbcTS+X+hurA3zYhSts2Wyx/v2wBf6e1/f2LxIddRPxbvNIuJuC/MERnf18D9SM6aBq3i8bWfaAx4w1Za+jvHENP2wT6u1p9t/Na/QY+pS19o0MBQET+1+IV9mzgR3h8TPD1ZOpKNI/ZQ+O4XdTV9/luJ1LK/Q307J1Ace94KoN1vts5mE3GcskNC81jvhuRVygAiMjvuPRGOyaT43tYLvDdy+upayjS0LqXpjF7yKU0DFRKBfo6xlJsH8tAz0jf7bwuA/eWAz62/FKzx3cv8rsUAETk98xZZbNNJf4F+BIR/54oNHfT0LqP+pb2xN8vMNjXSH/XaIodYyn1jPDdzqFYA//ck+dvV881WgM6giL9wRYRvxYttx8y/3979xdaZR3Hcfz9fZ5zzs4255/8E0GUCnpjWRZdlIIEUkjeiZpaU4foRUReRHoVg5I0CiKCUFxOprOUrhL7gyCFeVOKhQlFMi8imKnppvPs7HmebxcOIsi5zbnfOdvndbWLc/HexXY+cM7v98AejOmhWwYjLvRSnHyF2kl/U2y4VvVHCrMkR6l7Er3X7qPUNYWkt3K+nnEHnRhNrWvtaOgQuT0NABEZ0Ett/kDO2As8H7plSAwKxRsUGrooNHRRnHCNuNAbumpASblIuXsipe6JlK9PpK9UH/SWvmFxjuZimvassc7QKTIwDQARuTN329DOFs94p6JOCQxRFCcU6q6Tr+shX3uDfN0NcsWbo34LYZbmSEq1lHvq6btZT9JTR7lnQiWd0x+OEvBG61o+0hG/6qABICKD1tju8+OUVjcWhG4ZSRYn5Gt6iWtK5AolokKZONdHlEuIc31YnGBRdutxxuaYORbd+ljbsxh3AzeyNMazCE9zpEmeNMnjSY60XCApF0l6iyS9NXh1v9H/n1NxxvqWRjsbOkQGTwNARIak+bjnLvzBKxjbgfrQPRLUTZx3Cz1s373ZdHVjldEAEJFhaTrgs1Nnl8GS0C0SxHeRs+mTl+3X0CEyPBoAIjJ87raunSacHQbTQufIqLiIsbV1Dfv0WX910wAQkbu2fq9PJsc2YEs1f0lQBtRn8HG+wJu7V9q10DFy9zQARGTENO7zuRbzvsGy0C0ychyOEbFl3xr7JXSLjBwNABEZcY37fWnk7MCYH7pF7soZM7btXWtfhw6RkacBICL3hrutP8gyMt4CHgudI0Nyzp2ds86zv7nZstAxcm9oAIjIPdXc7NGFOSwH3saZG7pHBtThxo6ePC26v3/s0wAQkVHRfNxzHX+yypzXgcdD98h/nDbnvYcf5HDzs1bdD1CQQdMAEJFR19Tui9KMrQYvoP9DIX1PxM7W1RzRkb7xR394IhLM+v3+KM5rGC+iWwVHhcN1cz6LnQ90de/4pgEgIsE1tXhDWmS1OY3AwtA9Y9QpnLa4hraWlXYldIyEpwEgIhWl8aAviFI2AquAqaF7qpnDJYxPDVpa19qZ0D1SWTQARKQirTjkcUPC056xwp3VGNNDN1WJq8AXRBwudPOVHtIjt6MBICIV79UPvaZ7Gs+RsRxYCswI3VRhOoEvDT6/XuCbwyutHDpIKp8GgIhUnXXtPs+cZe4sMVgM5EM3jbIUOINzLIo58tBvnNSFPTJUGgAiUtXWHPAphYzFZiwCnnF4EiiE7hphZeBHd05GESe8zLetG+xq6CipbhoAIjKmrDjktXV9PBU5CzN4wm5dQzwbiEO3DVKKcd6dnyM47c4JEn5o3WCl0GEytmgAiMiYt2mX15XrmefGfHMeAeYAs4CZQF2grB6gw6HD4Hc3zsYpP+Vucm73ZusJ1CTjiAaAiIxrG9v9/jRhpsfMcphhMA1nKjAVY3r/zw39L58ERA55gwnQf7EO9DmkBl39r+vGuIzzF3DZ4FJmXI6cTjIuJNDR1mgXR/+3FfnXPxZNbAXesieTAAAAAElFTkSuQmCC;" parent="WfICn3c8xEElV-hs6Pjb-91" vertex="1">
          <mxGeometry x="17.149999999999977" y="32.700000000000045" width="90.7" height="90.7" as="geometry" />
        </mxCell>
        <mxCell id="WfICn3c8xEElV-hs6Pjb-49" value="&lt;b&gt;Output Notebooks&lt;/b&gt;" style="text;html=1;align=center;verticalAlign=middle;resizable=0;points=[];autosize=1;" parent="WfICn3c8xEElV-hs6Pjb-91" vertex="1">
          <mxGeometry x="5.009999999999991" width="115" height="18" as="geometry" />
        </mxCell>
        <mxCell id="WfICn3c8xEElV-hs6Pjb-85" value="" style="shape=image;verticalLabelPosition=bottom;labelBackgroundColor=#ffffff;verticalAlign=top;aspect=fixed;imageAspect=0;image=data:image/png,iVBORw0KGgoAAAANSUhEUgAAAgAAAAIACAQAAABecRxxAAAABGdBTUEAALGPC/xhBQAAACBjSFJNAAB6JgAAgIQAAPoAAACA6AAAdTAAAOpgAAA6mAAAF3CculE8AAAAAmJLR0QAAKqNIzIAAAAJcEhZcwAADsQAAA7EAZUrDhsAAAAHdElNRQfkBQcNDQnQnBFHAAAPSElEQVR42u3dbYylZ13H8d/sbku3y9bOQtkWSiPFahAQkSAFQhQCohCkoC0xMRJjbAQl8sIISfUNSFKjgaiJpqBW4I0WkJoQSZRgjdCqCcaUEh6kJfZpu5V0W+Lutt2H8UW3oAE8Z3buc64z+/t8rnflzj3/6zrn/u7Mzs6wlsftyZtzRZ6d/dkZ4Ex0IgdzW27Mh3L4sf+wdup/uDJ/mAtHTwcsxYG8LR9LcupP+9/Mddk7eiZgSfbmyhzOzY99BnBl/uqbnwkAHTbyM/n4Wvbkqz75h0IHctnOXJ2rRs8BDLA3d+/I60dPAQzy+rXcm4tGTwEMcc9ajmXX6CmAIY6vZWP0DMAoO0YPAIwjAFBMAKCYAEAxAYBiAgDFBACKzfOPgC7Ng6PHBDbt/Nwx65J5AvBgDo3eCbAIvgSAYgIAxQQAigkAFBMAKCYAUEwAoJgAQDEBgGICAMUEAIoJABQTACgmAFBMAKDYNP+vQDflkhlX/HRum3HFh/PSGVf8aj4544r35OdmXPG7uW6SHcMZYZoAXJJnzLjiCTPvcdHMezxx5j0umHmP8yfZL5whfAkAxQQAigkAFBMAKCYAUEwAoJgAQDEBgGICAMUEAIoJABQTACgmAFBMAKCYAECxtWzMvGZfDs244jkzf97/izky44rLct6MK27PgzOuuCQXzLji7hw8nWOCbWg9D8y+aGPmWh+9D+A0rM9+un0JAMUEAIoJABQTACgmAFBMAKCYAEAxAYBiAgDFBACKCQAUEwAoJgBQTACgmABAsV1zXPPxHBs9JrBpZ82+ZJ7fCAScoXwJAMUEAIoJABQTACgmAFBMAKCYAEAxAYBiAgDFBACKCQAUEwAoJgBQTACgmABAsXl+Icgv5vDoMYFN25PrZ1+0MXOtj94HcBrWZz/dvgSAYgIAxQQAigkAFBMAKCYAUEwAoJgAQDEBgGICAMUEAIoJABQTACgmAFBMAKCYAEAxAYBiAgDFBACKCQAUEwAoJgBQTACgmABAMQGAYgIAxQQAigkAFBMAKCYAUEwAoJgAQDEBgGICAMUEAIoJABQTACgmAFBMAKCYAEAxAYBiAgDFBACKCQAUEwAoJgBQTACgmABAMQGAYgIAxQQAigkAFBMAKCYAUEwAoJgAQDEBgGICAMUEAIoJABQTACgmAFBMAKCYAEAxAYBiAgDFBACKCQAUEwAoJgBQTACgmABAMQGAYgIAxQQAiu0aPcB38LxcmRfnwpwzepC5Hc29+UxuyJcWcvfduSKvyzPylNHb3ISD+Vo+kRtzdCF3f1auykvz1Owevc25PZwDuSUfya2jB/l2GzPX+hKnuTAfzck5ZlrFdSIfXMBZvSl3Dd/Z6a47c9Xk57EvH86J4Ts7vXUyN2T/Mh6jU9bnmGmOS5YXgGdv4zf7Y+srecakJ/Ke4Tva6vqdSc/j0vzH8B1tbd2ZH1za87TNAnBBvjb85dn6ui17JzuRXxu+mynWWyY7j/PyheG72fq6I09e0hO1zQLwZ8NfmmnWtROdx9NyePheplhH8vSJTuT3h+9lmnXdkp6obRWAp+f48Bdmqjf8+ZOcyB8M38lU630TvZ2PDt/JNOtYLl7KMzVHAFbn24BXZOfoESayO6+Z4C5recPojUzmjVmb4C6v3UbfF/r/7crrR4/wuNUJwPNHD7Bie7lgsk+cx7skT5rgLt4hC7A6Abhw9AATumiCeyzz20WLN8WJeIcswOoE4KzRA0zo7BW5x+qYYjfeIQuwOgEAlk4AoJgAQDEBgGICAMUEAIoJABRbxV8I8t28M58aPUKS5A25ZvQISZJ7VuYflP5NnjZ6hCTJe/Lx0SMkSV452Q+ELdx2CsAd+dzoEZIkLxg9wCmPrMh5JI+MHuCUO1fkRC4dPcD8fAkAxQQAigkAFBMAKCYAUEwAoJgAQDEBgGICAMUEAIoJABQTACgmAFBMAKCYAEAxAYBiAgDFBACKCQAUEwAoJgBQTACgmABAMQGAYgIAxQQAigkAFBMAKCYAUEwAoJgAQDEBgGICAMUEAIoJABQTACgmAFBMAKCYAEAxAYBiAgDFBACKCQAUEwAoJgBQTACgmABAMQGAYgIAxXaNHmATrs4rR4+QJHnW6AFOeXKuGz3CNydZDT+fF4weIUly6egB5redArAaj//qOC9Xjx5hxbwsLxs9wnbjSwAoJgBQTACgmABAMQGAYgIAxQQAiq1OAL4xeoAJPTjBPR4avYlJHZrgHt4hC7A6Abhr9AArtpd7c2L0NiZzIgcmuIt3yAKsTgA+NXqACf39BPc4kltGb2Myn8nRCe7iHbIAqxSAe0aPMJEv5l8nuc9fjN7IZD44yV1uyZdHb2Qid+XTo0d43OoE4OH89ugRJvKOnJzkPh/MF0ZvZRK35kOT3Odk3jl6KxO5Jo+MHuFbNmau9aXNcv0c06z6+r0Jz+MHcmj4fra6HshlE57Ie4fvZ+vrT5f2PK3PMc0clywvADtz7fCXZyvrZK6d+HOq5+aO4bvayrozPzLpeazlHTkxfFdbWdflrKU9T9suAEnyinw2J4e/TJtfJ/KpXL6A89ibd+frw3d3OuvreVf2LuBEXpxPb8sInMw/5eWLfnz+jzkCsJaNmbfZN8l3cTfj4lyep+WcJX/U03ckd+fmHFzY/XfmJbk0+7M2eqNz2sjB3J5bFviNzAvz4lycc0dvdG4P5+7889L/mns9D8y+aHa5lvsZADCNOT4DWJ3vAgBLJwBQTACgmABAMQGAYgIAxQQAigkAFBMAKCYAUEwAoJgAQDEBgGICAMUEAIoJABQTACgmAFBMAKCYAEAxAYBiAgDFBACKCQAUEwAoJgBQTACgmABAMQGAYgIAxQQAigkAFBMAKCYAUEwAoJgAQDEBgGICAMUEAIoJABQTACgmAFBMAKCYAEAxAYBiAgDFBACKCQAUEwAoJgBQTACgmABAMQGAYgIAxQQAigkAFBMAKCYAUEwAoJgAQDEBgGICAMUEAIoJABQTACgmAFBMAKCYAEAxAYBiAgDFBACKCQAUEwAoJgBQTACgmABAMQGAYgIAxQQAigkAFBMAKCYAUEwAoNiu0QN8F/tyUc4ZPcTcjuaePLTQj3B2npL9o7e5CQdzfx5d6Ec4P0/N7tHbnNvDOZAHRg/xnW3MXOtLnWdf3p0vzzHVqq1bc032LuREXpG/zuHh+9vs+u98LC9fyHnszW/l88P3t/n1pbxryc/S+hxTzXHJMod+Yw4Nf6FOfx3MKyc+j7356PBdbWXdkCdOfCI/kfuH7+r01wO5YklPUrINA/DLOTn8JdraOpafnfA89uZzw3e01fW5SRNwVY4N39HW1on80tKep20WgJfk0eEvz9bX4Tx7shPZ3n/6P77+crLzeG6ODN/N1tcjedGSnqhtFYC13DL8pZlmfXKiE/mx4TuZar1iohP5u+E7mWb9S9aW8kzNEYDV+Tbg5bl89AgT+cl8/yT3efvojUzmrZPc5bK8avRGJvKjeeHoER63OgF4zegBVmwvZ50xb/fk1ZN8u/l1o7cxodeOHuBxqxOA7xs9wIrt5anZM3obk3liLpzgLt4hC7A6AXjS6AEmdMEE99g3ehOTmuJEvEMWYHUCsJy/Ftk+e1mdV2YKU+zGO2QBzqy3GbApAgDFBACKCQAUEwAoJgBQbFV/Ich3cjCHR4+QJDkvTx49QpLkWO4aPcIpT89Zo0dIknw93xg9QpJkz/b55S3bKQBvy0dGj5AkuTrXjR4hSXJXnjl6hFNuz6WjR0iSXJP3jx4hSXJlbhg9wrx8CQDFBACKCQAUEwAoJgBQTACgmABAMQGAYgIAxQQAigkAFBMAKCYAUEwAoJgAQDEBgGICAMUEAIoJABQTACgmAFBMAKCYAEAxAYBiAgDFBACKCQAUEwAoJgBQTACgmABAMQGAYgIAxQQAigkAFBMAKCYAUEwAoJgAQDEBgGICAMUEAIoJABQTACgmAFBMAKCYAEAxAYBiAgDFBACK7Ro9wCZcn+tGj5AkecLoAU753jwweoRTvmf0AKe8L9eOHiFJcvboAea3nQKwJ3tGj7BSdmR99Agr5tycO3qE7caXAFBMAKCYAEAxAYBiAgDFBACKrU4ATo4eYMX2ciadhxNZ2b2sTgD+a/QAEzo4wT3OpPNI7pvgHmfSiUzxDpnE6gTgK6MHWLG93JdvjN7GZB7K/RPcxTtkAVYnAJ8YPcBkNibZy/F8cvRGJvO3OTHBXc6cd8gK7WV1AvBv+fToESbysfznJPd5bzZGb2USG/mjSe7ztdw4eisTuSn/PnqEb9mYuZb1L86fnyNzTLPq61CeOdmJ/Pnw3UyxPjDZeVyWh4bvZuvrcH5oSU/U+hzTzHHJ8n7k5E05Nvzl2do6mldPeB7n5B+H72ir66ZJf3ryp3J0+I62th7NlUt7nrZdAJKX567hL9Hpr6/mhROfxxPyJzkxfF+nu07kjyf/4ekX5fbh+zr9dWd+fElPUrItA5Dszttzc44Pf6k2tx7NP+RXFvRz4D+cD+TA8B1udh3I+/O8hZzH2XlLbsqjw3e4uXUsn82vZ/ciH51vM0cA1jL7L5r25dBSx06Sndmfc5b+UU/X0dw3xzluzZ7sH73NTbgvRxb8EXZk/5Ifp614OAcn+U7I5qzP8ytjZrfLr52A7WiOzwBW59uAwNIJABQTACgmAFBMAKCYAEAxAYBiAgDFBACKCQAUEwAoJgBQTACgmABAMQGAYgIAxQQAigkAFBMAKCYAUEwAoJgAQDEBgGICAMUEAIoJABQTACgmAFBMAKCYAEAxAYBiAgDFBACKCQAUEwAoJgBQTACgmABAMQGAYgIAxQQAigkAFBMAKCYAUEwAoJgAQDEBgGICAMUEAIoJABQTACgmAFBMAKCYAEAxAYBiAgDFBACKCQAUEwAoJgBQTACgmABAMQGAYgIAxQQAigkAFBMAKCYAUEwAoJgAQDEBgGICAMUEAIoJABTbNcc1548eEjgN58++ZC0bo6cERvElABQTACgmAFBMAKCYAEAxAYBiAgDFduT46BGAQY7vyP2jZwAGuW9Hbhs9AzDIbTty4+gZgEFuXMvufCUXj54DWLp7c9mOHM3b/UAQ1NnIW3NkZ5Iv5nBelbXR8wBLs5HfyF8kO5MkN+fWvCx7R88ELMU9eXOuT/K//tw/N7+QK/Kc7J/rl4QA28/xHMznc2M+nCOP/Yf/Aafy+bp60E5KAAAAJXRFWHRkYXRlOmNyZWF0ZQAyMDIwLTA1LTA3VDEzOjEzOjA5KzAwOjAwUAu/lQAAACV0RVh0ZGF0ZTptb2RpZnkAMjAyMC0wNS0wN1QxMzoxMzowOSswMDowMCFWBykAAAAZdEVYdFNvZnR3YXJlAHd3dy5pbmtzY2FwZS5vcmeb7jwaAAAAAElFTkSuQmCC;" parent="WfICn3c8xEElV-hs6Pjb-91" vertex="1">
          <mxGeometry x="25.920000000000073" y="128.85000000000002" width="64.15" height="64.15" as="geometry" />
        </mxCell>
        <mxCell id="WfICn3c8xEElV-hs6Pjb-88" value="&lt;b&gt;Output Tables&lt;/b&gt;" style="text;html=1;align=center;verticalAlign=middle;resizable=0;points=[];autosize=1;" parent="WfICn3c8xEElV-hs6Pjb-91" vertex="1">
          <mxGeometry x="8" y="193" width="100" height="20" as="geometry" />
        </mxCell>
        <mxCell id="WfICn3c8xEElV-hs6Pjb-93" style="edgeStyle=orthogonalEdgeStyle;rounded=0;orthogonalLoop=1;jettySize=auto;html=1;exitX=1;exitY=0.5;exitDx=0;exitDy=0;entryX=0.5;entryY=0;entryDx=0;entryDy=0;fontColor=#6600CC;" parent="1" source="WfICn3c8xEElV-hs6Pjb-86" target="WfICn3c8xEElV-hs6Pjb-51" edge="1">
          <mxGeometry relative="1" as="geometry" />
        </mxCell>
        <mxCell id="WfICn3c8xEElV-hs6Pjb-94" value="" style="group" parent="1" vertex="1" connectable="0">
          <mxGeometry x="676" y="565.1" width="120.00999999999999" height="213" as="geometry" />
        </mxCell>
        <mxCell id="WfICn3c8xEElV-hs6Pjb-95" value="" style="rounded=1;whiteSpace=wrap;html=1;dashed=1;dashPattern=1 1;strokeWidth=2;fillColor=none;fontColor=#6600CC;" parent="WfICn3c8xEElV-hs6Pjb-94" vertex="1">
          <mxGeometry width="120" height="212" as="geometry" />
        </mxCell>
        <mxCell id="WfICn3c8xEElV-hs6Pjb-96" value="" style="shape=image;verticalLabelPosition=bottom;labelBackgroundColor=#ffffff;verticalAlign=top;aspect=fixed;imageAspect=0;image=data:image/png,iVBORw0KGgoAAAANSUhEUgAAAgAAAAIACAYAAAD0eNT6AAAABHNCSVQICAgIfAhkiAAAAAlwSFlzAAAOxAAADsQBlSsOGwAAABl0RVh0U29mdHdhcmUAd3d3Lmlua3NjYXBlLm9yZ5vuPBoAACAASURBVHic7N15nFxVnf//16mqruot6XQWskM29kVZdUZFQcFl/AoREzULCaIwOjqOXxdm+c1MZv+xzPwcHccxKgSSoCYKjDqgsi+KCmENEEgC2bdOekt3dXd11T2/P4oMiIGk0+fWucv7+XjUww0/99PdVXXe99x7zzFIJCy8yTblsrwdyxkWjgdOAMYBrUATkPfaoIgMRwnoBTqAPcDzBp4PYE2hl4eWXmmKftuTNDK+G0izT95sx1cs84KADxvDW4A63z2JSM2VgN9g+VHF8r3ll5o9vhuSdFAA8GDRSnuuCfiSNbzfQM53PyISGYMG7jAZrr1+nnnIdzOSbAoANbR4uX0Xhr8H3uG7FxGJOMv9NsPf3DjfPOC7FUkmBYAaWHyDnUAd1wAL0O9cRIZmdS7D574zz+z23YgkiwajkF22wn7EwreBUb57EZHY6gjg8psWmFt9NyLJoQAQks99zRb2j+bfgM/47kVEEsEa+HpPni+vnmtKvpuR+FMACMFnVtnmYokfARf67kVEEsZwz6Bl9soFptt3KxJvCgCOXbbKjrMl7gDO9N2LiCTWI/kMH1g6z+z13YjElwKAQ5/4rh0RFLgXDf4iEjJreDTbz/nXX272++5F4inju4Gk+NzXbCGo5zY0+ItIDRjLWUGBH85ZZbVKqBwRBQBH9o/m37Cc77sPEUmVC5tKXO27CYknXQJw4OVH/Vb77kNEUskGcIkeEZShUgAYpgXL7cSc4Vn0nL+I+NNRCThB+wjIUOgSwDDlDNehwV9E/GrNZrjGdxMSL5oBGIaX1/a/13cfIiKAxfLOZQvNg74bkXjQDMBwVDf2ERGJAmMMf+e7CYkPBYAjtGilPRft6iciEWLhvE/cbN/uuw+JBwWAI2QCvuS7BxGR1wr03SSHSfcAHIGFN9mjshm2AXW+exEReTUL5boMU7R9sBxKzncDcZTLMt/a8Ab/bAZmTLLMmGAZ12ppqoc6x3+p/7g167TeDfOdlhNJlIEydBRhczs8tg0e2wrlIJxjGciVA+YCXw/nCJIUCgBHIAj4sAlp7mTmJMvbTgkY2RROfRGpvUIOJoysvt4yDfb0wKrHYM3W0A75YRQA5BB0D8AQLbzJNhnDOa7rGgN/eErA+9+iwV8k6Y5qhs+eC3NOr372nbP8wZxVtiGEypIgCgBDlMvydsD55ht/cHLAGcda12VFJMI+cBJ85M0hFDYURgzythAqS4IoAAyRDdzv9jdzktXgL5JSHzgJzpjqvm5gOct9VUkSBYAhMhmOd1kvm6lO/YtIen3sDMg5/ja2huPcVpSkUQAYImvdfqhmTLK06Jq/SKqNa4Y3T3Fb01i3JyuSPAoAQzfRZbEZEzX1LyKhXAaY4LyiJIoCwNCNcFls3CgFABGB6aPd1rMw0m1FSRoFgKFrdlmsqd5lNRGJq9ZGt/WMdXuyIsmjADB0Th8BdL3Cn4jEU8H1d4Gh4LiiJIwCgIiISAopAIiIiKSQAoCIiEgKKQCIiIikkAKAiIhICikAiIiIpJACgIiISAopAIiIiKSQAoCIiEgKpXIdujmrbL65xOwALjJwBjAF0J58IiKSGqkLAIuW20tMiWsszDC+mxEREfEkNQFgziqbbS5xtYUv+u5FRETEt9TcA6DBX0RE5BWpCACLlttLNPiLiIi8IvEBYM4qmzdwte8+REREoiTxAaC5xGwMM333ISIiEiWJDwDWcrHvHkRERKIm8QEAw5m+WxAREYmaxAcACxN99yAiIhI1iQ8AIiIi8vsSHwCMYYfvHkRERKIm8QHAWtb47kFERCRqEh8AsNzmuwUREZGoSXwAKBS51cIG332IiIhESeIDwNIrzaAxXOW7DxERkShJfAAAWDbf3GIt1/nuQ0REJCpSEQAApm/kKuBa332IiIhEQWoCwJIlJli2wHwFy2zdEyAiImmXmgBwwLKF5rZCLydhmItlJbDOQo/vvkRERGop57sBH5ZeaQaB1S+/hmTxCmvddyQiIlJbqZsBEBEREQUAERGRVFIAEBERSSEFABERkRRSABAREUkhBQAREZEUUgAQERFJIQUAERGRFFIAEBERSaFUrgQo8WSBYqn6KlWgHIDWZTw4YyCXgXwWGvPVl/HdlIhEigKAxEKxBO3F6qAvh2YtDFaqr95SNQyMbqwGARER0CUAiYH2Iuzp0eA/HOWg+jvsKPruRESiQgFAIq29CN39vrtIjq5+hQARqVIAkMgqljT4h6Grv/q7FZF0UwCQSLJUz/4lHO3F6u9YRNJLAUAiqVjSNf8wlQPNAoiknQKARJIGp/DpdyySbgoAEkmliu8Okk+/Y5F0UwCQSKpo+j90+h2LpFsqFwKas8rmm0vMDuAiA2cAU4Am332JiIjUSuoCwKLl9hJT4hoLM7Q0anRlMxBoijpUWc3/iaRaagLAnFU221ziagtf9N2LHFo+W13GVsJTyPruQER8Ss05gAb/eNGa9eFr0O9YJNVSEQAWLbeXaPCPl8Y81OkMNTS5jEKWSNolPgDMWWXzBq723YcMjQFaG3x3kVyjG7U9sEjaJT4ANJeYjWGm7z5k6Brz0FLvu4vkaanX2b+IpCAAWMvFvnuQI9faqBDgUkt99XcqIpL8pwAMZ/puQYantREKOejo05MBR6ouW72kojN/ETkg8QHAwkRd64y/xnz1rvViqfoqVaor2QXa0u6gMqb6nH8+W/3dNeZ1zV9EflfiA4AkhwGa8tWXiIgMT+LvATCGHb57EBERiZrEBwBrWeO7BxERkahJfADAcpvvFkRERKIm8QGgUORWCxt89yEiIhIliQ8AS680g8Zwle8+REREoiTxAQBg2Xxzi7Vc57sPERGRqEhFAACYvpGrgGt99yEiIhIFqQkAS5aYYNkC8xUss3VPgIiIpF1qAsAByxaa2wq9nIRhLpaVwDoLPb77EhERqaVUrgS49EozCKx++TUki1dYLT4rIiKxl7oZABEREVEAEBERSSUFABERkRRSABAREUkhBQAREZEUUgAQERFJIQUAERGRFFIAEBERSSEFABERkRRK5UqAEk8WKJaqr1IFygFEbV1GYyCXgXwWGvPVl/HdlIjIQSgASCwUS9BerA76UWYtDFaqr95SNQyMbqwGARGRKNElAIm89iLs6Yn+4H8w5aDae0fRdyciIr9LAUAirb0I3f2+uxi+rn6FABGJFgUAiaxiKRmD/wFd/dWfSUQkChQAJJIs1bP/pGkvVn82ERHfFAAkkoqleF7zP5RyoFkAEYkGBQCJpCQPkkn+2UQkPhQAJJJKFd8dhCfJP5uIxIcCgERSJYHT/wck+WcTkfhI5UJAc1bZfHOJ2QFcZOAMYArQ5LsvERGRWkldAFi03F5iSlxjYYaWaI2ubAaChE6VZzXvJiIRkJoAMGeVzTaXuNrCF333IoeWz1aX002iQtZ3ByIiKboHQIN/vCR57fyGBP9sIhIfqQgAi5bbSzT4x0tjHuoSeKacyyQ73IhIfCQ+AMxZZfMGrvbdhwyNAVobfHfh3uhGbQ8sItGQ+ADQXGI2hpm++5Cha8xDS73vLtxpqdfZv4hER+IDgLVc7LsHOXKtjckIAS311Z9FRCQqkv8UgOFM3y3I8LQ2QiEHHX3xezKgLlu9lKEzfxGJmsQHAAsTdc01/hrz1bvni6Xqq1SprqgXRGxrvYypPuefz1Z7bszrmr+IRFPiA4AkhwGa8tWXiIgMT+LvATCGHb57EBERiZrEBwBrWeO7BxERkahJfADAcpvvFkRERKIm8QGgUORWCxt89yEiIhIliQ8AS680g8Zwle8+REREoiTxAQBg2Xxzi7Vc57sPERGRqEhFAACYvpGrgGt99yEiIhIFqQkAS5aYYNkC8xUss3VPgIiIpF1qAsAByxaa2wq9nIRhLpaVwDoLPb77EhERqaVUrgS49EozCKx++TUki1fYiC0+KyIiMnSpmwEQERERBQAREZFUUgAQERFJIQUAERGRFFIAEBERSSEFABERkRRSABAREUkhBQAREZEUUgAQERFJIQUAERGRFFIAEBERSSEFABERkRRSABAREUkhBQAREZEUUgAQERFJIQUAERGRFFIAEBERSSEFABERkRRSABAREUmhnO8GfJizyuabS8wO4CIDZwBTgCbffYmIiNRK6gLAouX2ElPiGgszjO9mREREPElNAJizymabS1xt4Yu+exEREfEtNfcAaPAXERF5RSoCwKLl9hIN/iIiIq9IfACYs8rmDVztuw8REZEoSXwAaC4xG8NM332IiIhESeIDgLVc7LsHERGRqEl8AMBwpu8WREREoibxAcDCRN89iIiIRE1q1gGQ+LNAsVR9lSpQDsBa311JnBgDuQzks9CYr760IJikVeIDgDHswHKc7z5keIolaC9WB32RI2UtDFaqr95SNQyMbqwGAZG0Sf4lAMsa3z3I8LQXYU+PBn9xrxxU31sdRd+diNRe4gMAltt8tyBHrr0I3f2+u5Ck6+pXCJD0SXwAKBS51cIG333I0BVLGvyldrr6q+85kbRIfABYeqUZNIarfPchQ2Opnv2L1FJ7sfreE0mDxAcAgGXzzS3Wcp3vPuTwFUu65i+1Vw40CyDpkYoAADB9I1cB1/ruQw6PvoTFF733JC1SEwCWLDHBsgXmK1hm656A6CtVfHcgaaX3nqRFagLAAcsWmtsKvZyEYS6WlcA6Cz2++5LfVdH0v3ii956kReIXAjqYpVeaQWD1y68hWbxCa8+JiEj8pW4GQOIhq3emeKL3nqSF3uoSSfms7w4krQp670lKKABIJGltdvGlQe89SQkFAImkxjzU6UxMaiyXUfiU9FAAkEgyQGuD7y4kbUY3antgSQ8FAImsxjy01PvuQtKipV5n/5IuCgASaa2NCgESvpb66ntNJE1SuQ6AxEtrIxRy0NEHg1qlTRyqy1YvNenMX9JIAUBioTFfvTu7WKq+SpXqim2BlmWSIciY6nP++Wz1PdWY1zV/SS8FAIkNAzTlqy8RERke3QMgIiKSQgoAIiIiKaQAICIikkIKACIiIimkACAiIpJCCgAiIiIppAAgIiKSQgoAIiIiKaQAICIikkKpXAlwziqbby4xO4CLDJwBTAGafPclIiJSK6kLAIuW20tMiWsszNAa4CIiklapCQBzVtlsc4mrLXzRdy8iIiK+peYeAA3+IiIir0hFAFi03F6iwV9EROQViQ8Ac1bZvIGrffchIiISJYkPAM0lZmOY6bsPERGRKEl8ALCWi333ICIiEjWJDwAYzvTdgoiISNQkPgBYmOi7BxERkahJzToAEn8WKJaqr1IFygFY67sriRNjIJeBfBYa89WXFgSTtEp8ADCGHViO892HDE+xBO3F6qAvcqSshcFK9dVbqoaB0Y3VICCSNsm/BGBZ47sHGZ72Iuzp0eAv7pWD6nuro+i7E5HaS3wAwHKb7xbkyLUXobvfdxeSdF39CgGSPokPAIUit1rY4LsPGbpiSYO/1E5Xf/U9J5IWiQ8AS680g8Zwle8+ZGgs1bN/kVpqL1bfeyJpkPgAALBsvrnFWq7z3YccvmJJ1/yl9sqBZgEkPVIRAACmb+Qq4Frffcjh0Zew+KL3nqRFagLAkiUmWLbAfAXLbN0TEH2liu8OJK303pO0SE0AOGDZQnNboZeTMMzFshJYZ6HHd1/yuyqa/hdP9N6TtEj8QkAHs/RKMwisfvk1JItXaO05ERGJv9TNAEg8ZPXOFE/03pO00FtdIimf9d2BpFVB7z1JCQUAiSStzS6+NOi9JymhACCR1JiHOp2JSY3lMgqfkh4KABJJBmht8N2FpM3oRm0PLOmhACCR1ZiHlnrfXUhatNTr7F/SRQFAIq21USFAwtdSX32viaRJKtcBkHhpbYRCDjr6YFCrtIlDddnqpSad+UsaKQBILDTmq3dnF0vVV6lSXbEt0LJMMgQZU33OP5+tvqca87rmL+mlACCxYYCmfPUlIiLDo3sAREREUkgBQEREJIUUAERERFJIAUBERCSFFABERERSSAFAREQkhRQAREREUkgBQEREJIUUAERERFIolSsBzlll880lZgdwkYEzgClAk+++REREaiV1AWDRcnuJKXGNhRlaA1xERNIqNQFgziqbbS5xtYUv+u5FRETEt9TcA6DBX0RE5BWpCACLlttLNPiLiIi8IvEBYM4qmzdwte8+REREoiTxAaC5xGwMM333ISIiEiWJDwDWcrHvHkRERKIm8QEAw5m+WxAREYmaxAcACxN99yAiIhI1qVkHQOLPAsVS9VWqQDkAa313lQ7GQC4D+Sw05qsvLaQlEm+JDwDGsAPLcb77kOEplqC9WB30pfashcFK9dVbqoaB0Y3VICAi8ZT8SwCWNb57kOFpL8KeHg3+UVIOqn+TjqLvTkTkSCU+AGC5zXcLcuTai9Dd77sLeT1d/QoBInGV+ABQKHKrhQ2++5ChK5Y0+MdBV3/1byUi8ZL4ALD0SjNoDFf57kOGxlI9+5d4aC9W/2YiEh+JDwAAy+abW6zlOt99yOErlnTNP07KgWYBROImFQEAYPpGrgKu9d2HHB4NJvGjv5lIvKQmACxZYoJlC8xXsMzWPQHRV6r47kCGSn8zkXhJTQA4YNlCc1uhl5MwzMWyElhnocd3X/K7Kpr+jx39zUTiJfELAR3M0ivNILD65deQLF6htedERCT+UjcDIPGQ1TszdvQ3E4kXfWQlkvJZ3x3IUBX0NxOJFQUAiSStMR8/DfqbicSKAoBEUmMe6nRGGRu5jEKbSNwoAEgkGaC1wXcXcrhGN2p7YJG4UQCQyGrMQ0u97y7kUFrqdfYvEkcKABJprY0KAVHWUl/9G4lI/KRyHQCJl9ZGKOSgow8GtdpcJNRlq5dodOYvEl8KABILjfnqXebFUvVVqlRXngu0LFNNZEz1Of98tvq3aMzrmr9I3CkASGwYoClffYmIyPDoHgAREZEU0gyAiKRWJYDOPmgvVv+1s1j9972lVy43FUtQHIS+QTiwE8hAGcovb36Uy1TvUQEwBhrqXrlM0pSHxjpoLsCoxurjki0NMOblf83oOop4pAAgIonXNwhbOmBHF+zeDzu7YNd+2Nsz/PtIygGUS6/8556Bw/v/ZTMwrhkmjoTxI2D8yOH1ITJUCgAikij9g7BhL2zaB5s7YEs7tPVA1O4XrQSwq7v6EvFBAUBEYq1nANbthhfaYP2e6pm+ng4ROTQFABGJlcBWB/lnd8EzO6uDvwZ8kaFTABCRyBuswNqd8OgWeGJ79cY8ERkeBQARiaRyAE9uh0c2w5M7qtf2ZWjmrLL51XON4pIclAKAiETK9i741Yvw4EbYf5h31MvBNZXYfdlyu8pkWX79PPOQ734kWlIZAOassvnmErMDuMjAGcAUoMl3XyJp1VuChzbC/Rtgp+6Kd2mUNVxhA65YvNw+ZTN8t1DHjUvnmi7fjYl/qQsAi5bbS0yJayzM0BocIn5t6YC7X4Bfb4JS2Xc3CWc4zVj+faDEPy1eYVdkA77x3UvNWt9tiT+pCQBzVtlsc4mrLXzRdy8iaWaBp7bD7c/CC3t8d5M+BpqBP65k+OPLVth7K3DtTfP5GcboWYqUSU0A0OAv4pe11Zv5/vsp2NTuuxsBsHBeBs5bvJKn7XJ73fQp3LzkPKO5mJRIRQBYtNxeosFfxI/AVq/v/3gt7Ov13Y28jlON4cZN21ly2XL7D8dMYbmCQPIlfjfAOats3sDVvvsQSRtr4ZEt8Fc/hRt+o8E/JqZbw/WbtrN+0Up7xZxVNuu7IQlP4gNAc4nZGGb67kMkTZ7YDn/9P/CfD2qt+5iaZizfaizxxOLl9n2+m5FwJP4SgLVcjG73F6mJnd3w/TXw1A7fnYgLBk7BcMeiFfYum+GLN80zT/nuSdxJfAAgwxmR2wZMJGH2D8AtT8IDG7QufxIZeA8BaxYtt9/OFfh/vjvX6DbOBEj8JQBrmeS7B5GkssAvX4S//Anct16Df5IZyBnDpysl1i9ebj+/ZIlN/PiRdImfATDR2wZcjpCluglMsQSlSnWteBvxv64xkMtAPguN+eorKVekdnTBjb/Vs/wpNBrDVzfN4sOXrbCfvmGBedZ3Q3JkEh8AMOzEMsJ3GzI8xRK0F6uDfpxYW93JbrBSXe42l4HRjdUgEFeVAH6yFv7nmfj9PcSpcy08vmiF/fvpk7lajw3GT+IDgLWsMXCc7z7kyLUXobvfdxdulAPY0wMt9dDa6LubodvWCd/5FWzu8N2JW02VAcaW9zNusJsxgz2MKvfSXB6gKehnRKWf5ko/OVuhIahurJezFQpBGb6wm4FKHeWg+rRcX7mecpBlf6mRnlIjvaUGesqNdPY3s7dvVPVVbKV3sN7nj+tS3sA/btrO7Mtvsou1tHC8JD4AYLkNw8d9tyFHJkmD/6t1vfwzxSUEBBZ+9hzc+mS8z/pHlPuYWmpnSv8+pg60M6W0j/Glrv8d2I9EITtIIVvdq7iprvqHndC07w3/P33lArt7R7N1/wS27T+KbfvHs6V7PD2lmLwhft+ZFcOji1fYJdM2cM2SJSbG75L0SHwAKBa4rWmAjVoLIH6KpWQO/gd09UMhF/3LAR1F+OZDsL7NdydDk7GWqQP7OLZvF7P6dnFs/y5GD/b4bguAhtwA01p2Mq1l5+/89+39I3mh/Rg2dE5hffvRbNs/nsDG5K4RQwH4l03HcsEnvmcXXv9xo4dBIy4m76zhWbzSfhjLj3z3cTCfnV3xctz/uNXtAl83zHdaDgts74z32ebhyGVg8qjofhCf3A7feRh6Bnx3cnjGDXZzWs8WTu3dygl9OygEg+Ee8Au7Qy3fX86zrn0aT7fN4um2Y2krjgr1eM5Y2ozhEzcsMD/13Yq8vqh+7zi3aLm91hi+5LuP11IAOLjeErRF42QtdOOaoSliswCVAH74BPz8uWg/RmOwzCru5qyeFzmtZzMTBmu8zX3IAeC1dvWO4am2Y3l050ls6JiCjfZXuLWWf50+hb/QDYLRlPhLAAdM38hVm2ZhgS/77kUOrXjkl2Rjp1iKVgDo6oNvPBjdKX9jYUb/bs7Zv5Gz92+ktZyeTQYmNO1jQtM+Lpz2a9r7R/LIzpP57c6TealzUhTDgDGGL23azlkLb7IfXX6p0QOjERO5d0zYFi+3F1vDtQZm+e4FNAPwerZ3VR+dS4O6LExu8d1F1Yv74D8eqF73j5pR5SJv717HuZ3rGDcYkQ0GajwD8Hr29I7mgW2n89C2N9M10Oy7nd9jYZuBOcsWmF/77kVekboAAHDFt2xdqZmLCbgIw5kWphjw8qlRADi4LR3pWVUuY+DoVt9dVLfsvemRaAUvg+XU3q2c2/kcp/duJmMjdlNIRALAAZUgwxN7juf+rWewdu9MbJRuILQMGMMnb1hgVvhuRaoi9O6Ih8Ur3K49pwBwcAoAtWOB/34K/vtpfz28Vi6ocE7PRv5o3+NMKkV40YGIBYBX21Ns5a5Nb+H+rWdQqtT5bud/GfjaMRv4gh4V9C819wBIvGQzEEToTDRMWY8rqg9Wqnf5/3azvx5ebUS5j3d3ruX8rmcZUe7z3U6sHdXYwbyTfsYHZz7IPVvO5u7NZ0dinQELf7p5FhPmrLKLV881+iN7pAAgkZTPRmsqOkwFt5Mxh623BF+/H56PwK1ZTZUB3tPxNO/teGpYi/LI7xtZ6OXiY+/j/TN+yd2bz+H2jW+jd7DBa08W5jaVOObSG+0f3bTIvPGqSRIaBQCJpMZ8dYBKgwYPTwC0F+G6u2Gn53vpGiol3tv5FBe2a+APWyE7yAdm/JLzjn6Un7/0B/zipbfSVy74bOktmQz3LFhu37diodl56H9cXNN2jhJJjfnq3fFJl8vUfiXAPfvhX37hd/DP2IB3d67lmpdu5qK9j2rwr6GG3AAXH3sf17zra5x/zCNkfF6KN5yWM/zy8uU2Ek9lpY0CgESSAVr9zlLWxOjG2t6Ju6ML/t+7YK/HR+dPKm7n7zb/kAW7H6K5kuC1niOuOV9k4cm384/nfpPTxq332cr0iuGhy2+yp/hsIo0UACSyGvPVXfOSqqW+tmf/m9vhX+7094z/2MH9fH77HXx560+YMtDupwn5PROb9vKFs2/mT8/8PmMaaryS4ivGVzLctehme7KvBtJIAUAirbUxmSGg1tsBb+2E6+7xs6a/sfCuzmf5h02reHNPRB43kN9z+vjn+edzv8EHZvySjPHyDO54U+HeS2+2p/k4eBopAEjktTbCUc3JuCegLlv9WWo5+G/vgmvv8jP4Ty6181dbb2XR7geoD3tjHhm2fHaQOSfcxV/8wfVMbvawFrRhnAm4+7IV9qTaHzx9FAAkFhrzMKnllY1z6rLVBXSiLmOqvTblq71PaqnttP+ubrj2bthf48HfYPlA+xMs2fRDZvZFd7EcObhZo7ax5G3f4n3Tf4Wp8WyAgbEWfrHwJju9pgdOIT0GKLFhqA6kUdo4J8o6itVp/64aL7XSUily+c57ObV3a20PLE7lshU+euKdnDZuA99+6mI6+kfW8vCTsxnu+sT37Duu/7jZUcsDp4lmAEQSqLcE/3oP7Kvx3f5n7X+Rf3rpBxr8E+TEsS/x92//L86csK7Wh54RVPjFvJU2AjtlJJMCgEjClCrw7/dVr/3XSsYGzNn7G/5kxy9oqni42UBC1Zzv47Nn/IBFp/6UbKam6wacnLfc9rmvWa8rFiWVAoBIglgL//UQrK/h/VstlSJXbf0JH9j3eO0OKl68a+oavnzOTYzM13Rq6dzu0dwQra0Nk0EBQCRBfvgEPL6tdseb1beLJZt+xHF9Wsk1LY4fvZklb/8WM0fV7o1m4OOLV/LPNTtgSigAiCTEr16C25+t3fHO2v8iX972U0aVPS4rKF601u/nz9+yjLdOquke0n++eIX9RC0PmHQKaOdUTgAAIABJREFUACIJsKENbvh17Y53QcfTfGbHneSDcu0OKpGSy1a44s23cNGx99fysN+4dKU9p5YHTDIFAJGY6+yD/3gQyjW4NytrAy7bdR/z9vwSg5fV4iRCDHDxsfex6NSf1mpToXpj+dHiG+yEWhws6RQARGIssPDNh2rzrH+drfDZHT/n3K6aPw4mEfeuqWv47BmryGUqoR/LwBSbY/WSe63WsRkmBQCRGFv9OLywJ/zj5G2Zz2+7Q2v5y+s6ffzzfPHsFRSy4W/tbAxv37SNfwz9QAmXygQ1Z5XNN5eYHcBFBs4ApgBNvvsSGYo1W+Hnz4V/nIagxBe2386xxV3hH0xi7YQxm/i/Z6/kq4/Oo68c8qP7hq8sXmkfWDbf3B7ugZIrdTMAi5bbS5pKPGfh+wY+DhyPBn+JmfZi9aa/sK/CNwQlvrz1pxr85bAdN3oLX3rLchpyoS8IZazlxk+usFPCPlBSpSYAzFlls5etsNcZww+BGb77ETlS1sJ3flVd7jdMhaDMF7bfzvT+GlxjkESZ0bKdPzvrZvLZcHeANDC2DMuXLLGpGctcSs0vrbnE1Ra+6LsPkeH62XPwXMgb7OVswGd2/EJn/nLEjhu9hc+f9X3qMqE/KvquTTP5s7APkkSpCACLlttLNPhLEmzpgFueDPcYWRvwJzt+zmm9W8I9kCTeSWNe5NOn/zD8RwQN/7ToZntyuAdJnsQHgDmrbN4YrvHdh8hwVQL47sPhP+9/6e4HdLe/OHP6+OdZeEro9+nVZyosv+Jbti7sAyVJ4gNAc4nZ6Jq/JMDtz1ZnAML0wfbH9Jy/OPeuqWv4wIxfhnoMazh9oImvhHqQhEl8ALCWi333IDJcu7rhJ2vDPcY5+zfy4b2/DfcgklofOeEu/iDkvQOM5a8X3mRPDPUgCZL4AECGM3y3IDIc1lan/gdDXGRtVt8uPrXzHoxW95WQGOCy034c7i6ChkLW8E1tHXx4kh8ALBN9tyAyHPdvhA17w6vfUinyJzvuJGfDX8ZV0q0uU+ZPzljNyHyIO0ga3rnoZrRr4GFIfACw1eApEku9JbjlifDqZ2zAp3fcqS19pWZa67v53Jk/IJsJ725WY7nm0hvtmNAOkBCJDwDGsMN3DyJH6pYnYX+IC6p9rO1hji/uDO8AIgcxq3Urc46/K8xDjM5m+ZswD5AEid8LwFrWGDjOdx8iQ7WlA+5bH179s/a/yAUd4d6UFUt1ORjTAmNGwdhRMLYFRjZBYz001Ff/91y2+q8Ag2WoVKBchv5+KPVBqQcG94LZC3V7oXkPZMJdFS9u3jv9YV7oOJrHdp0QSv0APrPoZrv0xnnmmVAOkACJDwBYbsPwcd9tiAzV9x+rbvcbhtZyL4t33x9O8TgxwLjRMGMSTJ8ME8dCSzOYIVw5rMu9HAYK0Pw624pYC9090LUbBjZD/QZo1iqLl53yY17smEznwAjntU11QcuvAhc4L54QiQ8AhSK3DjSxwcAs372IHK6ndsBzIY0PBsundt5DUyX0zVqiqbkBTpgOMybDtEnV/xw2Y6BlRPXFLODd0FuEvVuhtAman4H6/eH3ETHN+T4++abb+NdHFoRy476B91y20r73hvnm586LJ0Di7wFYeqUZNIarfPchcrishR+GeOPf+9uf5MTi9vAOEEW5LBx/DHz0AvjiQvjQuXDKzNoM/q+nqRGOOR6OfS+M/wIUPwF7z4JK3l9PHpw89kXeO+3X4R0g4F+0WdDBJX4GAGDZfHPLouX2OmP4ku9eRA7l15tga0gr/k0utTM7TYv9TDkKzjwRTp4B9SHvTz8cGQOTpwJTof89sOMFyDwKLenYj+GS4+7mqbZj2dEz1nltazh980w+CnzPefGYS00qmr6Rq4Brffch8kYqAdz6VDi1DZbLdt1Pzoa8mUAUHDMB5r8frvhwNQBEefB/rfoCzDgVpl0GA1fAvuTvcZPLVlh86o8xIa1EZeEftE/A70tNAFiyxATLFpivYJltYYPvfkQO5uGXoK0nnNrv6VjLzL6Q9xH2beYU+NRsuPzi6pR/3E2YCLM+AuXPwL43QYJXajy2dSvnHf1oOMUNM0vNzA+neHylJgAcsGyhua3Qy0kY5mJZCayzENJXrsjhCyz8NKQHlsYO7ueSJE/9Hz0BPv0RWPRBmDredzfujRsHsy6Gyqehc5rvbkLzkePvprW+O6zyfzFnlc2GVTyOUnEPwGstvdIMAqtffg3J4hU2wRlcfPrtZtgd0o3g8/c8RCFI4HPoDQU47yx4yylDe3QvrsYdBWMXwebnoPA/UJ+sFRwbcgPMO+lnfOOxue6LW45rHmAuuhfgf6VuBkAkiizh7fZ3Su9W3tyzOZzivhjgzcfB5z8Obz01HYP/AQaYdiK0fg72vgMStu/NWROe48Qxm0KpHRj+UhsFvUIBQCQCntoOO7rc183YgI/tedh9YZ9Gjahe4//w+dXV+dKqvgDHng+lT0LfaN/dODX/5NvJGPc3qxo45dKVvM954ZhSABCJgF+sC6fu+Z3PMrnUHk5xH44/pnqt/+gJvjuJjgmTYMyV1ZsEE2JycxvnTn08lNoZ+LNQCseQAoCIZ9s6w1n1r6FS4qJ9Id1VXWuZTPVa/7z3Va/7y+8q5GHmxdDxIagk4z63Dx93D/W5UhilL1h0s03+s5WHQQFAxLOfrwvn6a73djxJc6U/hMo11tIMn7y4GgDSdK1/qAww43SofBL6Wn13M2wj8kUumPabMEobE/D5MArHjQKAiEe9JfjNJvd1myoDXJiEnf7GtVYH/ylH+e4kPsZPgJGXw/5JvjsZtvdO/xWNdaGE2PlXrLItYRSOEwUAEY8efgkGK+7rvr/9CRqCUKZPa2fKUXD5RdUZABma5iY46lLonO67k2FpquvnwnD2CWgcHGReGIXjRAFAxKMHNrqvOaLcx3s6Y372P3MKLP4/6b7Lf7jqCzBlHrSf5LuTYblw+q9pzvc5r2stVzgvGjMKACKevLQvnE1/3t25lkJQdl+4Vk47FhZ+APJaun3Y6nIw/RLYe7rvTo5YQ26A8495JIzSb/7ETfasMArHhQLA0DmdVx2M8fe0DM+DIZz954My53c9675wrRx3DHz4vOpd/+JGJgMzPxjrmYB3H/Nb6jLuvywrhk84Lxoj+pQNndN9A3rdz2xJDFQCeCSEnV7f1vU8I8oxfVNNOQrmXqDBPwyZDBwzO7b3BIzM9/KHk91vk2kMH52zyuadF44JfdKGzulq7Xu69FhTGq3dCT0DbmsaCxfE9dr/UaNh4R9BPpXbk9RGLgcT5kJPPDdLet+MX4WxXfDoxgEucF00LhQAhm6ny2Iv7VQASKPfhLA0/6nFLUwsdbovHLaWZrj0j7TATy001MOoBbFcJ2BC0z5OHvOi87oGPu68aEwoAAzd8y6LvbjD0JWsDb3kEEoVeHyb+7rndj7nvmjYspnqtP/IJt+dpMeIZsh9NJYrBr7z6DXOa1rDRVd8yzY6LxwDCgBDZBwHgEoAv1qrP0OaPL0D+h3vzDuqXOT03hju+HfhW2FqPKekY+2o8dAZvz1xTj/qeUbm3Z4xGWgeaOQ9TovGhEaeoTI85rrkxh2Gx9brUkBaPLHdfc23d68jY93vnhaq446Bt57mu4v0mnkW7DvFdxdDks0EvG3Kk87rGviQ86IxoAAwRHU9PIjjRwEBHn4moxCQAtZWZwBcMhbO7QxpO8GwtDRXH/fTW94fA0z5IBTjdT/AuVOdn4OB4YNLltjUjYep+4GHa+mVpgg436HC2uqlgNt/k6HL6YOGEiUvtUOX46f0ZvTvZtxgt9uiYTIG5rxHq/xFQX0BMpeEsxtVSCY07WPaKMcpGsa/eBxvcV006hQAjoTlR2GVfnGHYeXdWe74bYbntxk6erRYUJI8GcL0/zk9IawoFKazToSjJ/juQg6YOBn2neO7iyF5y8RnnNc0AR9wXjTi9NDtEahYvpc1XAuEslZpEMDG7YaN2+MzP3rZSt8dpJPBcnZ3jAJAYz28O16DTSpMOQ+6noVCPKYfz5m4llXPvQfr8BpSBt4N/LWzgjGgGYAjsPxSs8fAHb77EJlV3E1rOUbPkb73rZr6j6KGeijGZz2c0fXdzBzldjotgLPTtkWwAsARMhmu9d2DyFk97hdGCc3RE+DNJ/juQl7P9FOhc5rvLg7bmRPd7nlhIDcwwDudFo04BYAjdP088xCW+333Iel2Wk9Mnv03wB+9XXf9R5kx0PR+310cttPGbXBeM2N4t/OiEaYAMAw2w98Qq/tnJUnGDXYzYbDLdxuH57hjYOJY313IoRx1FLTHY5ZmUnMbYxrcvv8tvM1pwYhTABiGG+ebByzo9jfx4rSeELYTDMs74rsffeo0x2cW/FTHswAW3rTwJpuadakVAIapLsOXgA7ffUj6nNq71XcLh2fGZD32FyfjJ0DHTN9dHJbTxq13Ws9ALpPlTKdFI0wBYJi+M8/sNnApuhQgNZSxluP7nC+GEo53nuG7Axmqwrm+OzgsJ4zZRMbxFsHG8odOC0aYAoADNywwPzXwdd99SHpMHdhHfeB4R6EwTDkKpk/23YUM1eSjoeto310cUkNugMnNe1yXPdt1wahSAHCkJ8+XMdzpuw9Jh1n9u3y3cHjOPNF3B3KkgnjMhM9qdXwpzPImtwWjSwHAkdVzTSnfw8UGHvbdiyTfccWdvls4tFwWTp7huws5UpOOh0rWdxeHdOxoxzfDGmbMX2FHui0aTQoADi290hTrMnwIeMR3L5JsM/t2+27h0E6YVt1sRuKpvgCdJ/vu4pCOdT0DACabIfo/uAMKAI4tnWf2NuY5H/iF714kmUaU+xhTjsGa7W8+zncHMlyF6M+Gj23opDnvdovNTJCOywAKACH4z7mmpzfP/8Hw7+jpAHFsaqnddwuH1tQAM6f67kKGa/I0GGj23cUhTR3hfEbseNcFo0gBICSr55rSsvnmz7B8GK0TIA5N6d/nu4VDO3E6ZPX1EnuZDOw/xXcXhzTFcQCwMMtpwYjSJzRkyxaa27J5ZhnLUjQbIA5MLcUgAMzQo3+JUYj+okBTRrh9FDAD0f+hHVAAqIHvzjXtNyw0V2J5J3Cf734k3qYMRPwSgAGmTfLdhbgy/mioRHuomDLS8QyAZcacVTb6j0AMU7T/qgmzbKF5cNkCc56FtwP/DcRgJReJmvFR3wBo3GhobvDdhbhSyMP+aC8KNL7R8ayYodDQT+KnsRQAPLhxgfnlsgXmYpNnMvCnwH1YBnz3JdHXVBmgoVLy3cYbm6Gz/8QpT/PdwRtqquunIef2KzRrmOK0YATlfDeQZjfMNW1UlxD++pxVtmHEIG8LLGdZw3EZywkWxgOjgGYg77VZiYSx5f2+Wzg0Lf2bPIXoj4XjGjvY0u1u06kAJjorFlEKABGxeq7pA+56+SUJcdlK+wVr+TdX9cYNdrsqFZ6JY313IK61jIPAdxNvbGxjp9MAYAyJn8rSJQCREAWW0S7rjS1FfAagLgct0X9uXIZo5AgI6nx38YbG1nc6rWdTMAOgACASIgNOT4dHVtyueObcmBYwxncX4pox0BvtmZ2WeserYxrcTSdElAKASIis4wAwIuoBYOwo3x1IWErjfHfwhprzRaf1MpbEv5kVAERClIExLus1V/pdlnNPASC5bLRnAJpzbsOxNbQ4LRhBCgAiIbK4vQeguRLxp0XHJP47M73qnGZZ50YU3M4AYBUARGQ4LE7viIv8DMBI3QCYWPkRvjt4Q011bgOARQFARIbBGgou6xWCiC8e2VjvuwMJS120V3csZN1+Ngxuw3sUKQCIhMhYtwEgF/WHsRuc/rgSJfXRDnd12bLzkq4LRo0CgEiYjNsVHHO24rKce/nEf2emV120/7ZZ4/yzEe0f2AEFAJFwOQ0AWRvxGYCsvlISKxvtzfHqMs4DQOKXX9enVSRc6ZoBiPggIcMQ8b9tLqNLAEOlvQBEROSw/E3b+b5beH1WK1AOlWYARMLldO/eson2WRiViM9QyJGL+N/WBs4DQMQX3Rg+BQCRcDkNABUT8Y9sJeL3KMgRs1EPAO6HMwUAERkGm7IZgFLE1ymQI2ZLzq+xu+V+BsDpZzeKFABEQmSN27OIctQ/sn0RX6lQjlilP9onxEGgGYChivi3iUi8Gev2S2QgE/Ebk3sVAJKqXIr2eGgDt7NjVjMAIjJMvS6L7c9GezU29jv9cSVC+gYiHgAqbh9qM9DjtGAEKQCIhMgY9rms1xP1ALC3y3cHEpL2/miHu/Kg29kxC3udFowgBQCRELn+Eol+AOj03YGEZFfEt6IOym4DgLEKACIyPCmbAVAASKotJl0BAMezd1GkACASIuM4AHRno70lK+1dYK3vLsQ1a9lUF+11ACqOLwFgaHdbMHoUAERC5PoSwN78CJfl3BssQ1fi751KnaCrh/5MtINdpeR4dszS5rZg9CgAiITIWHa7rNdWN9JluXDsSPyl09Tp7Yz+pZ3ygNsAYGCP04IRpAAgEqJKlk0u6+3NRXwGAGDTdt8diGPbe6L/dEd5oOC0XsXwktOCEaQAIBKioOI2APRmC/RlI75N+Ys7fHcgjq0Lov0IYFDJOV8HIFunACAiw7BiAbuAPpc1d9e1uCznXls79BR9dyGuDJR4uhDtRfHKfc5vju29YY4eAxSR4TDGAptdltxaGOOynHsWeEmzAEnRvWM3g8732XGr1NfkuuSmlz+7iaYAIBK+TS6LbSuMdlkuHC/qPoCk2NgT/afhBh0HAEvyp/9BAUCkFta7LBb5GQCAdZugEvjuQoarEvBALvqPdQ4W3QYAAxucFowoBQCR8D3tslgsAkBvH2zY6rsLGab9W3ewLxv9IDfY1+i0nrE85bRgRCkAiITMBG6/THqy9ezLNbssGY4nX/DdgQzTk93RfxS+XKp3vgywNax1WjCiFABEQlaGtYDT06gNDRNclgvHuk3QH+314+X12f4B7s9H/2mO0n7ni2NV8r0847poFCkAiIRs+aWm18KLLmuuj0MAKFdg7UbfXcgRatuylYGIL/8LMOA+AGxYeqWJfvJxQAFApAYMbi8DrG+MQQAAWLPOdwdyhB4ciMdj8AM9zgNAKq7/gwKASE1YeMxlvW35MfRnHO9+Fobte/RIYAwVt+7gycKg7zYOKSjnGOx3vgaA089qlCkAiNSAsfzSZb3AGJ5vnOSyZHjuT833aWLc27HNdwuHpX9/S3XhKYcyGR5yWzG6FABEaqC3wG8Ap+upPtV0tMty4XlpO2zZ5bsLOUwDO9v4TX08bt4c6HK8KJZlIBjgUbdFo0sBQKQGVs81fcCTLms+HZcAAPDA4747kMP0YNsm3y0ctr6uVrcFDWuWXWb63RaNLgUAkdpxehmgrW4Eu/KjXJYMz/rNsKPNdxdyCKVdbTxQH4/xb7CvkUrJ7RbAhvRM/4MCgEjNGMcBAOCp5pjMAljgJw+Cjf5jZallLbe3OX1aNVT9rqf/AQy/cl80uhQARGqkLsN9QMVlzUebZ7gsF67te+Dx5313Ia9jz/oXeSzi2/6+WrFjrOuSlUwdD7ouGmUKACI1snSe2QtubzDaUD+BfXUjXJYM188fhmI8ppjTxPb1871yfG7ULA8UKPW4fd9by8PfnWuiv/WhQwoAIrVkuMNlOWvg0ebpLkuGq28A7vyN7y7kNR5bv459uehv+nNAsWOc85oGt5/NOFAAEKmhIIQvmd+OnOW6ZLgeWweb43O2mXT923fzk8J+320MSV97KAHgZ86LRpwCgEgNzVjPo1ic3g7/UuEo9tS1uCwZLmth9Z26FBABtm+A5Z0bCYzvTg5fub+BUq/z3TB33bCA1D2rqgAgUkNLlpgA4/ZMwxp4YNQJLkuGr7sXbrnH+SpuMgQWHly/lq11Tu9LDV3P3lD2wfgZxqTu3agAIFJjxvAj1zUfHHkCFROzj/MLW+BXTtdGkiHYum4dd9XHa9M7aw3FvePdFzasdl80+mL2jSESf837+BnQ5bJmd66BJ5qOcVmyNu78jZYJ9mBgVxvLsvFbmKmvcwyVQeebYHX01nGX66JxoAAgUmNf/1MzYAz/7bru/aNOcl0yfEEAq+6Erh7fnaRG0N3D9e0vEP29/n5fb1so0/+3rp5r4rMAgkMKACIeBAGrXNdc2ziVHXnHa6PXQncvLPsJ9Pb57iTxbLGflVvWsjNGj/wdUO5voL87hPe35fvui8aDAoCIB4UivwCcLjpiDdzZeqrLkrWzrwtW3gGlOJ6XxsRgmZ9ueJL1+Xj+jrt3TnV+06iFvdOmcK/bqvGhACDiwdIrzSC4v/HoVyOPozvb4LpsbWzbA9/7OVTid3YaeZWAu597gkfq4znTXRnM07svlGf/f7DkPFN2XjgmFABEPMkEfMd1zVImxz2jTnZdtnY2bmPbAw8rBLhUCXj42Se5vz6+l1j2754E1v1wFWT5rvOiMaIAIOLJ9ZeaR411v/jI3a2nMJBxfqd0Tdx72jiWTg74xTOP6nKAC4Nl7nlmDXcU4nuTpa3k6N0zMYzSj9z0cZO6xX9eTQFAxCNr3M8C9GTruXNU/O4FuPe0cdx72lEAPFQ/wC3PP4bVaoFHzPYN8JPn1nBffbx/h927JhNUcs7rhvHZixsFABGP8nlWAr2u694x5k30Zguuy4bm1YP/AU8UStz84uME3fE9e/Ul6O5hxcY1sb3mf0BQztGzZ1IYpXvLKb77/wAFABGPls41Xda4fySwmClwZ+tprsuG4mCD/wHP58t8e+tTlHbFb9EaXwZ27uFb255kfT5eS/weTPeuKQRl92f/WL6/coHpdl84XhQARDyzhq8Swqr4v2g9lZ5sveuyTr3R4H/A9roKV3etY+vaZ6sbCcnBWdjxwgau2f98LJ/zf61gsI6e3aGc/dus5athFI4bBQARz26aZ54C7nRdty+T59axZ7su68zhDP4HDBr4dn4fdz/5CFYLBv0eW+zn3qcf5b/YGcsV/g6mc/s0bJB1X9hyx3cvNWvdF44fBQCRCLDwr2HUva/lJLYWxoRReliGMvi/2v2NA3x70+P079gdQlfx1L99N996aQ33xvgxv9cqFZvoDWPTHyDIcF0ohWMoRrtAiyTb4hX2ceDNruueWNzOV7b+xHXZI3akg/+rZSx8sNTMmTNOwDTFdOGjYbJ9Azy38QVW1XUQmGR9le9ZdxoD+1vCKL1m2QJzVhiF40gzACIRYS3/Xxh1n2uczOPN08IoPWQuBn+AwMCPCz18dcsadj6/HoIU3RtgoX3jJr626VG+n+9M3OBf7Bgb1uCPseHMtMWVAoBIRBSKfA/LxjBqrxz/dvo9Lw7kavB/tY6s5ZtmF7c981tKu/c6rR1FpV1t3LL2N3y1spV92fjf6PdaQSVL55YZYZVff8wU98tvx1myoqNIzF22wi6ysCyM2hd0PM28Pb8Mo/QhhTH4H8w5AwXe3Xo0DVNC2TbWm4Gde3i4bQv3FfoIEvyt3bFpFj1toaz6h7HMu2Gh+V4oxWMqhAcsReRI9eRZ0VTiz4ETXNe+q/UUzt6/kWP7drku/YZqNfgD/LYwwG+L6znn6S28q2UyzUdPrslxwzKwcw/3t23iofoBiPYTncM20DOSnr3hDP7AM8ds5AdhFY+rBGdJkXhavNJ+DEsoZyqTSh383abV5Gxtpo9rOfgfzJsH8ryjfixjp07B1MdjZUTbN0Db1m08ONDGk4WkPNR3CEGGXc+czmB/YyjlreUjNy40PwqleIxpBkAkYqatZ9WmWfw58CbXtXfkW7ll7DnMbfu169K/x/fgD9XlhJ+wOyhs2snbSvWcMeIoRh49BbIRu/0psPTt2MUzHbu4q66HYgaIR15xomPbtNAGf+Dp6Ru5NazicaYZAJEIumyF/aCFUJ7dM1i+tPWnnFTcHkZ5IBqD/+sZU8nwznIzM0aMZuTE8VDI+2lkoET3jt282NPO/dke9iVg9b4j0d/VStsLp4RW3xjed8N88/PQDhBjCgAiEbV4hb0DeF8YtVvLvfz9ptU0V9zvFBflwf+16iy8aaDA8ZlGJjWPomlUC5mWZnD9aF1gCbp76O3sZHtPF88HvTxZX6Ls9iixE5Tr2LX2DCqDIYUwy0+WLTQfCqd4/CkAiETUZSvsSQE8aUK6VHfm/pf47A63J0ZxGvxfTyEwzCznODrIMz5boLXQSEN9A3WFPJn6AqYuh8lkIP/yY5WlQWwQYEtlKgMDlAdK9PX30TFQZFelny2ZQV7MlRnIpGitgsO0d/1J9HWGtlJlKahw6k2LzAthHSDuFABEImzxCvs14HNh1f9426+4sP0pJ7WSMPhL7XTvmkLX1umh1beW625caL4c2gESIGJ3wojIq5UMf2shtBVufjD2raxrHP6Oaxr8ZSj694+ia+u0MA+xp1DgH8M8QBIoAIhE2M3zTQeGvwqrfmAyfHPiBXTkmo64hgZ/GYpKqcC+DScQ6gS04aqlc01XeAdIBgUAkYi7cR7fxnJ/WPW7cw18Y9KFDJqhb72qwV+GwgYZ9m44kaAc3rLUFu5aNo8bQztAgigAiESdMZYMnwJC2+91Y8N4vj3xfOwQzso0+MtQtW86llLviDAPUSTHH2OM7rg8DAoAIjGwbL5Zb+AfwjzGIyNm8qNx5xzWP6vBX4aqc+t0ivvCfc8Yw9/e+DETyoZaSaQAIBITx0zmWuCxMI/xP6NP555RJ7/hP6PBX4aqp20C+3dNCfswT9b18O9hHyRJFABEYmLJeaacsXwCy0CYx1l51Nt4vHnaQf83Df4yVH0dY+nYPCvsw/RnAxYsvdKkZPMENxQARGLk+oXmSeAvwzxGYDL856QLear56N/57zX4y1D1d7Wyd+PxYMNdcsZYvvzdS83aUA+SQFoISCRurDWLV/BTDB8I8zD5oMz/3X47xxd3aPAF68N/AAAKF0lEQVSXISv1jGTP86dgg6E/XTJEP182n/frxr+h0wyASNwYY8vwyTAXCAIoZXL8++T3sfrU4zX4y5CUekbQ9kJNBv/duQyLNPgfGQUAkRhasdDsxHI5EOoXX18mz88q5zKwvyXMw0iCDOxvoe2FUwkqoQ/+FsMnvjPP7A77QEmlACASUzcuND82cG3YxwkqWdrWn0J/d2vYh5KYG+geRdsLJ9di8MfCPy2bb24P/UAJpgAgEmPHbOAvgND3OreVDHtfOJm+jrFhH0piqq9zNG3rT67FtD/A3cU8S2pxoCTTTYAiMXf5Kju6UuJRILyt1Q4wltajN9J81M7QDyXx0ds2gfZNs6jRkLIln+HMpfNMqPfApIECgEgCXPo9e3qmwi+Bhlocb8T4HYyaulHfIELX9mPo3nH0of9BN/ozAe+4/lLzaK0OmGS6BCCSADd93DyO4TO1Ot7+3ZPY9+IJ2EBfIWl1YGOfGg7+1sCnNPi7o0+vSEIsm2+WYcLdL+DViu3j2PP8aVRKhVodUiKiUiqwZ91pNb0nxMKSGxaYFTU7YApoAk8kSaw1i1dyI7CwVofM5AYZO3MdhZGdtTqkeDSwv4W9G08gGMzX7JgWvnfjfObreX+3NAMgkiTG2HwvlwN31+qQQbmOPS+cUovNXsSznt2T2fP8qTUd/LHcP7KdyzT4u6cZAJEEunyVHR2UeMjCibU8bmPrPlqnrSeT054sSRKU62h/6Vj6OsfU9LgW1ppB3rHsMqPppRAoAIgk1KU32smZLA8AM2p53ExdiTHT11Pf0l7Lw0pIBrpHse/F46nU8qwfwLIxk+Pc6z9udtT2wOmhACCSYAtvstMzGR4wUPP5+RETtjFq8mbIBLU+tLgQZOjYNo2e3ZN9HH1L1nDud+ebzT4OnhYKACIJt3ilPRbLA8CEWh87V99H67QN1I/QDG6cDPSMpGPTsQz2Nfo4/B4yvHPZPLPOx8HTRAFAJAUuvdmelgm4Fxhd84MbaB63k5YpL5HJVmp+eDl8tpKjc+s0etom+mphH3DesgXmaV8NpIkCgEhKvBwCfgGM93H8bH6AUVNfpHG0VnCNomLHWDq3zKRSqvG1/lfsAi7U4F87CgAiKfKJ5fb4wHAnMNVXD4URXYw6eiP5xl5fLcirlIrNdG6Z4XvL5y0Y3rNsvlnvs4m0UQAQSZmFN9np2Qx3UeOnA36HsTSN28WoyZv1yKAnwWAdXdun0bN3Anh8wt7ChpzhPbrhr/YUAERS6NIb7eRsljtrvU7Aa5lshRHjtzNiwnYy2bLPVlIjqOTo3jmFnt2TarV17+uysLZiuXDFQqPtJT1QABBJqXkrbWvecgvwLt+9mGyleqPgpK0YBYFQ2CBLz56JdO+cSlDO+W4HDPdQ4hIt8uOPAoBIin3ua7awv5XvYpjvuxeo7ivQfNRORhy1g0ydLg24UBnM07NnEj27JxJUIjDwV93Ym+eK1XNNyXcjaaYAIJJ21prFK/hbDH9DRL4TjLE0jm5jxMSt1DUUfbcTS+X+hurA3zYhSts2Wyx/v2wBf6e1/f2LxIddRPxbvNIuJuC/MERnf18D9SM6aBq3i8bWfaAx4w1Za+jvHENP2wT6u1p9t/Na/QY+pS19o0MBQET+1+IV9mzgR3h8TPD1ZOpKNI/ZQ+O4XdTV9/luJ1LK/Q307J1Ace94KoN1vts5mE3GcskNC81jvhuRVygAiMjvuPRGOyaT43tYLvDdy+upayjS0LqXpjF7yKU0DFRKBfo6xlJsH8tAz0jf7bwuA/eWAz62/FKzx3cv8rsUAETk98xZZbNNJf4F+BIR/54oNHfT0LqP+pb2xN8vMNjXSH/XaIodYyn1jPDdzqFYA//ck+dvV881WgM6giL9wRYRvxYttx8y/3979xdaZR3Hcfz9fZ5zzs4255/8E0GUCnpjWRZdlIIEUkjeiZpaU4foRUReRHoVg5I0CiKCUFxOprOUrhL7gyCFeVOKhQlFMi8imKnppvPs7HmebxcOIsi5zbnfOdvndbWLc/HexXY+cM7v98AejOmhWwYjLvRSnHyF2kl/U2y4VvVHCrMkR6l7Er3X7qPUNYWkt3K+nnEHnRhNrWvtaOgQuT0NABEZ0Ett/kDO2As8H7plSAwKxRsUGrooNHRRnHCNuNAbumpASblIuXsipe6JlK9PpK9UH/SWvmFxjuZimvassc7QKTIwDQARuTN329DOFs94p6JOCQxRFCcU6q6Tr+shX3uDfN0NcsWbo34LYZbmSEq1lHvq6btZT9JTR7lnQiWd0x+OEvBG61o+0hG/6qABICKD1tju8+OUVjcWhG4ZSRYn5Gt6iWtK5AolokKZONdHlEuIc31YnGBRdutxxuaYORbd+ljbsxh3AzeyNMazCE9zpEmeNMnjSY60XCApF0l6iyS9NXh1v9H/n1NxxvqWRjsbOkQGTwNARIak+bjnLvzBKxjbgfrQPRLUTZx3Cz1s373ZdHVjldEAEJFhaTrgs1Nnl8GS0C0SxHeRs+mTl+3X0CEyPBoAIjJ87raunSacHQbTQufIqLiIsbV1Dfv0WX910wAQkbu2fq9PJsc2YEs1f0lQBtRn8HG+wJu7V9q10DFy9zQARGTENO7zuRbzvsGy0C0ychyOEbFl3xr7JXSLjBwNABEZcY37fWnk7MCYH7pF7soZM7btXWtfhw6RkacBICL3hrutP8gyMt4CHgudI0Nyzp2ds86zv7nZstAxcm9oAIjIPdXc7NGFOSwH3saZG7pHBtThxo6ePC26v3/s0wAQkVHRfNxzHX+yypzXgcdD98h/nDbnvYcf5HDzs1bdD1CQQdMAEJFR19Tui9KMrQYvoP9DIX1PxM7W1RzRkb7xR394IhLM+v3+KM5rGC+iWwVHhcN1cz6LnQ90de/4pgEgIsE1tXhDWmS1OY3AwtA9Y9QpnLa4hraWlXYldIyEpwEgIhWl8aAviFI2AquAqaF7qpnDJYxPDVpa19qZ0D1SWTQARKQirTjkcUPC056xwp3VGNNDN1WJq8AXRBwudPOVHtIjt6MBICIV79UPvaZ7Gs+RsRxYCswI3VRhOoEvDT6/XuCbwyutHDpIKp8GgIhUnXXtPs+cZe4sMVgM5EM3jbIUOINzLIo58tBvnNSFPTJUGgAiUtXWHPAphYzFZiwCnnF4EiiE7hphZeBHd05GESe8zLetG+xq6CipbhoAIjKmrDjktXV9PBU5CzN4wm5dQzwbiEO3DVKKcd6dnyM47c4JEn5o3WCl0GEytmgAiMiYt2mX15XrmefGfHMeAeYAs4CZQF2grB6gw6HD4Hc3zsYpP+Vucm73ZusJ1CTjiAaAiIxrG9v9/jRhpsfMcphhMA1nKjAVY3r/zw39L58ERA55gwnQf7EO9DmkBl39r+vGuIzzF3DZ4FJmXI6cTjIuJNDR1mgXR/+3FfnXPxZNbAXesieTAAAAAElFTkSuQmCC;" parent="WfICn3c8xEElV-hs6Pjb-94" vertex="1">
          <mxGeometry x="17.149999999999977" y="32.700000000000045" width="90.7" height="90.7" as="geometry" />
        </mxCell>
        <mxCell id="WfICn3c8xEElV-hs6Pjb-97" value="&lt;b&gt;Output Notebooks&lt;/b&gt;" style="text;html=1;align=center;verticalAlign=middle;resizable=0;points=[];autosize=1;" parent="WfICn3c8xEElV-hs6Pjb-94" vertex="1">
          <mxGeometry x="5.009999999999991" width="115" height="18" as="geometry" />
        </mxCell>
        <mxCell id="WfICn3c8xEElV-hs6Pjb-98" value="" style="shape=image;verticalLabelPosition=bottom;labelBackgroundColor=#ffffff;verticalAlign=top;aspect=fixed;imageAspect=0;image=data:image/png,iVBORw0KGgoAAAANSUhEUgAAAgAAAAIACAQAAABecRxxAAAABGdBTUEAALGPC/xhBQAAACBjSFJNAAB6JgAAgIQAAPoAAACA6AAAdTAAAOpgAAA6mAAAF3CculE8AAAAAmJLR0QAAKqNIzIAAAAJcEhZcwAADsQAAA7EAZUrDhsAAAAHdElNRQfkBQcNDQnQnBFHAAAPSElEQVR42u3dbYylZ13H8d/sbku3y9bOQtkWSiPFahAQkSAFQhQCohCkoC0xMRJjbAQl8sIISfUNSFKjgaiJpqBW4I0WkJoQSZRgjdCqCcaUEh6kJfZpu5V0W+Lutt2H8UW3oAE8Z3buc64z+/t8rnflzj3/6zrn/u7Mzs6wlsftyZtzRZ6d/dkZ4Ex0IgdzW27Mh3L4sf+wdup/uDJ/mAtHTwcsxYG8LR9LcupP+9/Mddk7eiZgSfbmyhzOzY99BnBl/uqbnwkAHTbyM/n4Wvbkqz75h0IHctnOXJ2rRs8BDLA3d+/I60dPAQzy+rXcm4tGTwEMcc9ajmXX6CmAIY6vZWP0DMAoO0YPAIwjAFBMAKCYAEAxAYBiAgDFBACKzfOPgC7Ng6PHBDbt/Nwx65J5AvBgDo3eCbAIvgSAYgIAxQQAigkAFBMAKCYAUEwAoJgAQDEBgGICAMUEAIoJABQTACgmAFBMAKDYNP+vQDflkhlX/HRum3HFh/PSGVf8aj4544r35OdmXPG7uW6SHcMZYZoAXJJnzLjiCTPvcdHMezxx5j0umHmP8yfZL5whfAkAxQQAigkAFBMAKCYAUEwAoJgAQDEBgGICAMUEAIoJABQTACgmAFBMAKCYAECxtWzMvGZfDs244jkzf97/izky44rLct6MK27PgzOuuCQXzLji7hw8nWOCbWg9D8y+aGPmWh+9D+A0rM9+un0JAMUEAIoJABQTACgmAFBMAKCYAEAxAYBiAgDFBACKCQAUEwAoJgBQTACgmABAsV1zXPPxHBs9JrBpZ82+ZJ7fCAScoXwJAMUEAIoJABQTACgmAFBMAKCYAEAxAYBiAgDFBACKCQAUEwAoJgBQTACgmABAsXl+Icgv5vDoMYFN25PrZ1+0MXOtj94HcBrWZz/dvgSAYgIAxQQAigkAFBMAKCYAUEwAoJgAQDEBgGICAMUEAIoJABQTACgmAFBMAKCYAEAxAYBiAgDFBACKCQAUEwAoJgBQTACgmABAMQGAYgIAxQQAigkAFBMAKCYAUEwAoJgAQDEBgGICAMUEAIoJABQTACgmAFBMAKCYAEAxAYBiAgDFBACKCQAUEwAoJgBQTACgmABAMQGAYgIAxQQAigkAFBMAKCYAUEwAoJgAQDEBgGICAMUEAIoJABQTACgmAFBMAKCYAEAxAYBiAgDFBACKCQAUEwAoJgBQTACgmABAMQGAYgIAxQQAiu0aPcB38LxcmRfnwpwzepC5Hc29+UxuyJcWcvfduSKvyzPylNHb3ISD+Vo+kRtzdCF3f1auykvz1Owevc25PZwDuSUfya2jB/l2GzPX+hKnuTAfzck5ZlrFdSIfXMBZvSl3Dd/Z6a47c9Xk57EvH86J4Ts7vXUyN2T/Mh6jU9bnmGmOS5YXgGdv4zf7Y+srecakJ/Ke4Tva6vqdSc/j0vzH8B1tbd2ZH1za87TNAnBBvjb85dn6ui17JzuRXxu+mynWWyY7j/PyheG72fq6I09e0hO1zQLwZ8NfmmnWtROdx9NyePheplhH8vSJTuT3h+9lmnXdkp6obRWAp+f48Bdmqjf8+ZOcyB8M38lU630TvZ2PDt/JNOtYLl7KMzVHAFbn24BXZOfoESayO6+Z4C5recPojUzmjVmb4C6v3UbfF/r/7crrR4/wuNUJwPNHD7Bie7lgsk+cx7skT5rgLt4hC7A6Abhw9AATumiCeyzz20WLN8WJeIcswOoE4KzRA0zo7BW5x+qYYjfeIQuwOgEAlk4AoJgAQDEBgGICAMUEAIoJABRbxV8I8t28M58aPUKS5A25ZvQISZJ7VuYflP5NnjZ6hCTJe/Lx0SMkSV452Q+ELdx2CsAd+dzoEZIkLxg9wCmPrMh5JI+MHuCUO1fkRC4dPcD8fAkAxQQAigkAFBMAKCYAUEwAoJgAQDEBgGICAMUEAIoJABQTACgmAFBMAKCYAEAxAYBiAgDFBACKCQAUEwAoJgBQTACgmABAMQGAYgIAxQQAigkAFBMAKCYAUEwAoJgAQDEBgGICAMUEAIoJABQTACgmAFBMAKCYAEAxAYBiAgDFBACKCQAUEwAoJgBQTACgmABAMQGAYgIAxXaNHmATrs4rR4+QJHnW6AFOeXKuGz3CNydZDT+fF4weIUly6egB5redArAaj//qOC9Xjx5hxbwsLxs9wnbjSwAoJgBQTACgmABAMQGAYgIAxQQAiq1OAL4xeoAJPTjBPR4avYlJHZrgHt4hC7A6Abhr9AArtpd7c2L0NiZzIgcmuIt3yAKsTgA+NXqACf39BPc4kltGb2Myn8nRCe7iHbIAqxSAe0aPMJEv5l8nuc9fjN7IZD44yV1uyZdHb2Qid+XTo0d43OoE4OH89ugRJvKOnJzkPh/MF0ZvZRK35kOT3Odk3jl6KxO5Jo+MHuFbNmau9aXNcv0c06z6+r0Jz+MHcmj4fra6HshlE57Ie4fvZ+vrT5f2PK3PMc0clywvADtz7fCXZyvrZK6d+HOq5+aO4bvayrozPzLpeazlHTkxfFdbWdflrKU9T9suAEnyinw2J4e/TJtfJ/KpXL6A89ibd+frw3d3OuvreVf2LuBEXpxPb8sInMw/5eWLfnz+jzkCsJaNmbfZN8l3cTfj4lyep+WcJX/U03ckd+fmHFzY/XfmJbk0+7M2eqNz2sjB3J5bFviNzAvz4lycc0dvdG4P5+7889L/mns9D8y+aHa5lvsZADCNOT4DWJ3vAgBLJwBQTACgmABAMQGAYgIAxQQAigkAFBMAKCYAUEwAoJgAQDEBgGICAMUEAIoJABQTACgmAFBMAKCYAEAxAYBiAgDFBACKCQAUEwAoJgBQTACgmABAMQGAYgIAxQQAigkAFBMAKCYAUEwAoJgAQDEBgGICAMUEAIoJABQTACgmAFBMAKCYAEAxAYBiAgDFBACKCQAUEwAoJgBQTACgmABAMQGAYgIAxQQAigkAFBMAKCYAUEwAoJgAQDEBgGICAMUEAIoJABQTACgmAFBMAKCYAEAxAYBiAgDFBACKCQAUEwAoJgBQTACgmABAMQGAYgIAxQQAigkAFBMAKCYAUEwAoNiu0QN8F/tyUc4ZPcTcjuaePLTQj3B2npL9o7e5CQdzfx5d6Ec4P0/N7tHbnNvDOZAHRg/xnW3MXOtLnWdf3p0vzzHVqq1bc032LuREXpG/zuHh+9vs+u98LC9fyHnszW/l88P3t/n1pbxryc/S+hxTzXHJMod+Yw4Nf6FOfx3MKyc+j7356PBdbWXdkCdOfCI/kfuH7+r01wO5YklPUrINA/DLOTn8JdraOpafnfA89uZzw3e01fW5SRNwVY4N39HW1on80tKep20WgJfk0eEvz9bX4Tx7shPZ3n/6P77+crLzeG6ODN/N1tcjedGSnqhtFYC13DL8pZlmfXKiE/mx4TuZar1iohP5u+E7mWb9S9aW8kzNEYDV+Tbg5bl89AgT+cl8/yT3efvojUzmrZPc5bK8avRGJvKjeeHoER63OgF4zegBVmwvZ50xb/fk1ZN8u/l1o7cxodeOHuBxqxOA7xs9wIrt5anZM3obk3liLpzgLt4hC7A6AXjS6AEmdMEE99g3ehOTmuJEvEMWYHUCsJy/Ftk+e1mdV2YKU+zGO2QBzqy3GbApAgDFBACKCQAUEwAoJgBQbFV/Ich3cjCHR4+QJDkvTx49QpLkWO4aPcIpT89Zo0dIknw93xg9QpJkz/b55S3bKQBvy0dGj5AkuTrXjR4hSXJXnjl6hFNuz6WjR0iSXJP3jx4hSXJlbhg9wrx8CQDFBACKCQAUEwAoJgBQTACgmABAMQGAYgIAxQQAigkAFBMAKCYAUEwAoJgAQDEBgGICAMUEAIoJABQTACgmAFBMAKCYAEAxAYBiAgDFBACKCQAUEwAoJgBQTACgmABAMQGAYgIAxQQAigkAFBMAKCYAUEwAoJgAQDEBgGICAMUEAIoJABQTACgmAFBMAKCYAEAxAYBiAgDFBACK7Ro9wCZcn+tGj5AkecLoAU753jwweoRTvmf0AKe8L9eOHiFJcvboAea3nQKwJ3tGj7BSdmR99Agr5tycO3qE7caXAFBMAKCYAEAxAYBiAgDFBACKrU4ATo4eYMX2ciadhxNZ2b2sTgD+a/QAEzo4wT3OpPNI7pvgHmfSiUzxDpnE6gTgK6MHWLG93JdvjN7GZB7K/RPcxTtkAVYnAJ8YPcBkNibZy/F8cvRGJvO3OTHBXc6cd8gK7WV1AvBv+fToESbysfznJPd5bzZGb2USG/mjSe7ztdw4eisTuSn/PnqEb9mYuZb1L86fnyNzTLPq61CeOdmJ/Pnw3UyxPjDZeVyWh4bvZuvrcH5oSU/U+hzTzHHJ8n7k5E05Nvzl2do6mldPeB7n5B+H72ir66ZJf3ryp3J0+I62th7NlUt7nrZdAJKX567hL9Hpr6/mhROfxxPyJzkxfF+nu07kjyf/4ekX5fbh+zr9dWd+fElPUrItA5Dszttzc44Pf6k2tx7NP+RXFvRz4D+cD+TA8B1udh3I+/O8hZzH2XlLbsqjw3e4uXUsn82vZ/ciH51vM0cA1jL7L5r25dBSx06Sndmfc5b+UU/X0dw3xzluzZ7sH73NTbgvRxb8EXZk/5Ifp614OAcn+U7I5qzP8ytjZrfLr52A7WiOzwBW59uAwNIJABQTACgmAFBMAKCYAEAxAYBiAgDFBACKCQAUEwAoJgBQTACgmABAMQGAYgIAxQQAigkAFBMAKCYAUEwAoJgAQDEBgGICAMUEAIoJABQTACgmAFBMAKCYAEAxAYBiAgDFBACKCQAUEwAoJgBQTACgmABAMQGAYgIAxQQAigkAFBMAKCYAUEwAoJgAQDEBgGICAMUEAIoJABQTACgmAFBMAKCYAEAxAYBiAgDFBACKCQAUEwAoJgBQTACgmABAMQGAYgIAxQQAigkAFBMAKCYAUEwAoJgAQDEBgGICAMUEAIoJABTbNcc1548eEjgN58++ZC0bo6cERvElABQTACgmAFBMAKCYAEAxAYBiAgDFduT46BGAQY7vyP2jZwAGuW9Hbhs9AzDIbTty4+gZgEFuXMvufCUXj54DWLp7c9mOHM3b/UAQ1NnIW3NkZ5Iv5nBelbXR8wBLs5HfyF8kO5MkN+fWvCx7R88ELMU9eXOuT/K//tw/N7+QK/Kc7J/rl4QA28/xHMznc2M+nCOP/Yf/Aafy+bp60E5KAAAAJXRFWHRkYXRlOmNyZWF0ZQAyMDIwLTA1LTA3VDEzOjEzOjA5KzAwOjAwUAu/lQAAACV0RVh0ZGF0ZTptb2RpZnkAMjAyMC0wNS0wN1QxMzoxMzowOSswMDowMCFWBykAAAAZdEVYdFNvZnR3YXJlAHd3dy5pbmtzY2FwZS5vcmeb7jwaAAAAAElFTkSuQmCC;" parent="WfICn3c8xEElV-hs6Pjb-94" vertex="1">
          <mxGeometry x="25.920000000000073" y="128.85000000000002" width="64.15" height="64.15" as="geometry" />
        </mxCell>
        <mxCell id="WfICn3c8xEElV-hs6Pjb-99" value="&lt;b&gt;Output Tables&lt;/b&gt;" style="text;html=1;align=center;verticalAlign=middle;resizable=0;points=[];autosize=1;" parent="WfICn3c8xEElV-hs6Pjb-94" vertex="1">
          <mxGeometry x="8" y="193" width="100" height="20" as="geometry" />
        </mxCell>
        <mxCell id="WfICn3c8xEElV-hs6Pjb-100" style="edgeStyle=orthogonalEdgeStyle;rounded=0;orthogonalLoop=1;jettySize=auto;html=1;exitX=1;exitY=0.5;exitDx=0;exitDy=0;entryX=0.5;entryY=1;entryDx=0;entryDy=0;fontColor=#6600CC;" parent="1" source="WfICn3c8xEElV-hs6Pjb-95" target="WfICn3c8xEElV-hs6Pjb-51" edge="1">
          <mxGeometry relative="1" as="geometry" />
        </mxCell>
        <mxCell id="WfICn3c8xEElV-hs6Pjb-102" value="" style="group" parent="1" vertex="1" connectable="0">
          <mxGeometry x="272" y="602.95" width="364" height="136.29999999999995" as="geometry" />
        </mxCell>
        <mxCell id="WfICn3c8xEElV-hs6Pjb-64" value="" style="rounded=1;whiteSpace=wrap;html=1;fillColor=none;fontColor=#6600CC;strokeWidth=2;" parent="WfICn3c8xEElV-hs6Pjb-102" vertex="1">
          <mxGeometry width="364" height="136.3" as="geometry" />
        </mxCell>
        <mxCell id="WfICn3c8xEElV-hs6Pjb-65" value="" style="rounded=1;whiteSpace=wrap;html=1;strokeWidth=2;fillColor=none;fontColor=#6600CC;" parent="WfICn3c8xEElV-hs6Pjb-102" vertex="1">
          <mxGeometry x="8" y="27.299999999999955" width="120" height="60" as="geometry" />
        </mxCell>
        <mxCell id="WfICn3c8xEElV-hs6Pjb-66" value="" style="rounded=1;whiteSpace=wrap;html=1;strokeWidth=2;fillColor=none;fontColor=#6600CC;" parent="WfICn3c8xEElV-hs6Pjb-102" vertex="1">
          <mxGeometry x="153" y="39.299999999999955" width="75" height="36" as="geometry" />
        </mxCell>
        <mxCell id="WfICn3c8xEElV-hs6Pjb-67" value="" style="rounded=1;whiteSpace=wrap;html=1;strokeWidth=2;fillColor=none;fontColor=#6600CC;" parent="WfICn3c8xEElV-hs6Pjb-102" vertex="1">
          <mxGeometry x="243" y="39.299999999999955" width="75" height="37" as="geometry" />
        </mxCell>
        <mxCell id="WfICn3c8xEElV-hs6Pjb-68" value="" style="rounded=1;whiteSpace=wrap;html=1;strokeWidth=2;fillColor=none;fontColor=#6600CC;dashed=1;dashPattern=1 1;" parent="WfICn3c8xEElV-hs6Pjb-102" vertex="1">
          <mxGeometry x="142" y="19.299999999999955" width="188" height="72" as="geometry" />
        </mxCell>
        <mxCell id="WfICn3c8xEElV-hs6Pjb-69" value="&lt;b&gt;Kernels&lt;/b&gt;" style="text;html=1;align=center;verticalAlign=middle;resizable=0;points=[];autosize=1;fontColor=#6600CC;" parent="WfICn3c8xEElV-hs6Pjb-102" vertex="1">
          <mxGeometry x="204" y="19.299999999999955" width="54" height="18" as="geometry" />
        </mxCell>
        <mxCell id="WfICn3c8xEElV-hs6Pjb-70" value="&lt;b&gt;&lt;font color=&quot;#000000&quot;&gt;Python&lt;/font&gt;&lt;/b&gt;" style="text;html=1;align=center;verticalAlign=middle;resizable=0;points=[];autosize=1;fontColor=#6600CC;" parent="WfICn3c8xEElV-hs6Pjb-102" vertex="1">
          <mxGeometry x="165" y="46.299999999999955" width="51" height="18" as="geometry" />
        </mxCell>
        <mxCell id="WfICn3c8xEElV-hs6Pjb-71" value="&lt;b&gt;&lt;font color=&quot;#000000&quot;&gt;Spark&lt;/font&gt;&lt;/b&gt;" style="text;html=1;align=center;verticalAlign=middle;resizable=0;points=[];autosize=1;fontColor=#6600CC;" parent="WfICn3c8xEElV-hs6Pjb-102" vertex="1">
          <mxGeometry x="258" y="46.299999999999955" width="43" height="18" as="geometry" />
        </mxCell>
        <mxCell id="WfICn3c8xEElV-hs6Pjb-74" value="sheduled Jobs" style="text;html=1;align=center;verticalAlign=middle;resizable=0;points=[];autosize=1;" parent="WfICn3c8xEElV-hs6Pjb-102" vertex="1">
          <mxGeometry x="27" y="102.29999999999995" width="90" height="20" as="geometry" />
        </mxCell>
        <mxCell id="WfICn3c8xEElV-hs6Pjb-75" value="Containerized Execution" style="text;html=1;align=center;verticalAlign=middle;resizable=0;points=[];autosize=1;" parent="WfICn3c8xEElV-hs6Pjb-102" vertex="1">
          <mxGeometry x="161" y="103.29999999999995" width="140" height="18" as="geometry" />
        </mxCell>
        <mxCell id="WfICn3c8xEElV-hs6Pjb-77" value="" style="shape=image;verticalLabelPosition=bottom;labelBackgroundColor=#ffffff;verticalAlign=top;aspect=fixed;imageAspect=0;image=https://pythonawesome.com/content/images/2018/08/papermill.jpg;" parent="WfICn3c8xEElV-hs6Pjb-102" vertex="1">
          <mxGeometry x="15" y="29.66999999999996" width="106" height="55.25" as="geometry" />
        </mxCell>
        <mxCell id="WfICn3c8xEElV-hs6Pjb-107" style="edgeStyle=orthogonalEdgeStyle;rounded=0;orthogonalLoop=1;jettySize=auto;html=1;exitX=0.5;exitY=1;exitDx=0;exitDy=0;entryX=1;entryY=0.25;entryDx=0;entryDy=0;fontColor=#6600CC;" parent="1" source="WfICn3c8xEElV-hs6Pjb-105" target="WfICn3c8xEElV-hs6Pjb-103" edge="1">
          <mxGeometry relative="1" as="geometry" />
        </mxCell>
        <mxCell id="WfICn3c8xEElV-hs6Pjb-105" value="&lt;font color=&quot;#000000&quot;&gt;Notebook Storage&lt;br&gt;NFS/BITBUCKET&lt;/font&gt;" style="rounded=1;whiteSpace=wrap;html=1;strokeWidth=2;fillColor=#dae8fc;strokeColor=#6c8ebf;" parent="1" vertex="1">
          <mxGeometry x="128.5" y="500" width="120" height="60" as="geometry" />
        </mxCell>
        <mxCell id="WfICn3c8xEElV-hs6Pjb-112" value="" style="group" parent="1" vertex="1" connectable="0">
          <mxGeometry x="42" y="590.25" width="87" height="150" as="geometry" />
        </mxCell>
        <mxCell id="WfICn3c8xEElV-hs6Pjb-103" value="" style="rounded=1;whiteSpace=wrap;html=1;dashed=1;dashPattern=1 1;strokeWidth=2;fillColor=none;fontColor=#6600CC;" parent="WfICn3c8xEElV-hs6Pjb-112" vertex="1">
          <mxGeometry width="87" height="150" as="geometry" />
        </mxCell>
        <mxCell id="WfICn3c8xEElV-hs6Pjb-104" value="&lt;b&gt;Schedulers&lt;/b&gt;" style="text;html=1;align=center;verticalAlign=middle;resizable=0;points=[];autosize=1;" parent="WfICn3c8xEElV-hs6Pjb-112" vertex="1">
          <mxGeometry x="3.5" y="4" width="80" height="20" as="geometry" />
        </mxCell>
        <mxCell id="WfICn3c8xEElV-hs6Pjb-108" value="" style="shape=image;verticalLabelPosition=bottom;labelBackgroundColor=#ffffff;verticalAlign=top;aspect=fixed;imageAspect=0;image=data:image/png,iVBORw0KGgoAAAANSUhEUgAAAVkAAACSCAMAAADYdEkqAAABqlBMVEX///8sx9QufO7kOSESrUVRUFAz4e4Z1lg0tv/7dFdOTU1GRUVCQUFKSUljYmJgX1/Gxsb19fW7urqMi4vu7u49PDzW1tZoZ2cAw9GampqzsrI0uf/MzMxZWFgueO1zcnKlpKQAqTbjJgDm5ubU1NT/bUsAqz/jLxHvVTvf39+Uk5N7enovdfUAqDNMz9qnpqYwjPIX20r2x8L87+364+HwoJj52tf4bE/sgXa+7PD7Z0UxMDDxWkDtLAB+2uKArK2d1P3c9fcvg/Azq/whtpgVvU0w3ODD2vrz+/YA1VCEzpnD587mRC3oXEvqc2juj4XztbBb0t3ulYzpaFrnVkX1wbyN3uWp5+wlIyPyqqTj+PmwZ3uNgaaidJDRSEDpw7tetO9dn9nDV11GvcZ0kcK5X2znfWV0yP3LT07ag3B7ra+qm5SRpaKk1/0yoPhBrO7b6fw8b4vJZVA0a7xMQTNhm/JLOji10Pgcwno8iI8qkNQphkSEsPQfvYwozrYjracazmcomMcs1cyfwPZxxoF4pvNJu2ta3IHf8uW/0/mo3LdQvXCQ0qNux4idhUv4AAAPCklEQVR4nO2di3fbRBbGlTZKGmlkW7ZlV45fqR2nsZ069BVo6LK0lDaPUt4sLLDAst1ld1u6D6ALFLqFlmxp/+edO5LlGT1G40eCg+Y7pyeyJEvWz1ff3LkzchVFSkpKSkpKSkpKSkpKSkpKSkpKSkpKSkpKakp1Guv8+bNnz545s78nem9/Dz91OneC0e71V569ce7V0+cnjvnU8Rcnfcjp1tmVo6xWsIDxyu71G++ePjup87w2c/y5SR3rkOiMHy3FGABfv/HqBPC+dnwmaTGL0R6NZOsAxnxfGZMuBptAssqZXT5ah+7u6+dHPgOATSJZEbSE7tFzo7VrBGwiySqmEFqA+8YIgfsbAnbmeNLSLiLzpBjaUdi6YBNKVlFE0WK2z5rDHLgPNrFklTdF0WK2b4kf1gM7c/za/n346ZY42qMnboge9G0PbILJKteHQHtd7JAU2JmZ/f30U603xNGuvClyQAZskskOhfZkfG7Lgk00WeWNExNE6wN76kCuYGr1yhBoN/ho32HBzrx2QJcwrRoC7e4CD60f7MxvDuwaplTPiqPd4ERtAOzM2wd4EdMpcbQnFzaiiovPBcBKskOg3V2IQhsC9vg7B3wZ06gbomg3FhYuhKENARtONlfrCH+q4u/KI1/R1EgULSa7sBxEGwY2dBisYWlWU/RDFVFmrIuaDr0uhvb5BUDrLyuGgg0tfNuGYeREP9Ovg6xyTgjtSSC7cIFFGw42tCBj6FmkOzXJvKmYzXLe3ZAvlxvuolkor5IFILtaLvTf2yg3h6pmTo2E0DpkWbQvhoOdOR48RxlVlBoqwWJhM9WzsEgE52uwWCPgbB0vahCtRb2X2rQstTDYpb3fFPZFImhdsjTaKLBhZYMO6ikZlIbFAtKsot1BOqBVUTGbLepFvGgjlOvVkIXRFjXdaNuqgSCwNVTLllQkbCVTpXfj0fbJDtBGgw12bvPIwpB0C272AjIgADM6XrW6WYPNsCFvIUgIbKQC2QpEcUW3FaWHIKcwDWv1gGBMVvFoPbILF06Tt0SDDenclhAQbCNMCpMloYjDNdvfXMFQMygFiyYkZ0W95L2riIgn2DjoD6VejUM7IOugfS8abEg6WyHxuIo0BchWyLocYVVuF/VNTS9jjIN8180NiH0YWq6NVRPPLKZMGO3KCU7N9vkFBi0HbEg6iw3ArmNpQKzg2C0haxYtK93pAfgosroKDZuFrMNKVnnr4u/f/+DDi1FwabILF/4QzTVs5LZtGEDH0rUOkFXJyg5OFTqoA86gYrJZYhg4sBssWRU1FdM8nFmXq48WsT7+5GI42Y0FBu0feWQDh9b1ehZU0rHFYp8lzokwMhUaNtx4YTcoWAasLWxusmQ7qE7WZ/OBwx4SfXQMtLj46Upo2DJgF5b/ziEbGFHIus5KElXIuio4FegYkARA658vgs8qFSOXVxppvcOSLVs67hVnrc3DWkr48zFXi59/GNaaDUE2kBoUrbq7lLU0aMEMbJu6hVE1LWRULL0CywW8Em+o4NhMWQ5ZC76RtmVVVMuyDxDGJOWBhbD9U9ARTvrIctwgmBq0O96dnOtgsql8O5XKkfy0kUuncvlSBzq4ebuYrpHcqkdeK6udOvwpd/A+Bf9BD4kosMA2iPZ5luxNXmoQMxGxnxskQixYQOs3BLYBW36BYwZxQ+JJIusHi9H+xdeMMWA3PuOBjRu4bW6qB3JVU6AgWKxdjs3yXDZ+qMasZ2P2+LXot2FgFz9mrJYxg+W/8kI2kfO9QxUKFqP99GKEGSzbPLAJn3lEKQIstGIroWaw/Dc+2MTP4nAVCRZrJcwM4sAm7iG7CPHAUn4g2PkiZH/pS5oO3QKAfQXRfrLiM4ONDW7jtc9mYGZzqYqqqjC0U9dUbYpL4bcw1su3b68T3b59+ZiP7+cXWTNYvslLt5yQHSUzyBRrtWLsOHgJ6YamYbIwblPBZKe3w3Hr2OX1I9XqkeqRI/CvWq1eWr99jIK7+AHpiu0KWiyIO3O2WQEFs9kaJmZUQt5AK4dUVwiTTWOyqXEufj916/YlYMoK0719eQCXqhks34x1grj2S9VAKFDFruFIjIvAjIWZajoCmdNN9taRIFeX7pF1F+7i+xfd9mtDJGBn+Mls04k6PRC0ImRV2KeSaeTzefhmppjs1WoUWAL3ErYFQLvrhOzyZ7EOGx+yOYOQ1Yr+DR1L163AWkYFBGAHr6eX7NUuh+sgcBffXzkqaAQgrsua5H6GFqjh35IplzP8ka6Szgb71JK9wwtYynIX/4H0f958gVONZUKWmxhkMRytg+PWqA//gW38PkR9I1NLNqTtCoX7r38bBhLDisHyp3oXcbzqJo5abYQqIjgJ3fRNK9kvxMA6ZL8UJct/VmkVm4GRc4Jv+MHCQ0L2qziTdbl2v76rffnlf+YEyfIftiVIm0rDAk8Y+iMTstTrcLJO3vALSixgMddntq58880clogXxPS+MBoNJh+BKfhT2rpt1/vLzbZtw+CjWe7Ztl3CjRf+Y8O7tLbtCfdyfWSb7bSh425auk0NRuZtu83cIGXbZjrFsMPkZkF/K+IF3fV7z2zNz19pLX0HaOdOjQk2g9ymCxoyZ0LcYJtlGFa/4Vd1Q0/DZFpMyTA2Vxub+I8BOYVqDKT6yDbTyNlH1Qwr5bGtw5Gpr9GE1zTaHDJ0bRSIYTIFvKDa/R64zs/PYs254oKNKx52NLdxN/VAtyBDp1Qq2VzR+z3Zhter9Ykma1sEq6Y5f7z5DdA50amYJPkJ/Y1oxPwnJIGQ7X59/xngOn8Fg3WDlg83Dmwe7NWZuAWWyU6GDZBN1QyHk2bhmNWxnJjVPbFk24h0fY10Me3sivrzPsCDKHIdsnGQvRV85MeSGQu22n3J4eqE7GxrjlaILczNxZa7e4YHD+LIYCbH+8lipqqGDKiAYSqZUqmUhQ6wUfKUZXyW1BSMCulsmJkKfCuWi4tt+UxyJ1BeVDeCpj+yfogj212/3wd7hZBdujfn1ykaqwBYqPqpOrVs0BsDZPHLDjvFm5t1QcTqg8iE3kj/BHBo5NluRvd1r6EYWYv98IKK6yR0/7u1NU+HLEb7cgAto3iwBTpOIX6Zx5KCZPW67wA8sj3dV4xIa15gmnBimz4K3mZ5z/VYYQWiEXUnpv3CTdf8vI9s6y4XrMCzoARMP3Qoz3UUdINAeYZHFu4BxrjLaNBI1ugSOWk8tcG5oEGzJjV7NKb9GlisZwZYa9+NB9ZkK1Vgmoi6oABZPdBJ45AlfQ82t60MAhNKOf0SECauFfHJvJ5KZ5I9uZiIvUeB7Ycs3w9Enl725bCEJJVVBsiiQBxxyMK7fUWetuF9O+SGL3mrjZ5iDY4UfOfo4psBE7E02dajccA6/S6KlsEWW4MxGzgChyyVdvRFf5PpQSOlkfDFd4ybaIFroEk9DMXNDBiPpcwgPD8gEvolg0CtoE3b7rhkQ2o8dBgT8OSduBkFy816dgAfY2IdMF6Vq/o1A5YK2UirFfuJCNufDLh1r74mQJaduNykMoJV1AePdwTcedhIDoXt2JjYU6dcM5ifjyY7u/RgVLBOc8+sSWn9QAKNR5bcAOw9TZOFETSHHwZJ9sPe5D6eNlJBM1xXOSHbfWmLAXuFJTvbCrRigmBJElTLZClBL3PgjRMgGx2zZDv0GzBIx9xxukBuGDICJHYJ8eLZ7DrrBUGysy+PBNbprGs6LY1JWifgBuyPUpR1imy/ncI9WWcdSRcUErsjVIojxLHZ6vdsyPrMIIhWdJ4RXEiovMrIeGTrRiABJi2Yl9a5L/pm4NhBk4x4TqwDxstmu3fjyM62Wg+GB0tuulB5UTUe2VKw4MsmYtAfKCoN5GV6YAdtp6QwqQ4YL5vt3uebgS9DEJ8ZBx0izfBLo1q18cgSU2VrrKQY7FkvZLfILBneV4mzQE2FQwZ70aOK24Dd4zdgbobw6MGQYAtW6AQY0sN17+HxyJrI/w4ys2GQepDbPoNP6MFOw7LKdgTHE68Bq34hQna2tXb3uwcP7v0ofE5g4rtZQRl90HsYjyz5kpgzQJtGt03QVNXo0mUPwlULmVMysh5yGrAj5h6DNhwssF1aW1taEkVrkjp0SHEZ3NdlNSbZMgnaQUYLJUuV/gkrcGKNLrdDJgseNbnHp9YjyWKwinJtfkuArGsLP4udMqur4blNexDLY5IlZQnNG3TJAliDPqU7lEalZhWNaULHFwfsHdhOo40hK4q2qEV0dFYHlcVxyeYJOZQqlQvlXpqMkRnMXZJ2QA5W1A0f6jH1XuS8zuodZ49rwjEriLZhBXq2fcHlOgnmuGSVJhm61QwE08JhydfbJSDp/GHV8qEeU1Hz5DywdNTGksV5QvwpSRpfD90EPuFYH0OWjK4GdiYDvj6yVMLRqDiju0QaSvvSVALSou+cykSHwyOTrgFYCm082dlWPNreJrIi0nETfuWAkF3dtKzNfkZUw2uDSVoP70LPt+/4f1gmm7Z0kijrVipkvj7encldS/DjK5P7naqvwsnSYAdoBciKoM1z5lrhbc6CSe/krQ3fN3KvRqbezrXrmdBMKrC7OdE5YOHpLAsW6/6WKFkRtIlQaDobAOuijegpBNAm97/7oBRW6eoGwTpoxchKtEQhHYXq1dA9f9oStAOoLUq0yqVgxIaDJWgFyUq0SkgXLBIsoBW0A4lWCQ4vcsACWlGyEq1/SnL3K+7uPwkHLUa7d0DXMJ3yjSjEgMVol8TRthKNli0bxIJVlB/XJFohMWWD7g8C73gq0Qrpf9UhwSrK9hBol5KLlirICIJVlMdrLWG2yUU7ICsMVlH2ZsXbscSi9UpdQ4BVwBGEw3ZtZ78++3SrT7b77XDv2/tZmG1C0bpkhwWrDMM2mWidhz+qw4PF2ttuicFNJFpCdjSwoJ2nQnCTiBbIVh+Oc4Sd7dm1pVYM3gSifVgdEyzo2s72oyXAG8137fEkPu1h0sPq+GAd7e08+XG2BdO7QgknDu3D7hcTPd61vZ3H208fAeI1oEzUAq0lrF57Z6gOwjC6tre3t7Pz+PHjJ0+ebG8/fbq9XyeSkpKSkpKSkpKSkpKSkpKSkpKSkpKSkpI6tMpP7ifYBVQmz2iah+P/Xy2L/DTH/wFqyxRIs9tnvQAAAABJRU5ErkJggg==;" parent="WfICn3c8xEElV-hs6Pjb-112" vertex="1">
          <mxGeometry x="3.5" y="39.75" width="77" height="32.58" as="geometry" />
        </mxCell>
        <mxCell id="WfICn3c8xEElV-hs6Pjb-109" value="" style="shape=image;verticalLabelPosition=bottom;labelBackgroundColor=#ffffff;verticalAlign=top;aspect=fixed;imageAspect=0;image=data:image/png,iVBORw0KGgoAAAANSUhEUgAAAVwAAACRCAMAAAC4yfDAAAAAYFBMVEX///9yjpu5xs1sipe2w8vf5ei+ytFqiJaywMeJoKv6+/vq7vDP2NyXqrS6x87W3eHx8/XEz9XL1Nmmt7/d4+eRprB4k59jg5KqusKhs7t9l6Pm6+2Dm6earbeLoaxfgI8K8Ot1AAAM5ElEQVR4nO2d16KjIBCGYzfosaWZdvb933IZsCKDaDTlkP9iSzQIX3AYZhA3m69GVfy8ugZ/V+R4Sl9dhz+rJLBur67DXxUJLCsoXl2LP6rSsSzrQl5djTVFskbkqQ2NgK0V+M+8pqYIKu0iMi/OE9u2XS4blPh5IZTw+IXkOjO4lvWGXbf8d5JLb4gg+7wBKigRWmuHiPYPNcALONugfKgYHU3uCGH1uw+01fhyVthSrlK4PnKe602rsaBtXeEgmlnCPs/zajxMc6b4OjhCf0U/oTckq2xGP8/4cTic1xIdwgfgkgIn+zS4eVBX2DnMLYI2I+SVhRbR+9ANC/EIHII71I3pvzPXDgFu6roJ/avG4Iouy3y4VyXaJ8ElnRrPdMcIqwTvqwX9Zw4DiAu2irjtkYiyjb2c/j9icF0O14ZxFE5LqOzF4O5H2D4H7q5b/eOsMY12kpx3SAaX0iKUoV0fsZsjOf0rYWcO4NLfQjY2z4WbjrF9Clwv6FbZmTWmxa57TWzuyVGEcJ9Tqi7hRzjmDfF5PalxyOVwZZoJ9xqOsX0K3Fu/zqc5YxrFBl0VYNVwK3gJNbg5x5hxewA4V4ebjfbbp8D1A6HSv9PLoIY1gT7KatHruQTQpfxIjZPf+/C/K8lIbNdw5W2YBzcfZ/sEuNmg7kE+uRDPpVaV0mSDEbe5WcL+Yh9WR2q41YXZSMc6WDWg+eCJ+eKNMwvumKPwJLgHSd0nG4YCKkBp+WTDvYUkcbmPUMDdTo9AQ6DFbXs6N27tLbCWXIWyZ8HV6bjrw81Fo0DlTDYMdmVeWccsbD6Ltz1WYfoZYX+CJybAzYui8Bu4CXPFloCrY3HXhzs0CnMMA7RlA92FjUlgc+N0fyX8CDSB9d/WLDQ2d60BbdwNewbcrbzmTjb+1Y7AXQ9D8H3gV+E2l8sD61AfqXF69Nx14SY6bNeGO/AU5hmG1sK5m8ZbYCraKhKYxjFXbA++xZpwiVbHXRluhFR7YmSXJNVIz+F14ApHfA4wtlf2c7V8hbXhIkaB0RXHFYUiPhdj41ragwvGOOP1hiMx8ycyftowthBHTELpM+CqTW4b3F0TbkmNwu2AVP2oX05a+WBV7KADlxuADeusPmftFxDSkQ1oVabAFkqfAbdAKDFSfhplPMEgDixLwk1PlnXxb0jVnbN2QbnrcvdiH7oUW9ECao54oQthx2vIEy1wW2Suy0OOIQs5VkcWgYtRokoUoBaEmwHBsMTswoTgo+d5/F4me88jmyv9f3Vk3zmyZzNfLy7iPevmxPPYPyJ+utdIKH1RuKKZ1fraDLi/juXc/QsK13LmZiWWVXgK5EJzaASF6yqblLhyhZPhhmBw/TM+pFGbMbXMVZRipNCZDkHdXPXkaI8oneb104Io26NrK9BSw7CbWOibCIWLOHtLixnc0sdchZru9PjYOwiH+xxDRz1c58fHR7Pa7E7wdt9HL4bLPNwkwdywjtl9w1Uio3ot3JgZ3GSnGs2qrvuJi3ZfCjeiswerTJLjKFtqdkWf/gP0SrjkAj3S93/GOy7Q/bwl0a+Ee+YGN9RBC5rq5b1cL4Trc4ObbMexMjk6C97eSq+De4X4ODW4GqNZbRjCBS9P9snuftjebtvfw85OV2nty+Ayg3v3ba3RrKa7lNmN3JsTBE79s8K/j+d4cW/vZXAhmHAJbc3RrNJxzOx6hVzd6SbJf0+yVHPghMrirzGi3k9+7chDYwvptSfhStEVkeaowzPpjjOh31oaC0tLeeTqdG9PSY5Ivo7eGU6o6L16UbFeRAtja/ejXWImAo2K6YUkIrSBagWJulwk5toG3Pc4Wlb+EY/q6cVzFfFxVAvn0BTR2xG66vLH4JansQuc0BjRp8Dd0e6z/dlOswlc6mW7arjkoHHDoD7Jh8BlIQU7oXOz6XADZUpNCZdc9KaCyET7M+BCDJd6uPTs6WxHUmoquJkeW2oZ4g+Gy2O4tu3/zoFrBQqHRAVXsThClNT0fARcn4UUaJGjIXK5VP6YAu5O30GRZ/M/AS57ADUEuOMhcrkUS5xwuPGon9A9X5b4+AS4kEk/A1v9oIIo/AlAFC6Rfo5J2nU/AC4YhS0MZlOCCmLb0fgYBre0p81aHInVfX+4GTTShY6rXKkwIjQbjAGY+kPKXJL3h3uojIJtz++4IMRjQAFMlWTQfHu4BVteA+XdH8Lg3OXlLwY3+Dy4BLpryLZzeKzjYqHd5eAO2/HucMuATh/YaDYpjCuTfNmuDlzHgeD42ElDd08Prt5TECvA9WAhLru6O5XlQPL4yijcwNned6FtlwdL6T84w+VpenCLvCMUp5/3tATcGzhFy3RcZGHpCNzgmDcjYeZbqpOH3t709blz0zxz4MJotmVfTGYjbTXN0edf6d/r5EfReYdm563htqPZg65CJVncXA13MKlVxRsGzt5bw7Xr0exRH1fRKBVcR1I1RUZk0P53hgtR3CM756HJWUcSd0wBVzqrK/Bk5aCbvzPckHbcO7taMjuDJmi4nF8BV4qAoPfQ0Oi8MVzYo/HI2ZaLefqDlAEOF5l1oNY/GKSx3xgudFweVECfOJuuQbMUPRdpB2YXhj/G+8JlFpd3XHepjishgALAtiPao3D174qXw/WbjpuMPFwySWLwCgUwZMV11f/C28KFZXfH6pRl/LAKgTCm43CRGKV8Ew3ro+DGrauwkB/GJU7TUADYWhI0/fNBcCGJXm0Xu9xwBjr1oU0HgBX8OXDhyZIDjypoL9LXkxAuQAGg6Xis4M+BS+vlhNwqLBJW6OgmXkgq/EkrrNzPgXuEDRXY8YWtgjikGQg3bYezxfIwDbaeA2sgXFj+4a5jFQS7YB5ccHJv/DqqPStmqmcXzIPrNVZhgdzZkEJ3Oa15cKFWla8wf30YrptwKZn+LtzfOue7bFyhVnceYRxciOQeKrjLm9x+aMw4uGByd5UjtgDLIQbXYLgQj17R5PamtsbBBde2mp7NeHpHRwbDvVQLG1eY+1ZqY7XGwW3Hs0Xj5B0O7TVNg5s1CR7bXsXkdjmYBnffOguL5dQFDu0czTS4EBJb1VnoBsZMgwvpsyrDs3xIjJNrE2mmwS0oXH5sLU+sQ840uLAnSAV33rO+wCZAXv/I1bbOXLi+7iZXQzSZWsbCLVq4sx/21d6VyTS48QJwkbVIQ5kGN228hYfgkv7LcEu2lDkqmw9sI+HuGz/3IbjFyekqYKGwtPmw2n/KNLhRUD0f9Rhc8ZVeHG7Q/79xcEnzKPVsV0wDbkXPNLhQ/cNjK3N14J7NhHuo1zIl98lY24aOwQ3NhAuVemxprgbcavcJ4+DGdQ5tdshRB65nJtzs1ETL14NbpXqMgwtJNP489dw0jwbcmxrA34W7c+DtO1Ta25NLGqqGW4d0zYMb19OIuSPaONx6NyXz4MIDfszTnbviRgNuZCpctiyEHZ25Vmwcbv2ItYFw4zq7rpnoETcF/zcGt8n/GggXWsAmaXobjx4G+9lTPytXRcVOdWVNhAuPSpW6GzjKt8Hcl/14Lnv+7Mo/LMPOhYyDS+cR+hvhqTYfHpOJcNkrN1jX1dgPAOCSor/xlu47G42EG1W7PevMIwCu8MKLE7JbwkBGwoWuy1aMaQRvAK6w8MnRfeWRmXDZDvtwwvgaXRTuPvG7Sibscfu34W5c6uvCg+vj3hgKV3w5Dk+bZSG/MDEYLjxczca00XU3OFzhQw7M+8dIG5pDq+TxF/eNbyA0ES57aZ2xwfKmcvX7IUZ83Tlwa3jGwm3ebGKrwzdz4NZPV5sLF3bad87+2Jg2A26z/NlcuGyHNPB21e9GnAO3njEbDJfHDanLoIzrTofbbjBqMlz24npr5ytTEpPhdt6EZDRc9pZqandVZncq3JNj7spyGd2fxMdzlVPh/utgMBwuswzO1sbpMrhBP+9Q4nC97ksHTIe78eHNZJfSx5blAVz/p6dDLmld5X9l3Q0HjYe7iXlzfWRFKZqJEFon24T8C3dzvYBpuCD5NBxuMExRagIwCO6G3BUvaEDhFuddR9KXqH7hgmLFG8+/CcoH4W5IiL3ZiSUo46K7bqGQvXBTpi/cStGP/IWmsgTlN4c2ES51UW+y3gtwBSe4u7uVUl+4HaX3YGB7v3AXgkvnAPbl1OeLw83itFJcyKtXCjnMxq6g22rLz+eL//oS86ONbrJyQcR25QrVcBPsa1PhUl3trdXpwDjc+F8Dy0aKShGh1cK+kA58lijdS4WXvYkQXZG9/0e+Fqm/hilLw8MFlo7CkkUcbr1i9DjjJzRbJLvGfrg7HyRwubdQwQ3O837Br7j6cINTwj5lcB1Le2uLr6Rq4TqBdajfyknhBpau4/AVJli35zjByTqEnZElPgXlA3Pjr7jCw08Z5mnWN65pqEL7H4UZOTOosglgAAAAAElFTkSuQmCC;" parent="WfICn3c8xEElV-hs6Pjb-112" vertex="1">
          <mxGeometry x="6.200000000000003" y="88.38" width="73.6" height="30.67" as="geometry" />
        </mxCell>
        <mxCell id="WfICn3c8xEElV-hs6Pjb-113" style="edgeStyle=orthogonalEdgeStyle;rounded=0;orthogonalLoop=1;jettySize=auto;html=1;exitX=1;exitY=0.5;exitDx=0;exitDy=0;entryX=0.008;entryY=0.409;entryDx=0;entryDy=0;entryPerimeter=0;fontColor=#6600CC;" parent="1" source="WfICn3c8xEElV-hs6Pjb-103" target="WfICn3c8xEElV-hs6Pjb-78" edge="1">
          <mxGeometry relative="1" as="geometry" />
        </mxCell>
        <mxCell id="WfICn3c8xEElV-hs6Pjb-121" value="" style="group" parent="1" vertex="1" connectable="0">
          <mxGeometry x="800" y="200" width="150" height="59" as="geometry" />
        </mxCell>
        <mxCell id="WfICn3c8xEElV-hs6Pjb-118" value="" style="rounded=1;whiteSpace=wrap;html=1;strokeWidth=2;fillColor=none;fontColor=#6600CC;" parent="WfICn3c8xEElV-hs6Pjb-121" vertex="1">
          <mxGeometry y="4" width="150" height="59" as="geometry" />
        </mxCell>
        <mxCell id="WfICn3c8xEElV-hs6Pjb-117" value="" style="shape=image;verticalLabelPosition=bottom;labelBackgroundColor=#ffffff;verticalAlign=top;aspect=fixed;imageAspect=0;image=data:image/png,iVBORw0KGgoAAAANSUhEUgAAAgAAAAIACAYAAAD0eNT6AAAABHNCSVQICAgIfAhkiAAAAAlwSFlzAAALBQAACwUByY3ISQAAABl0RVh0U29mdHdhcmUAd3d3Lmlua3NjYXBlLm9yZ5vuPBoAABmkSURBVHic7d1/sN11fefx9+fcm4RAQFFgcUWcbbemw9a6tsqyi+3alu50sa67QNIWf5FkJUNIYNnRJO62emY6OyQoLQsEJ11DEBAs6lrGutop2p2ttV23ndFtp1voqFUUUn7bQM2Pe89n/yBofufee8735+fxmHEGwrnnfvhDz8vv5+aZFC21afv2F+XR1PKYnVo+SHl5jnhVRLwiRyxLESdHxOmR45RIsbjpswJQoBz7IsVzEfF0RDx34D8Pp4iHcoq/Sjk9mKf3PbR17drvNnvQo0tNH+AFw23blu1JSy8YjeKilOKiiHhtRAyaPhcAjOnrOccDg0F6IGLxA1vWvfXppg8U0fAA2HzbR0/Pee/KnPLbU04XRMRUk+cBgIrNpogvRYq79+xN99103apnmjpI7QNgOBwOnjvj3IsHKd4ZEW+OiCV1nwEAWmBPRHw60ugjSx/79meHw+Gozm9e2wAYDoeDPWe98tI8ysNIcV5d3xcAWi/HX0bKW5c+/vA9w+Fwpo5vWfkAGA6H03vOOnd1zrEpIn6o6u8HAJ2V4mtpFFtOeuJbd1Q9BCodAJu27XhDRLotIl5d5fcBgD5Jkf9vGk2tu37DFX9U3feowHUf/vBLluwdvD9HrA8/yQ8AC5FTynfPpEXv/uBV73hs0m8+8QGwcdvOS1LO/y1SvGTS7w0ABXoycqzZun71/ZN804kNgCu3b1/04v2Lfj2l2DjJ9wUAInKO3zr5rGUbhitX7pvE+03kg3rzbbf/UM7x2xHxukm8HwBwFDl9eTbP/PIHN7zrG+O+1dgDYPO2na/PkT8TEWeO+14AwAnkeGoQ+RevX7/mj8d5m7F+QG/jrXf8XI78+fDhDwD1SPGSUUq/v3nbzl8Y520WPAA23bbz8pRGn42IU8c5AAAwb6fknO/fvO32X1noGyzoCmDjth1vTZHuDL/FDwCaNEoRb9ty9ep75/uF8x4AG2+94+dSGn0mNPwBoA32p0j/ZsvVqz43ny+a1wDY+KEPn59Gg89HxLJ5HQ0AqNLfD3K+aD4/GDjnAXDgt/r974g4Y0FHAwCq9HgapPO3XLXqb+by4jnd4V+5ffuinOOj4cMfANrqzDzK9w3vu2/xXF48pwFw+v7pGyPigrGOBQBU7fXfe2z39XN54QmvADZt2/nmiHz/XF4LADQup5wv3bJ+zaeO96Ljfqi/+0N3njU1O/P//ME+ANApT85M7//RG9eufeJYLzjuFcD07MwNPvwBoHNeOj2zeMvxXnDMJwCbtu14Q0T6X8d7DQDQWnmQ84XH+q2BR30CMBwOpyOlW8OHPwB0VRqltH04HE4f7R8edQDsOevc1ZHjNdWeCwCo2Kv3nPHKdxztHxwxAFbcd99UzvGe6s8EAFQtD/J/OtpTgCMGwD967LnLI+If13IqAKBaOX54z5nnrjj8lw8dADmnSHljbYcCACqXc/zqcDg85DP/kL95z7adb0oRP1bvsQCASqU4b+8Zr/yFg3/p0DWQ4p31nggAqMNsyof8MOD3f5vf5ts+enrOex+NiCW1nwoAqNqevfvSy266btUzEREH/VTgnl+KSD786ZQt61Y1+v0337az0e/v37/sf3+Yp5MWLx5dGhE7Ig66AhhFvK2xIwEAlRtEevsP/joi/sNv7nxxyskf9wsAPZYjLhzefPdpEQcGwJJF+V9GxFSjpwIAqjb9vek9PxXxwhVAip9p9DgAQC1yHvxMxA9+BuBnGzwLAFCTdOAzf7Bp+/YXhfgPAJTiNRt37Dh1kEdTy8Mf+wsApRgM9k69ahCzU8ubPgkAUJ8ceflgkLIBAAAlGeXlgxxhAABAQXKK5YMc8fKmDwIA1CdFvGKQIk5r+iAAQH1S5GWDFLGs6YMAAPXJMTh1kHOc2vRBAIA65VMH4QkAAJTm1MGJXwMA9M0gIp5t+hAAQK12D1KK3U2fAgCoU9o9yJ4AAEBRUox2D3LE3zV9EACgPqMUuwcp4jtNHwQAqFFO3x6kiAebPgcAUJ+U48HBKCcDAABKMkgPDmJq1gAAgIKkSA8O0mD2wYjITR8GAKjFaLRk9qHB1rVrv5si/3nTpwEAavHVG9as2T2IiMiR/qDp0wAA1csRX4h4PgUckcMAAIACTOV00ABYtP9/RsRsg+cBAKo3s2S06IsRBwbA1rVrvxsRf9zokQCAaqX44vCat/1dxAtPAJ53d0PHAQBqkEbpru//9Qt/sWn79hfFzKJHI2JpI6cCAKq0Z+++9LKbrlv1TMRBTwAOXAN8prFjAQDVSfl3Xvjwjzj0CiAije6o+zwAQC3uPPhvDhkAW69a8z9yxF/Uex4AoFI5/nLpYw//3sG/dNgTgJRTiq21HgoAqFj69eFwODr4VwaHv+TrZyy7NyL+urYzAQDVSfG1pU988xOH//IRA+DjK1fORqQP1HMqAKBKOeK/DIfDmcN//YgBEBGx9PFv7owUX63+WABAhf785Me+ddfR/kE62i9GRLz3ljsuHA1Gf3i81wAArTUa5PyG69evOWrp96hPACIirt9wxR9FpI9Udy4AoDp5x7E+/COOMwAiIgazeWPkeGryhwIAKvTEIE+/93gvOO4AuP6a1Y+PIt4ZEXmixwIAqpJzSu+6fv07nzzei447ACIiPrB+9e9GxM0TOxYAUKUbb1i36ndO9KITDoCIiKen978n++OCAaDdcvry0jOX/ee5vHROA+C31q7dPxrNvjUiHh/rYABAVR6bidmVw5Ur983lxXMaABERH9zwrm/kUb44Ip5d8NEAgCrsTmlw8Y3r//035/oFcx4AERE3bFjzp2kQb4mIvfM+GgBQhf0xihVb1l3xZ/P5onkNgIiILVet/kKktDoiRid8MQBQpVHk9I6tG1b/3olfeqh5D4CIiK3rVt2TRnlleBIAAM3IsS9FvG3r+lUfW8iXj5X53fyh2382j+JTEXHaOO8DAMzLcynSZVuuXvW5hb7B2J3/jbfseF0apM9ExFnjvhcAcEJP5pR+8YZ1q/5knDdZ0BXAwW7YsOZPZ0ezF0ROXx73vQCA4/qTmTz6yXE//CMipiZxmi999tPP/Pz5r71j9pTTckT66fAnCALAJOUUccvSM5ddfv2qt0/kz+iZ+Af1pltvf0uk2BERL530ewNAgZ6ISKu3Xr3q05N807GvAA63df3q+1Na8iPp+T8/wG8VBICFySnluwazcd6kP/wjKn5Uv/m2O34y59GHIuL1VX4fAOiZr0TE1VuvXv2lqr7BxJ8AHGzLuiv+bOnj3/oXKac1EfHXVX4vAOi+/FCKvOrrZy57XZUf/hE1/rDecDgcfO/MV74pIg8j4ifq+r4A0HY54i9S5A8sffzhe4bD4Uwd37P+n9bPOb132x3/ejbld6SIt0TESbWfAQCa971I+f6IuHPrVas/FynlOr95o79db9P27S/KM9OXDSK9PUdcGBHTTZ4HACo2Eym+mEbprrxo3ye3rl373aYO0prfr//uD9x5yvQpM/98NIqLUoqLIuK1UfHPKABADb6eczwwGKQH9uyN37/pulXPNH2giBYNgMNt3LHj1Pj7WJ6mBq9KOX40R14eEeekyMtypGWR48URsSxSLG76rAAUKMe+iHg2UjyTIj+bIz2bIx4eRHoop/irFOnB0ZLZh25Ys2Z300cFAAAAAAAAAAAAAAAAAAAAAAAAAAAAAAAAAAAAAAAAAAAAAAAAAAAAAAAAAAAAAAAAAAAAAAAAAAAAAAAAAAAAAAAAAAAAAACgQHn4xuk8fON00+cAmuG//FCoXU+d8b5IOUfE+5s+C1C/1PQBgPo9suGyn0op/iAiUhqlnz/71o9/oekzAfUyAKAw37zq8tMXL9r3lYg4NyIiRXxnZnb2Neds+9STDR8NqNGg6QMA9Voyvf/2OPDhHxGRI14+NT31kez/EEBRDAAoyKPXXHp1TvnfHvEPcrxp17WXXdXAkYCGWPxQiEevu/SfxGz6PxGx9Bgv2TvIs//sH9zyqa/WeS6gGZ4AQAG+ccUVJ8VsuieO/eEfEbFklKbueeTKN59c17mA5hgAUIClp+3+rxHx43N46XmDpUt+o+rzAM1zBQA998iGyy5JKT45n69JEb9y9s2f+FhVZwKaZwBAj317wyXnTKXBVyPiJfP5uhTxTB5Mv/ZlN33sb6o5GdA0VwDQU3nFiqmpGNwV8/zwj4jIES9OefZuqWDoLwMAemrXy/L7I8UbF/r1OecLdz390l+b4JGAFnEFAD10UOp3asy3GkkFQz8ZANAzh6d+xyUVDP3kCgB65vDU77ikgqGfDADokWOmfsclFQy9Y9FDT8wh9TsuqWDoEU8AoAfmmPodl1Qw9IgBAD0wj9TvuKSCoSdcAUDHLST1Oy6pYOg+AwA67Dv/8ZdfMZiZ+UosoPY3Dqlg6D5XANBRecWKqcH+mTuj5g//iOdTwTGa+e185ZWL6v7ewGQYANBR46Z+J+D8XUuf/NUGvz8wBlcA0EETTP2OSyoYOsoAgI6ZdOp3XFLB0E2uAKBjJp36HZdUMHSTAQAdUlnqd1w53rTrmkvXNX0MYO4sduiIGlK/45IKhg7xBAA6oKbU77ikgqFDDADogBpTv+OSCoaOcAUALddE6ndcUsHQfgYAtFhTqd9xSQVD+7kCgJbKwzdOT83O3hsd+/CPkAqGLjAAoKV2PXXG+3LOFzZ9jjFIBUOLuQKAFmpR6ndcUsHQUgYAtEzbUr/jkgqGdnIFAC3TttTvuKSCoZ0MAGiRR69dsb6Vqd9xSQVD61jk0BIdSP2OSyoYWsQTAGiBjqR+xyUVDC1iAEALdCj1Oy6pYGgJVwDQsC6mfsclFQzNMwCgQV1N/Y5LKhia5woAGtLl1O+4pIKheQYANKQHqd9xSQVDg1wBQAN6lPodl1QwNMQAgJr1LfU7rhTxndGiRf/0H9547xNNnwVK4goAata31O+4csTL0/4ZqWComQEANept6nds+WKpYKiXxQ01KSD1Oy6pYKiRJwBQg0JSv+OSCoYaGQBQg4JSv+M6b3DS4t9s+hBQAlcAULESU7/jkgqG6hkAUKFSU7/jkgqG6rkCgIqUnPodl1QwVM8AgIpI/Y5NKhgq5AoAKiD1OzFSwVARAwAmTOp3sqSCoRquAGDCpH4nSyoYqmEAwARJ/VZFKhgmzaKGCZH6rZxUMEyQJwAwAVK/tZAKhgkyAGACpH5rIxUME+IKAMb0yLWXXppy+kTT5yiJVDCMzwCAMUj9NkMqGMbnCgAWSOq3OVLBMD4DABZI6rdxUsEwBlcAsABSv60hFQwLZADAPEn9totUMCyMKwCYJ6nfdpEKhoUxAGAepH7bSioY5stihjmS+m09qWCYB08AYA6kfjtBKhjmwQCAOZD67QypYJgjVwBwAlK/3SMVDCdmAMBxSP12k1QwnJgrADgGqd/ukgqGEzMA4Bikfjvv/F0nPfVrTR8C2soVAByF1G9vSAXDMRgAcBip336RCoajcwUAh1m0aN/O8OHfG1LBcHQGABzk0WtXrE8Rb2n6HEyaVDAcziKGA6R+e08qGA7iCQCE1G8hpILhIAYAhNRvQaSC4QBXABRP6rc8UsFgAFA4qd8ySQWDKwAKJvVbLqlgMAAomNRv8aSCKZorAIok9csBUsEUywCgOFK/HEwqmFK5AqA4Ur8cTCqYUhkAFEXql6OTCqY8Fi/FkPrlBPbODtIF59z08a80fRCogycAFEHqlzlYMjXKH5UKphQGAEVYeuqzN4fULycmFUwxXAHQe1K/zJdUMCUwAOg1qV8WQiqYErgCoLekflkoqWBKYADQW1K/jEkqmF5zBUAvSf0yIVLB9JYBQO9I/TJJUsH0lSsAekfql0mSCqavDAB6ReqXakgF0z8WLb0h9UvFpILpFU8A6AWpX2ogFUyvGAD0gtQvNZEKpjdcAdB5Ur/UTSqYPjAA6DSpX5ogFUwfuAKgs6R+aYpUMH1gANBZUr80TCqYTnMFQCc9cu0lP53y4Ash9UuzpILpLAOAzpH6pU2kgukqVwB0jtQvbSIVTFcZAHSK1C/tJBVM91isdIbULy0nFUyneAJAJ0j90gFSwXSKAUAnSP3SEVLBdIYrAFpP6peukQqmCwwAWk3qly6SCqYLXAHQWlK/dJVUMF1gANBaUr90nFQwreYKgFaS+qUnpIJpLQOA1pH6pU+kgmkrVwC0jtQvfSIVTFsZALSK1C/9lC/ede2Kq5s+BRzMIqU1pH7pOalgWsUTAFpB6pcCSAXTKgYArSD1SyGkgmkNVwA0TuqX0kgF0wYGAI2S+qVEUsG0gSsAGiP1S6mkgmkDA4DGSP1SOKlgGuUKgEZI/UJESAXTIAOA2kn9wg9IBdMUVwDUTuoXfkAqmKYYANRK6heORiqY+lmc1EbqF45LKphaeQJALaR+4YSkgqmVAUAtpH5hTqSCqY0rACon9Qvzk3K+/OxbPnlv0+eg3wwAKiX1C/MnFUwdXAFQGalfWBipYOpgAFAZqV8Yi1QwlXIFQCWkfmEipIKpjAHAxEn9wuRIBVMVVwBMnNQvTI5UMFUxAJgoqV+oglQwk2dRMjFSv1ApqWAmyhMAJkLqFyonFcxEGQBMhNQv1EIqmIlxBcDYpH6hXlLBTIIBwFikfqF+UsFMgisAFkzqF5ohFcwkGAAs2N8+fcb7pX6hMVLBjMUVAAsi9QutIBXMghkAzJvUL7SHVDAL5QqAeZP6hfaQCmahDADmReoX2kgqmPmzGJkzqV9oNalg5sUTAOZE6hdaTyqYeTEAmBOpX+iE8wZLltzU9CHoBlcAnJDUL3SLVDBzYQBwXFK/0D1SwcyFKwCOSeoXukkqmLkwADgmqV/oNKlgjssVAEcl9Qu9MEoR/+rsmz/x+aYPQvsYABxB6hf6QyqYY3EFwBGkfqE/pII5FgOAQ0j9Qh9JBXMki5Dv23XNv/uxHFNfDrU/6COpYA7hCQAR8XzqN6cpqV/oL6lgDmEAEBEHUr85Xt30OYBKSQXzfa4AkPqFwkgFE2EAFE/qF8ojFUyEK4CiSf1CmaSCiTAAiib1C0WTCi6cK4BCSf0CIRVcNAOgQFK/wAukgsvlCqBAUr/AC6SCy2UAFEbqFziSVHCJLL6CSP0CxyEVXBhPAAoh9QucwJLBKN/32LoVy5o+CPUwAAoh9QucSIr4kdFU/o2mz0E9XAEUQOoXmA+p4DIYAD0n9QvMl1RwGVwB9JjUL7AQUsFlMAB6TOoXGMP5f7v0qfc1fQiq4wqgp6R+gQmQCu4xA6CHpH6BSZEK7i9XAD0k9QtMilRwfxkAPSP1C0yeVHAfWXQ9IvULVEgquGc8AegJqV+gYlLBPWMA9ITUL1A1qeB+cQXQA1K/QJ2kgvvBAOg4qV+gblLB/eAKoMOkfoEmSAX3gwHQYVK/QIOkgjvOFUBHSf0CLSAV3GEGQAdJ/QJtIRXcXa4AOkjqF2gLqeDuMgA6RuoXaB+p4C6y2DpE6hdoMangjvEEoCOkfoGWkwruGAOgI6R+gbaTCu4WVwAdIPULdIlUcDcYAC0n9Qt0jVRwN7gCaDGpX6CLpIK7wQBoMalfoMOkglvOFUBLSf0CPSAV3GIGQAtJ/QJ9IRXcXq4AWkjqF+gLqeD2MgBaRuoX6B+p4DayyFpE6hfoManglvEEoCWkfoGekwpuGQOgJaR+gb6TCm4XVwAtIPULlEQquB0MgIZJ/QKlSRHPxCj9xNm3fvwbTZ+lZAYAnfa1S96Qmz4D5frh//5F/xtKZ/kZAAAokAEAAAUyAACgQAYAABTIAACAAhkAAFAgAwAACmQAAECBDAAAKJABAAAFMgAAoEAGAAAUyAAAgAIZAABQIAMAAApkAABAgQwAACiQAQAABTIAAKBABgAAFMgAAIACGQAAUCADAAAKZAAAQIEMAAAokAEAAAUyAACgQAYAABTIAACAAhkAAFAgAwAACjTd9AFgHCefc3bTRwDoJE8AAKBABgAAFMgAAIACGQAAUCADAAAKZAAAQIEMAAAokAEAAAUyAACgQAYAABTIAACAAhkAAFAgAwAACmQAAECBDAAAKJABAAAFMgAAoEAGAAAUyAAAgAIZAABQIAMAAApkAABAgQwAACiQAQAABTIAAKBABgAAFMgAAIACGQAAUCADAAAKZAAAQIEMAAAokAEAAAUyAACgQAYAABTIAACAAhkAAFAgAwAACmQAAECBDAAAKJABAAAFMgAAoEAGAAAUyAAAgAIZAABQIAMAAApkAABAgQwAACiQAQAABTIAAKBABgAAFMgAAIACGQAAUCADAAAKZAAAQIEMAAAokAEAAAUyAACgQAYAABTIAACAAhkAAFAgAwAACmQAAECBDAAAKJABAAAFMgAAoEAGAAAUyAAAgAIZAABQIAMAAApkAABAgQwAACiQAQAABTIAAKBABgAAFMgAAIACGQAAUCADAAAKZAAAQIEMAAAokAEAAAUyAACgQAYAABTIAACAAhkAAFAgAwAACmQAAECBDAAAKJABAAAFMgAAoEAGAAAUyAAAgAIZAABQIAMAAApkAABAgQwAACiQAQAABTIAAKBABgAAFMgAAIACGQAAUCADAAAKZAAAQIEMAAAokAEAAAUyAACgQAYAABTIAACAAhkAAFAgAwAACmQAAECBDAAAKJABAAAFMgAAoEAGAAAUyAAAgAIZAABQIAMAAApkAABAgQwAACiQAQAABTIAAKBABgAAFMgAAIACGQAAUCADAAAKZAAAQIEMAAAo0P8HxBIHbCgTpSYAAAAASUVORK5CYII=;" parent="WfICn3c8xEElV-hs6Pjb-121" vertex="1">
          <mxGeometry x="6" y="7" width="51" height="51" as="geometry" />
        </mxCell>
        <mxCell id="WfICn3c8xEElV-hs6Pjb-119" value="&lt;font color=&quot;#000000&quot;&gt;&lt;b&gt;Publishing&lt;br&gt;Service&lt;/b&gt;&lt;/font&gt;" style="text;html=1;align=center;verticalAlign=middle;resizable=0;points=[];autosize=1;fontColor=#6600CC;" parent="WfICn3c8xEElV-hs6Pjb-121" vertex="1">
          <mxGeometry x="65" y="12" width="80" height="30" as="geometry" />
        </mxCell>
        <mxCell id="WfICn3c8xEElV-hs6Pjb-122" style="edgeStyle=orthogonalEdgeStyle;rounded=0;orthogonalLoop=1;jettySize=auto;html=1;exitX=0;exitY=0.5;exitDx=0;exitDy=0;entryX=1.055;entryY=0.626;entryDx=0;entryDy=0;entryPerimeter=0;fontColor=#6600CC;" parent="1" source="WfICn3c8xEElV-hs6Pjb-118" target="WfICn3c8xEElV-hs6Pjb-32" edge="1">
          <mxGeometry relative="1" as="geometry" />
        </mxCell>
        <mxCell id="WfICn3c8xEElV-hs6Pjb-123" style="edgeStyle=orthogonalEdgeStyle;rounded=0;orthogonalLoop=1;jettySize=auto;html=1;exitX=0.5;exitY=1;exitDx=0;exitDy=0;entryX=0.75;entryY=0;entryDx=0;entryDy=0;fontColor=#6600CC;" parent="1" source="WfICn3c8xEElV-hs6Pjb-118" target="WfICn3c8xEElV-hs6Pjb-51" edge="1">
          <mxGeometry relative="1" as="geometry" />
        </mxCell>
      </root>
    </mxGraphModel>
  </diagram>
</mxfile>
